<svg width="49" height="49" viewBox="0 0 49 49" fill="none" xmlns="http://www.w3.org/2000/svg">
<path d="M24.5 39.2C24.5 40.915 24.8185 42.5565 25.3575 44.1H4.9C3.60044 44.1 2.3541 43.5838 1.43518 42.6648C0.516248 41.7459 0 40.4996 0 39.2V4.9C0 2.205 2.205 0 4.9 0H39.2C40.4996 0 41.7459 0.516248 42.6648 1.43518C43.5838 2.3541 44.1 3.60044 44.1 4.9V25.3575C42.5565 24.8185 40.915 24.5 39.2 24.5V4.9H4.9V39.2H24.5ZM26.852 22.7605L20.1145 31.4335L15.3125 25.6515L8.575 34.3H25.3575C26.3375 31.556 28.1015 29.1795 30.38 27.4645L26.852 22.7605ZM41.65 36.75V29.4H36.75V36.75H29.4V41.65H36.75V49H41.65V41.65H49V36.75H41.65Z" fill="#F45538"/>
</svg>
