<svg xmlns="http://www.w3.org/2000/svg" width="24" height="25" viewBox="0 0 24 25" fill="none">
  <path d="M12 3.05176C9.61305 3.05176 7.32387 3.99997 5.63604 5.6878C3.94821 7.37562 3 9.66481 3 12.0518V19.0518C3 20.1518 3.9 21.0518 5 21.0518H9V13.0518H5V12.0518C5 8.18176 8.13 5.05176 12 5.05176C15.87 5.05176 19 8.18176 19 12.0518V13.0518H15V21.0518H19C20.1 21.0518 21 20.1518 21 19.0518V12.0518C21 9.66481 20.0518 7.37562 18.364 5.6878C16.6761 3.99997 14.3869 3.05176 12 3.05176ZM7 15.0518V19.0518H5V15.0518H7ZM19 19.0518H17V15.0518H19V19.0518Z" fill="white"/>
</svg>