<svg width="16" viewBox="0 0 16 8" fill="#8E8E8E" xmlns="http://www.w3.org/2000/svg">
<path d="M0.189662 1.03148L7.51754 7.8142C7.64625 7.93333 7.81888 8 7.99862 8C8.17836 8 8.35099 7.93333 8.4797 7.8142L15.8103 1.03148C15.8704 0.97599 15.9181 0.909642 15.9506 0.836355C15.9832 0.763069 16 0.684328 16 0.604781C16 0.525234 15.9832 0.446493 15.9506 0.373206C15.9181 0.299919 15.8704 0.233572 15.8103 0.17808C15.6872 0.0639145 15.522 1.85098e-07 15.3499 1.83046e-07C15.1779 1.80994e-07 15.0126 0.0639145 14.8895 0.17808L7.99862 6.55635L1.10909 0.17808C0.986063 0.0643058 0.821113 0.000638972 0.649378 0.00063897C0.477642 0.000638967 0.312692 0.0643058 0.189662 0.17808C0.129639 0.233572 0.0819326 0.299919 0.0493577 0.373206C0.0167828 0.446493 8.91357e-08 0.525234 8.81871e-08 0.604781C8.72385e-08 0.684328 0.0167828 0.763069 0.0493577 0.836355C0.0819326 0.909642 0.129639 0.975989 0.189662 1.03148Z" fill="current"/>
</svg>
