<svg width="53" height="53" viewBox="0 0 53 53" fill="#F45538" xmlns="http://www.w3.org/2000/svg">
<path d="M45.1087 8.79199H7.89685C6.89619 8.79355 5.93697 9.19175 5.2294 9.89932C4.52183 10.6069 4.12363 11.5661 4.12207 12.5668V40.433C4.12363 41.4337 4.52183 42.3929 5.2294 43.1004C5.93697 43.808 6.89619 44.2062 7.89685 44.2078H45.1087C46.1088 44.2062 47.0675 43.8078 47.7741 43.1001C48.4807 42.3923 48.8776 41.4331 48.8776 40.433V12.5668C48.8776 11.5667 48.4807 10.6074 47.7741 9.89968C47.0675 9.19194 46.1088 8.79355 45.1087 8.79199ZM7.89685 11.707H45.1087C45.3357 11.7085 45.5529 11.7998 45.7129 11.9609C45.8729 12.122 45.9626 12.3398 45.9626 12.5668V18.2201H7.06651V12.5668C7.06638 12.3438 7.15291 12.1294 7.30784 11.969C7.46277 11.8086 7.67396 11.7146 7.89685 11.707ZM45.1087 41.2928H7.89685C7.67396 41.2851 7.46277 41.1912 7.30784 41.0308C7.15291 40.8704 7.06638 40.656 7.06651 40.433V21.1351H45.9921V40.433C45.9921 40.5479 45.9691 40.6617 45.9244 40.7675C45.8798 40.8734 45.8143 40.9693 45.732 41.0494C45.6496 41.1296 45.552 41.1924 45.445 41.2342C45.338 41.276 45.2236 41.2959 45.1087 41.2928Z" fill="current"/>
<path d="M24.1029 33.6021H12.0307C11.8315 33.5894 11.6318 33.6177 11.444 33.6852C11.2561 33.7527 11.0841 33.858 10.9386 33.9946C10.7931 34.1312 10.6771 34.2962 10.5978 34.4793C10.5185 34.6625 10.4775 34.86 10.4775 35.0596C10.4775 35.2592 10.5185 35.4566 10.5978 35.6398C10.6771 35.823 10.7931 35.9879 10.9386 36.1245C11.0841 36.2611 11.2561 36.3664 11.444 36.4339C11.6318 36.5014 11.8315 36.5297 12.0307 36.5171H24.1029C24.4734 36.4935 24.8211 36.3297 25.0752 36.0589C25.3292 35.7882 25.4706 35.4309 25.4706 35.0596C25.4706 34.6883 25.3292 34.3309 25.0752 34.0602C24.8211 33.7894 24.4734 33.6256 24.1029 33.6021Z" fill="current"/>
<path d="M35.6805 33.6021H29.2027C28.8322 33.6256 28.4845 33.7894 28.2304 34.0602C27.9764 34.3309 27.835 34.6883 27.835 35.0595C27.835 35.4308 27.9764 35.7882 28.2304 36.0589C28.4845 36.3297 28.8322 36.4935 29.2027 36.517H35.6805C36.051 36.4935 36.3987 36.3297 36.6528 36.0589C36.9068 35.7882 37.0482 35.4308 37.0482 35.0595C37.0482 34.6883 36.9068 34.3309 36.6528 34.0602C36.3987 33.7894 36.051 33.6256 35.6805 33.6021Z" fill="current"/>
</svg>
