<svg width="22" viewBox="0 0 22 24" fill="#9CB148" stroke="#9CB148" xmlns="http://www.w3.org/2000/svg">
<path d="M3.55855 23.9977C3.22299 23.9219 2.87702 23.8709 2.55317 23.7668C1.22784 23.34 0.286188 22.5782 0.0442728 21.3307C-0.0532737 20.8258 0.0338679 20.2892 0.0819908 19.7696C0.223758 18.2436 0.387637 16.7199 0.543711 15.1962C0.715393 13.5162 0.889676 11.8363 1.06136 10.1563C1.21353 8.66317 1.37221 7.17002 1.51007 5.67573C1.58941 4.81765 1.73118 4.6886 2.72095 4.6886C3.57416 4.6886 4.42606 4.6886 5.27927 4.6886C5.37552 4.6886 5.47176 4.6886 5.58492 4.6886C5.64605 3.18865 6.30546 1.95926 7.63209 1.02759C8.67909 0.2929 9.88997 -0.0421825 11.2335 0.00423099C13.9232 0.099322 16.3319 2.01133 16.397 4.67614C16.488 4.67954 16.583 4.68746 16.6779 4.68746C17.6378 4.6886 18.5989 4.68746 19.5588 4.6886C20.1402 4.68973 20.3769 4.86746 20.4302 5.37348C20.611 7.09191 20.7827 8.81147 20.9583 10.5299C21.1299 12.2019 21.3029 13.8739 21.4746 15.5471C21.6268 17.0402 21.775 18.5345 21.9272 20.0277C21.9792 20.5405 22.0729 21.0556 21.8973 21.5627C21.4473 22.8657 20.3808 23.5789 18.9137 23.9026C18.7511 23.9389 18.5859 23.9672 18.4233 24C13.4693 23.9977 8.51392 23.9977 3.55855 23.9977ZM2.89783 5.89874C2.88093 5.9327 2.86792 5.94629 2.86662 5.95987C2.70274 7.55378 2.53756 9.14882 2.37498 10.7427C2.2059 12.4068 2.03942 14.072 1.86904 15.7361C1.69866 17.4002 1.52308 19.0643 1.3553 20.7295C1.30457 21.2356 1.51918 21.6646 1.90936 22.0269C2.53496 22.6087 3.33744 22.7989 4.22317 22.7989C8.73762 22.7978 13.2534 22.7989 17.7678 22.7978C18.3115 22.7978 18.8343 22.7208 19.3312 22.5114C20.213 22.1401 20.7072 21.4042 20.6162 20.6039C20.5056 19.6405 20.4107 18.676 20.3131 17.7115C20.1428 16.0395 19.9763 14.3664 19.8072 12.6944C19.6329 10.9748 19.4573 9.25636 19.2805 7.53793C19.2245 6.99569 19.166 6.45344 19.1075 5.90214C18.1957 5.90214 17.3035 5.90214 16.3853 5.90214C16.3853 6.00289 16.3853 6.08666 16.3853 6.17156C16.3853 6.75003 16.3879 7.32737 16.384 7.90584C16.3814 8.29979 16.0874 8.57714 15.692 8.57035C15.3058 8.56242 15.0274 8.2896 15.0248 7.90697C15.0209 7.32058 15.0235 6.73532 15.0235 6.14892C15.0235 6.06628 15.0235 5.98478 15.0235 5.90553C12.3117 5.90553 9.64285 5.90553 6.98699 5.90553C6.97138 5.9327 6.96358 5.9395 6.96358 5.94629C6.96097 6.61079 6.96097 7.27417 6.95447 7.93867C6.95057 8.29753 6.65273 8.56808 6.27815 8.56921C5.90097 8.57035 5.60183 8.30205 5.59792 7.9432C5.59142 7.41227 5.59532 6.88022 5.59532 6.34929C5.59532 6.20326 5.59532 6.05723 5.59532 5.89761C4.67708 5.89874 3.79266 5.89874 2.89783 5.89874ZM15.0118 4.67388C15.0144 2.73244 13.0765 1.11702 10.911 1.18608C8.38125 1.26758 6.90115 3.14903 6.98699 4.67388C9.65586 4.67388 12.326 4.67388 15.0118 4.67388Z" fill="#9CB148"/>
<path d="M19 5.5H2C1.66667 9.83333 1 18.9 1 20.5C1 22.1 3 22.8333 4 23H17C19.8 23 20.8333 21.6667 21 21L19 5.5Z" fill="current" stroke="current"/>
</svg>
