<svg width="30" height="39" viewBox="0 0 30 39" fill="#F31A1A" xmlns="http://www.w3.org/2000/svg">
<path fill-rule="evenodd" clip-rule="evenodd" d="M20.3571 0H9.64286L7.5 2.14286H0V6.42857H30V2.14286H22.5L20.3571 0ZM23.5715 12.8571V34.2857H6.42862V12.8571H23.5715ZM2.1422 8.57141H27.8565V34.2857C27.8565 36.6428 25.9279 38.5714 23.5708 38.5714H6.42792C4.07077 38.5714 2.1422 36.6428 2.1422 34.2857V8.57141Z" fill="#F31A1A"/>
<rect width="2.14285" height="17.1428" rx="1.07143" transform="matrix(-1 0 0 1 11.5713 15.4285)" fill="current"/>
<rect width="2.14285" height="17.1428" rx="1.07143" transform="matrix(-1 0 0 1 15.8574 15.4285)" fill="current"/>
<rect width="2.14285" height="17.1428" rx="1.07143" transform="matrix(-1 0 0 1 20.1426 15.4285)" fill="current"/>
</svg>
