<svg width="23" height="23" viewBox="0 0 23 23" fill="none" xmlns="http://www.w3.org/2000/svg">
<path d="M19.0878 0.15625L22.5995 3.66796L19.9224 6.34622L16.4107 2.83451L19.0878 0.15625ZM6.22559 16.5302H9.7373L18.2672 8.00024L14.7555 4.48853L6.22559 13.0185V16.5302Z" fill="#8E8E8E"/>
<path d="M19.107 20.0416H6.41573C6.38529 20.0416 6.35369 20.0533 6.32325 20.0533C6.28463 20.0533 6.246 20.0428 6.2062 20.0416H2.71907V3.65364H10.734L13.0751 1.3125H2.71907C1.42793 1.3125 0.37793 2.36133 0.37793 3.65364V20.0416C0.37793 21.3339 1.42793 22.3828 2.71907 22.3828H19.107C19.728 22.3828 20.3234 22.1361 20.7625 21.6971C21.2015 21.258 21.4482 20.6625 21.4482 20.0416V9.89512L19.107 12.2363V20.0416Z" fill="#8E8E8E"/>
</svg>
