<svg width="48" height="48" viewBox="0 0 48 48" fill="none" xmlns="http://www.w3.org/2000/svg">
<path d="M43.0091 13.2016V38.5604L34.9845 31.589H8.86251C8.35436 31.5892 7.85115 31.4893 7.38161 31.295C6.91207 31.1008 6.48542 30.8159 6.12602 30.4566C5.76662 30.0974 5.48152 29.6709 5.287 29.2014C5.09249 28.732 4.99237 28.2288 4.99237 27.7207V13.2016C4.99435 12.1767 5.40303 11.1944 6.12866 10.4705C6.85429 9.74663 7.83755 9.34033 8.86251 9.34082H39.1352C40.1608 9.33933 41.1451 9.7452 41.8715 10.4692C42.5979 11.1932 43.0071 12.176 43.0091 13.2016Z" stroke="white" stroke-width="3" stroke-linecap="round" stroke-linejoin="round"/>
<path d="M10.7555 17.3057H37.246" stroke="white" stroke-width="3" stroke-linecap="round" stroke-linejoin="round"/>
<path d="M10.7555 24.2939H37.246" stroke="white" stroke-width="3" stroke-linecap="round" stroke-linejoin="round"/>
</svg>
