<svg xmlns="http://www.w3.org/2000/svg" width="14" height="14" viewBox="0 0 14 14" fill="#FF7D03">
<path d="M13.0811 5.32044C13.0281 5.15713 12.9282 5.01302 12.7939 4.90606C12.6596 4.79909 12.4969 4.73399 12.3258 4.71888L9.07794 4.43887L7.80482 1.41138C7.73853 1.25252 7.62673 1.11682 7.48348 1.02138C7.34023 0.925929 7.17195 0.875 6.99982 0.875C6.82768 0.875 6.6594 0.925929 6.51615 1.02138C6.37291 1.11682 6.2611 1.25252 6.19482 1.41138L4.92552 4.43887L1.6738 4.72052C1.5021 4.73494 1.33848 4.79974 1.20347 4.90679C1.06845 5.01384 0.968039 5.15836 0.914833 5.32225C0.861626 5.48613 0.857989 5.66208 0.904379 5.82802C0.950768 5.99396 1.04512 6.14251 1.1756 6.25505L3.64255 8.41083L2.90318 11.6122C2.86408 11.7798 2.87524 11.9551 2.93525 12.1163C2.99526 12.2776 3.10147 12.4175 3.2406 12.5187C3.37972 12.6199 3.54559 12.6778 3.71746 12.6853C3.88933 12.6927 4.05958 12.6493 4.20693 12.5605L6.99599 10.8652L9.79107 12.5605C9.93841 12.6493 10.1087 12.6927 10.2805 12.6853C10.4524 12.6778 10.6183 12.6199 10.7574 12.5187C10.8965 12.4175 11.0027 12.2776 11.0627 12.1163C11.1228 11.9551 11.1339 11.7798 11.0948 11.6122L10.356 8.40755L12.8224 6.25505C12.9529 6.14212 13.047 5.99315 13.093 5.82685C13.1391 5.66056 13.1349 5.48437 13.0811 5.32044ZM12.2487 5.59388L9.78232 7.74637C9.66228 7.85079 9.57298 7.98596 9.52403 8.13734C9.47508 8.28872 9.46833 8.45058 9.50451 8.60552L10.2455 11.8124L7.45263 10.1171C7.31637 10.0341 7.1599 9.9902 7.00036 9.9902C6.84082 9.9902 6.68436 10.0341 6.5481 10.1171L3.75904 11.8124L4.49513 8.6077C4.53131 8.45277 4.52455 8.29091 4.4756 8.13953C4.42665 7.98815 4.33736 7.85298 4.21732 7.74856L1.74982 5.59716C1.74962 5.59552 1.74962 5.59387 1.74982 5.59224L5.00044 5.31114C5.15915 5.29715 5.31102 5.2401 5.43968 5.14613C5.56834 5.05217 5.6689 4.92486 5.73052 4.77794L6.99982 1.75427L8.26857 4.77794C8.33019 4.92486 8.43075 5.05217 8.55941 5.14613C8.68807 5.2401 8.83994 5.29715 8.99865 5.31114L12.2498 5.59224V5.59606L12.2487 5.59388Z" />
</svg>