<svg xmlns="http://www.w3.org/2000/svg" width="25" height="25" viewBox="0 0 25 25" fill="none">
  <path d="M17.6338 17.4569C18.2524 17.4569 18.7538 16.9554 18.7538 16.3369C18.7538 15.7183 18.2524 15.2169 17.6338 15.2169C17.0152 15.2169 16.5138 15.7183 16.5138 16.3369C16.5138 16.9554 17.0152 17.4569 17.6338 17.4569Z" fill="white"/>
  <path fill-rule="evenodd" clip-rule="evenodd" d="M17.6338 18.3369C16.9038 18.3369 15.4438 18.6969 15.3938 19.4169C15.8938 20.1269 16.7138 20.5869 17.6338 20.5869C18.5538 20.5869 19.3738 20.1269 19.8738 19.4169C19.8238 18.6969 18.3638 18.3369 17.6338 18.3369Z" fill="white"/>
  <path fill-rule="evenodd" clip-rule="evenodd" d="M18.6338 11.9269V7.10685L11.1338 3.83685L3.63379 7.10685V12.0169C3.63379 16.5569 6.83379 20.8069 11.1338 21.8369C11.6838 21.7069 12.2138 21.5169 12.7338 21.2869C13.2849 22.075 14.0182 22.7184 14.8713 23.1623C15.7244 23.6063 16.6721 23.8377 17.6338 23.8369C20.9438 23.8369 23.6338 21.1469 23.6338 17.8369C23.6338 14.8669 21.4738 12.4069 18.6338 11.9269ZM11.6338 17.8369C11.6338 18.3969 11.7138 18.9469 11.8638 19.4569C11.6238 19.5669 11.3838 19.6769 11.1338 19.7569C7.96379 18.7569 5.63379 15.5169 5.63379 12.0169V8.41685L11.1338 6.01685L16.6338 8.41685V11.9269C13.7938 12.4069 11.6338 14.8669 11.6338 17.8369ZM17.6338 21.8369C15.4238 21.8369 13.6338 20.0469 13.6338 17.8369C13.6338 15.6269 15.4238 13.8369 17.6338 13.8369C19.8438 13.8369 21.6338 15.6269 21.6338 17.8369C21.6338 20.0469 19.8438 21.8369 17.6338 21.8369Z" fill="white"/>
</svg>