<svg width="16" height="18" viewBox="0 0 16 18" fill="none" xmlns="http://www.w3.org/2000/svg">
<path d="M1 2C0.716667 2 0.479 1.904 0.287 1.712C0.0956668 1.52067 0 1.28333 0 1C0 0.716667 0.0956668 0.479 0.287 0.287C0.479 0.0956666 0.716667 0 1 0H15C15.2833 0 15.5207 0.0956666 15.712 0.287C15.904 0.479 16 0.716667 16 1C16 1.28333 15.904 1.52067 15.712 1.712C15.5207 1.904 15.2833 2 15 2H1ZM8 18C7.71667 18 7.47933 17.904 7.288 17.712C7.096 17.5207 7 17.2833 7 17V7.8L5.075 9.725C4.89167 9.90833 4.66667 10 4.4 10C4.13333 10 3.9 9.9 3.7 9.7C3.51667 9.51667 3.425 9.28333 3.425 9C3.425 8.71667 3.51667 8.48333 3.7 8.3L7.3 4.7C7.4 4.6 7.50833 4.52933 7.625 4.488C7.74167 4.446 7.86667 4.425 8 4.425C8.13333 4.425 8.25833 4.446 8.375 4.488C8.49167 4.52933 8.6 4.6 8.7 4.7L12.325 8.325C12.5083 8.50833 12.6 8.73333 12.6 9C12.6 9.26667 12.5 9.5 12.3 9.7C12.1167 9.88333 11.8833 9.975 11.6 9.975C11.3167 9.975 11.0833 9.88333 10.9 9.7L9 7.8V17C9 17.2833 8.90433 17.5207 8.713 17.712C8.521 17.904 8.28333 18 8 18Z" fill="#9CB148"/>
</svg>
