<svg width="14" viewBox="0 0 14 21" fill="white" xmlns="http://www.w3.org/2000/svg">
<path fill-rule="evenodd" clip-rule="evenodd" d="M7 0.0566406C3.13 0.0566406 0 3.30957 0 7.33156C0 12.7878 7 20.8421 7 20.8421C7 20.8421 14 12.7878 14 7.33156C14 3.30957 10.87 0.0566406 7 0.0566406ZM2 7.33153C2 4.46315 4.24 2.13519 7 2.13519C9.76 2.13519 12 4.46315 12 7.33153C12 10.3246 9.12 14.8039 7 17.5995C4.92 14.8246 2 10.2934 2 7.33153ZM4.5 7.33159C4.5 5.89665 5.61929 4.7334 7 4.7334C7.89316 4.7334 8.71848 5.22861 9.16506 6.03249C9.61165 6.83637 9.61165 7.8268 9.16506 8.63068C8.71848 9.43456 7.89316 9.92977 7 9.92977C5.61929 9.92977 4.5 8.76653 4.5 7.33159Z" fill="current"/>
</svg>
