<svg xmlns="http://www.w3.org/2000/svg" width="24" height="25" viewBox="0 0 24 25" fill="none">
  <path d="M12 2.05176C8.13 2.05176 5 5.18176 5 9.05176C5 14.3018 12 22.0518 12 22.0518C12 22.0518 19 14.3018 19 9.05176C19 5.18176 15.87 2.05176 12 2.05176ZM7 9.05176C7 6.29176 9.24 4.05176 12 4.05176C14.76 4.05176 17 6.29176 17 9.05176C17 11.9318 14.12 16.2418 12 18.9318C9.92 16.2618 7 11.9018 7 9.05176Z" fill="white"/>
  <path d="M12 11.5518C13.3807 11.5518 14.5 10.4325 14.5 9.05176C14.5 7.67105 13.3807 6.55176 12 6.55176C10.6193 6.55176 9.5 7.67105 9.5 9.05176C9.5 10.4325 10.6193 11.5518 12 11.5518Z" fill="white"/>
</svg>