<svg width="223" viewBox="0 0 223 72" fill="none" xmlns="http://www.w3.org/2000/svg">
<g clip-path="url(#clip0_121_1056)">
<path d="M19.4502 48.5627L16.6295 50.6128C19.0551 52.1627 21.0994 53.4698 23.1465 54.7756C25.1205 56.0352 27.0753 56.065 29.048 54.7417C29.9015 54.1681 30.8142 53.68 31.95 53.0047C28.2992 50.6928 24.8741 48.5111 21.4353 46.3484C16.5061 43.2488 11.5704 40.155 6.62833 37.0671C5.9882 36.6603 5.33844 36.2698 4.73823 35.8128C0.388096 32.4989 -1.59424 29.4888 1.50316 21.5986C1.60641 21.6067 1.76885 21.5769 1.80464 21.6298C4.33625 25.4169 8.14675 27.661 11.9421 29.9823C17.3027 33.261 22.5421 36.7254 27.8669 40.0691C32.3588 42.8922 36.9058 45.6284 41.3922 48.461C42.7191 49.3058 43.9816 50.2447 45.1697 51.2705C46.3687 52.2969 46.3192 53.5539 45.1958 54.5844C44.1189 55.5595 42.9587 56.4414 41.7281 57.2203C38.1489 59.5254 34.4912 61.7125 30.9202 64.0311C27.5998 66.1884 24.4157 66.1559 21.1035 63.9742C16.3817 60.865 11.5635 57.8806 6.80867 54.8217C6.11947 54.3838 5.47862 53.8762 4.89654 53.3071C3.0147 51.444 2.94311 49.4766 4.95574 47.7572C6.71644 46.2576 8.72356 45.0318 10.6715 43.7586C10.9606 43.5688 11.6145 43.6325 11.9421 43.8305C14.3705 45.3084 16.7548 46.8501 19.4502 48.5627Z" fill="white"/>
<path d="M33.0499 23.585L35.5732 21.2976C33.0513 19.7396 30.7 18.2671 28.3267 16.823C26.8124 15.9023 25.316 16.1206 23.8554 17.0061C22.8174 17.6366 21.7657 18.2454 20.462 19.0169C21.255 19.5376 21.8552 19.9457 22.4691 20.3335C31.04 25.7627 39.6329 31.1416 48.1817 36.6101C50.7326 38.2372 52.357 40.625 52.2428 43.6854C52.1547 46.0596 51.5627 48.4135 50.9212 50.8122C47.5815 45.2461 41.7529 43.0576 36.797 39.844C27.7485 33.9783 18.5554 28.3281 9.44352 22.5572C5.31915 19.9444 5.23105 18.3864 9.22326 15.7423C13.3531 13.0061 17.6372 10.4949 21.8125 7.82232C24.9264 5.83046 27.9041 5.90775 30.9918 7.91995C35.8775 11.105 40.8443 14.1694 45.7479 17.3274C46.5786 17.8676 47.328 18.5203 47.9739 19.2664C49.1743 20.6535 49.3161 22.4542 47.9573 23.6461C45.964 25.3925 43.6829 26.8244 41.4872 28.3471C41.2821 28.4894 40.7837 28.4244 40.536 28.2725C38.0787 26.7593 35.6338 25.2081 33.0499 23.585Z" fill="white"/>
<path d="M63.9082 46.2291H69.6997V48.1206C69.6997 48.9658 69.8162 49.5805 70.0493 49.9647C70.399 50.507 70.9542 50.7782 71.7151 50.7782C71.9979 50.7882 72.2796 50.7391 72.5418 50.6342C72.804 50.5292 73.0406 50.3708 73.2362 50.1694C73.4152 49.9871 73.556 49.7719 73.6505 49.5359C73.745 49.3 73.7913 49.0481 73.7869 48.7945C73.7869 47.6374 73.0623 46.4496 71.6132 45.2311L69.043 43.3396C67.1598 41.8029 66.0544 40.8442 65.7267 40.4636C65.2434 39.8645 64.8579 39.1947 64.5841 38.4786C64.3474 37.7029 64.2295 36.8967 64.2345 36.0867C64.2345 33.6912 64.8957 31.8942 66.2182 30.6955C67.5196 29.5077 69.401 28.9138 71.8624 28.9138C74.3788 28.9138 76.251 29.4765 77.479 30.602C78.7069 31.7274 79.3301 33.3052 79.3484 35.3355V37.6487H73.7621V36.2738C73.7621 35.5027 73.6616 34.8722 73.4606 34.3823C73.1642 33.7676 72.6356 33.4603 71.8747 33.4603C71.2498 33.4603 70.7523 33.6166 70.3825 33.9294C70.0154 34.272 69.8318 34.7511 69.8318 35.3667C69.8318 36.1803 70.6041 37.2067 72.1487 38.446L74.7987 40.4623C77.1674 42.5351 78.4981 43.8377 78.7909 44.3701C79.4471 45.5262 79.7752 47.0006 79.7752 48.7931C79.7752 50.366 79.1988 51.7622 78.0462 52.9816C76.5778 54.5337 74.4458 55.3097 71.6504 55.3097C68.9889 55.3097 66.963 54.5866 65.5726 53.1403C65.0299 52.5901 64.6032 51.9394 64.3173 51.2258C64.0314 50.5122 63.8919 49.7499 63.9068 48.983L63.9082 46.2291Z" fill="white"/>
<path d="M82.2051 47.9172V29.3179H88.1865V47.9796C88.1865 48.8754 88.2714 49.5267 88.4412 49.9335C88.599 50.361 89.0909 50.5748 89.9169 50.5748C90.4777 50.5748 90.9113 50.408 91.2178 50.0745C91.4932 49.7518 91.6308 49.0535 91.6308 47.9796V29.3179H97.6123V47.9172C97.6123 50.1771 96.9194 51.9692 95.5335 53.2935C94.1468 54.6385 92.2746 55.3106 89.9169 55.3097C87.5592 55.3088 85.6921 54.6471 84.3154 53.3246C82.9076 52.0031 82.2042 50.2006 82.2051 47.9172Z" fill="white"/>
<path d="M100.262 54.9043V29.3179H106.673C110.111 29.3179 112.47 29.7766 113.75 30.6941C115.199 31.7671 115.923 33.9032 115.924 37.1023C115.924 37.9764 115.914 38.5753 115.892 38.8989C115.849 39.2433 115.765 39.7332 115.639 40.3687C115.493 41.0685 115.207 41.7326 114.798 42.3226C113.771 43.9497 112.047 44.7633 109.625 44.7633H106.245V54.907L100.262 54.9043ZM106.245 33.867V40.2128H107.736C108.603 40.2128 109.2 39.9868 109.526 39.5348C109.811 39.0232 109.954 38.1685 109.954 36.9708C109.954 35.5642 109.7 34.6602 109.192 34.2589C108.874 33.9985 108.117 33.8684 106.922 33.8684L106.245 33.867Z" fill="white"/>
<path d="M118.321 54.9043V29.3179H131.618V34.2575H124.309V39.3369H130.72V44.2752H124.309V49.9701H131.911V54.9097L118.321 54.9043Z" fill="white"/>
<path d="M134.569 54.9043V29.3179H142.471C145.137 29.3179 147.064 29.7766 148.253 30.6941C149.441 31.6117 150.038 33.2162 150.043 35.5077C150.043 37.1448 149.847 38.3796 149.455 39.2121C148.936 40.2444 147.931 40.9843 146.44 41.4318C147.519 41.6189 148.36 42.098 148.963 42.8691C149.597 43.5877 149.915 44.4844 149.915 45.5592V52.5924C149.915 52.8383 149.937 53.0837 149.979 53.326C149.96 53.9012 150.156 54.4634 150.53 54.9057H144.61C144.419 54.686 144.244 54.1807 144.086 53.3897C144.005 52.7569 143.962 52.1198 143.959 51.4819C143.937 50.8785 143.928 50.4094 143.928 50.0758V45.966C143.928 45.2691 143.753 44.738 143.403 44.3728C143.064 44.0284 142.483 43.8562 141.659 43.8562H140.554V54.907L134.569 54.9043ZM140.554 33.6785V39.5091H142.013C142.88 39.5091 143.477 39.2171 143.802 38.6331L143.992 37.867L144.056 36.4921C144.056 35.4914 143.961 34.7999 143.771 34.4135C143.463 33.9235 142.781 33.6785 141.724 33.6785H140.554Z" fill="white"/>
<path d="M152.393 46.2292H158.184V48.1207C158.184 48.9659 158.301 49.5806 158.534 49.9648C158.881 50.5072 159.437 50.7784 160.199 50.7784C160.483 50.7886 160.765 50.7395 161.027 50.6343C161.29 50.5291 161.526 50.3703 161.722 50.1682C161.901 49.9859 162.042 49.7706 162.136 49.5347C162.231 49.2988 162.277 49.0468 162.273 48.7933C162.273 47.6362 161.548 46.4484 160.099 45.2299L157.527 43.3384C155.644 41.8016 154.539 40.843 154.211 40.4624C153.729 39.8626 153.343 39.193 153.068 38.4773C152.832 37.7016 152.715 36.8954 152.72 36.0855C152.72 33.69 153.381 31.8929 154.704 30.6943C156.005 29.5065 157.887 28.9126 160.348 28.9126C162.866 28.9126 164.739 29.4753 165.966 30.6007C167.193 31.7262 167.812 33.3045 167.822 35.3356V37.6489H162.237V36.274C162.237 35.5029 162.136 34.8724 161.935 34.3824C161.638 33.7677 161.109 33.4604 160.348 33.4604C159.724 33.4604 159.226 33.6163 158.857 33.9295C158.49 34.2721 158.306 34.7512 158.306 35.3668C158.306 36.1804 159.079 37.2068 160.623 38.4462L163.273 40.4624C165.643 42.5352 166.974 43.8378 167.266 44.3702C167.921 45.5264 168.248 47.0007 168.248 48.7933C168.248 50.3662 167.672 51.7623 166.519 52.9817C165.051 54.5338 162.92 55.3099 160.125 55.3099C157.458 55.3099 155.432 54.5867 154.047 53.1404C153.504 52.5904 153.077 51.9398 152.791 51.2262C152.506 50.5125 152.366 49.7501 152.382 48.9831L152.393 46.2292Z" fill="white"/>
<path d="M170.685 54.9043V29.3179H176.668V38.8989H180.109V29.3179H186.092V54.9043H180.109V44.0108H176.668V54.9043H170.685Z" fill="white"/>
<path d="M188.744 47.9173V36.3051C188.744 33.887 189.468 32.0339 190.917 30.7458C192.282 29.5263 194.128 28.9171 196.456 28.918C198.75 28.918 200.612 29.548 202.04 30.8081C203.449 32.0547 204.154 33.887 204.154 36.3051V47.9173C204.154 50.1772 203.461 51.9693 202.075 53.2936C200.688 54.6386 198.816 55.3107 196.458 55.3098C194.101 55.3089 192.233 54.6472 190.857 53.3247C189.443 52.0032 188.738 50.2007 188.744 47.9173ZM194.725 35.7885V48.4339C194.725 49.2041 194.857 49.8029 195.122 50.2305C195.376 50.5953 195.82 50.7729 196.456 50.7729C197.163 50.7729 197.661 50.4705 197.946 49.8658C198.097 49.4011 198.171 48.9161 198.168 48.4285V35.7885C198.184 35.2922 198.12 34.7964 197.978 34.32C197.714 33.746 197.206 33.4594 196.456 33.4603C195.735 33.4603 195.233 33.7365 194.948 34.2888C194.794 34.7739 194.718 35.2801 194.725 35.7885Z" fill="white"/>
<path d="M206.801 54.9043V29.3179H213.212C216.65 29.3179 219.009 29.7766 220.289 30.6941C221.738 31.7671 222.463 33.9032 222.463 37.1023C222.463 37.9764 222.452 38.5753 222.431 38.8989C222.389 39.2433 222.304 39.7332 222.178 40.3687C222.031 41.0683 221.745 41.7324 221.337 42.3226C220.31 43.9497 218.585 44.7633 216.163 44.7633H212.784V54.907L206.801 54.9043ZM212.784 33.867V40.2128H214.274C215.142 40.2128 215.738 39.9868 216.064 39.5348C216.349 39.0232 216.491 38.1685 216.492 36.9708C216.492 35.5642 216.238 34.6602 215.731 34.2589C215.412 33.9985 214.656 33.8684 213.461 33.8684L212.784 33.867Z" fill="white"/>
</g>
<defs>
<clipPath id="clip0_121_1056">
<rect width="222.462" height="72" fill="white"/>
</clipPath>
</defs>
</svg>
