<svg width="143" height="47" viewBox="0 0 143 47" fill="none" xmlns="http://www.w3.org/2000/svg">
<g clip-path="url(#clip0_62_243)">
<path d="M13.3552 31.97L11.5547 33.2798C13.103 34.27 14.4079 35.1051 15.7145 35.9393C16.9746 36.7441 18.2224 36.7632 19.4815 35.9177C20.0264 35.5512 20.6089 35.2394 21.3339 34.808C19.0035 33.3309 16.8173 31.9371 14.6223 30.5553C11.4759 28.575 8.32541 26.5984 5.17083 24.6256C4.76223 24.3657 4.34748 24.1162 3.96436 23.8243C1.18763 21.7071 -0.0777212 19.7839 1.89938 14.7429C1.96529 14.7481 2.06897 14.7291 2.09182 14.7629C3.70777 17.1824 6.14005 18.6161 8.56266 20.0992C11.9844 22.1939 15.3288 24.4073 18.7276 26.5436C21.5949 28.3472 24.4972 30.0953 27.361 31.905C28.2079 32.4447 29.0138 33.0447 29.7722 33.7C30.5375 34.3558 30.5059 35.1588 29.7888 35.8172C29.1014 36.4402 28.3609 37.0036 27.5754 37.5013C25.2907 38.9739 22.956 40.3713 20.6766 41.8526C18.5571 43.2309 16.5247 43.2101 14.4105 41.8162C11.3965 39.8298 8.32102 37.9231 5.28594 35.9688C4.84602 35.689 4.43696 35.3647 4.06541 35.0011C2.86421 33.8109 2.81852 32.5539 4.10319 31.4554C5.22707 30.4973 6.50823 29.7142 7.75161 28.9007C7.93614 28.7794 8.35353 28.8202 8.56266 28.9466C10.1127 29.8909 11.6346 30.8759 13.3552 31.97Z" fill="#009245"/>
<path d="M22.0361 16.0119L23.6468 14.5505C22.037 13.5551 20.5361 12.6143 19.0212 11.6917C18.0547 11.1035 17.0995 11.243 16.1672 11.8087C15.5046 12.2115 14.8333 12.6004 14.0012 13.0934C14.5073 13.426 14.8904 13.6868 15.2823 13.9345C20.7532 17.4032 26.2381 20.8397 31.6949 24.3335C33.3232 25.373 34.3601 26.8986 34.2871 28.8538C34.2309 30.3707 33.853 31.8745 33.4436 33.407C31.3118 29.8509 27.5913 28.4527 24.428 26.3996C18.6522 22.652 12.7841 19.0422 6.96793 15.3552C4.33531 13.6859 4.27907 12.6905 6.82734 11.0013C9.46348 9.2531 12.198 7.64873 14.8632 5.94127C16.8508 4.66869 18.7515 4.71807 20.7224 6.00365C23.841 8.03856 27.0114 9.99638 30.1413 12.014C30.6716 12.3591 31.15 12.7761 31.5622 13.2528C32.3285 14.139 32.419 15.2894 31.5517 16.0509C30.2793 17.1667 28.8233 18.0815 27.4217 19.0543C27.2908 19.1453 26.9727 19.1037 26.8145 19.0067C25.246 18.0399 23.6854 17.0488 22.0361 16.0119Z" fill="#FF0000"/>
<path d="M41.7335 30.4785H45.4302V31.687C45.4302 32.227 45.5046 32.6197 45.6534 32.8652C45.8766 33.2117 46.2311 33.3849 46.7167 33.3849C46.8972 33.3913 47.077 33.3599 47.2444 33.2929C47.4117 33.2259 47.5628 33.1247 47.6877 32.996C47.8019 32.8795 47.8918 32.742 47.9521 32.5913C48.0124 32.4405 48.042 32.2796 48.0391 32.1176C48.0391 31.3783 47.5767 30.6195 46.6517 29.8409L45.0111 28.6325C43.809 27.6507 43.1034 27.0382 42.8943 26.7951C42.5858 26.4123 42.3397 25.9844 42.165 25.5268C42.0138 25.0312 41.9386 24.5162 41.9418 23.9987C41.9418 22.4682 42.3638 21.3201 43.208 20.5543C44.0387 19.7955 45.2396 19.416 46.8107 19.416C48.417 19.416 49.612 19.7755 50.3959 20.4945C51.1797 21.2136 51.5774 22.2216 51.5892 23.5188V24.9967H48.0233V24.1182C48.0233 23.6256 47.9592 23.2228 47.8309 22.9098C47.6417 22.517 47.3043 22.3207 46.8186 22.3207C46.4197 22.3207 46.1022 22.4206 45.8661 22.6204C45.6318 22.8393 45.5146 23.1454 45.5146 23.5387C45.5146 24.0585 46.0076 24.7142 46.9935 25.506L48.685 26.7942C50.197 28.1185 51.0464 28.9507 51.2333 29.2909C51.6521 30.0295 51.8615 30.9715 51.8615 32.1167C51.8615 33.1216 51.4937 34.0136 50.7579 34.7927C49.8206 35.7843 48.4598 36.2801 46.6754 36.2801C44.9765 36.2801 43.6834 35.8181 42.7959 34.894C42.4495 34.5425 42.1771 34.1268 41.9946 33.6709C41.8121 33.215 41.7231 32.728 41.7326 32.238L41.7335 30.4785Z" fill="#FF0000"/>
<path d="M53.4121 31.5567V19.6738H57.2301V31.5966C57.2301 32.1689 57.2843 32.585 57.3927 32.8449C57.4934 33.1181 57.8074 33.2547 58.3347 33.2547C58.6926 33.2547 58.9694 33.1481 59.165 32.935C59.3408 32.7288 59.4287 32.2827 59.4287 31.5966V19.6738H63.2467V31.5567C63.2467 33.0005 62.8044 34.1455 61.9198 34.9916C61.0346 35.8509 59.8396 36.2803 58.3347 36.2797C56.8297 36.2792 55.6379 35.8564 54.7592 35.0115C53.8605 34.1671 53.4115 33.0156 53.4121 31.5567Z" fill="#FF0000"/>
<path d="M64.9385 36.0207V19.6738H69.0306C71.2251 19.6738 72.7309 19.9669 73.5481 20.5531C74.4725 21.2386 74.935 22.6033 74.9356 24.6472C74.9356 25.2057 74.9289 25.5883 74.9154 25.795C74.8878 26.0151 74.834 26.3281 74.7537 26.7341C74.6604 27.1812 74.4779 27.6055 74.2168 27.9824C73.5613 29.022 72.4606 29.5417 70.9146 29.5417H68.7574V36.0225L64.9385 36.0207ZM68.7574 22.5802V26.6345H69.709C70.2626 26.6345 70.6434 26.4901 70.8513 26.2013C71.0335 25.8744 71.1246 25.3284 71.1246 24.5632C71.1246 23.6645 70.9626 23.087 70.6387 22.8306C70.4354 22.6643 69.9524 22.5811 69.1897 22.5811L68.7574 22.5802Z" fill="#FF0000"/>
<path d="M76.4653 36.0207V19.6738H84.9528V22.8297H80.2877V26.0748H84.3799V29.2299H80.2877V32.8683H85.14V36.0242L76.4653 36.0207Z" fill="#FF0000"/>
<path d="M86.8369 36.0207V19.6738H91.8807C93.5825 19.6738 94.8127 19.9669 95.5713 20.5531C96.3299 21.1393 96.7107 22.1644 96.7136 23.6284C96.7136 24.6743 96.5886 25.4632 96.3384 25.9951C96.0075 26.6547 95.366 27.1274 94.4141 27.4133C95.103 27.5328 95.6399 27.8389 96.0247 28.3315C96.4295 28.7907 96.6319 29.3636 96.6319 30.0503V34.5437C96.6324 34.7008 96.6462 34.8575 96.6732 35.0124C96.6609 35.3799 96.786 35.739 97.0247 36.0216H93.2462C93.1238 35.8812 93.0122 35.5584 92.9115 35.0531C92.8596 34.6488 92.8326 34.2417 92.8306 33.8342C92.8166 33.4487 92.8104 33.149 92.8104 32.9359V30.3101C92.8104 29.8649 92.6988 29.5256 92.4756 29.2922C92.2594 29.0722 91.8883 28.9622 91.3623 28.9622H90.6567V36.0225L86.8369 36.0207ZM90.6567 22.4598V26.1849H91.5881C92.1417 26.1849 92.5225 25.9983 92.7304 25.6252L92.8517 25.1358L92.8921 24.2574C92.8921 23.618 92.8315 23.1762 92.7102 22.9293C92.514 22.6163 92.0784 22.4598 91.4036 22.4598H90.6567Z" fill="#FF0000"/>
<path d="M98.2133 30.4784H101.91V31.6869C101.91 32.2269 101.984 32.6196 102.133 32.8651C102.355 33.2116 102.71 33.3848 103.196 33.3848C103.377 33.3914 103.557 33.36 103.725 33.2928C103.892 33.2256 104.044 33.1241 104.168 32.995C104.283 32.8785 104.372 32.741 104.433 32.5903C104.493 32.4395 104.523 32.2786 104.52 32.1166C104.52 31.3773 104.057 30.6185 103.132 29.84L101.491 28.6315C100.289 27.6497 99.5832 27.0372 99.3741 26.7941C99.0662 26.4109 98.8202 25.9831 98.6448 25.5258C98.4939 25.0302 98.419 24.5152 98.4225 23.9977C98.4225 22.4673 98.8445 21.3191 99.6887 20.5533C100.519 19.7945 101.72 19.415 103.291 19.415C104.899 19.415 106.094 19.7745 106.877 20.4936C107.661 21.2126 108.055 22.221 108.062 23.5187V24.9965H104.497V24.1181C104.497 23.6255 104.433 23.2227 104.305 22.9097C104.115 22.5169 103.777 22.3206 103.291 22.3206C102.893 22.3206 102.575 22.4202 102.34 22.6203C102.105 22.8392 101.988 23.1453 101.988 23.5386C101.988 24.0584 102.481 24.7141 103.467 25.5059L105.159 26.7941C106.671 28.1184 107.521 28.9506 107.707 29.2907C108.125 30.0294 108.334 30.9713 108.334 32.1166C108.334 33.1215 107.966 34.0135 107.231 34.7926C106.293 35.7842 104.933 36.28 103.149 36.28C101.447 36.28 100.154 35.818 99.2695 34.8939C98.9229 34.5425 98.6505 34.1268 98.468 33.6709C98.2854 33.215 98.1965 32.7279 98.2063 32.2379L98.2133 30.4784Z" fill="#FF0000"/>
<path d="M109.89 36.0207V19.6738H113.709V25.795H115.905V19.6738H119.724V36.0207H115.905V29.0609H113.709V36.0207H109.89Z" fill="#FF0000"/>
<path d="M121.417 31.5574V24.1385C121.417 22.5936 121.879 21.4097 122.804 20.5867C123.675 19.8076 124.853 19.4184 126.339 19.4189C127.804 19.4189 128.992 19.8215 129.904 20.6266C130.803 21.423 131.253 22.5936 131.253 24.1385V31.5574C131.253 33.0012 130.811 34.1462 129.926 34.9922C129.041 35.8516 127.846 36.281 126.341 36.2804C124.836 36.2798 123.644 35.8571 122.765 35.0122C121.863 34.1678 121.413 33.0162 121.417 31.5574ZM125.235 23.8084V31.8875C125.235 32.3795 125.319 32.7621 125.488 33.0353C125.65 33.2683 125.933 33.3818 126.339 33.3818C126.791 33.3818 127.109 33.1886 127.291 32.8023C127.387 32.5054 127.434 32.1955 127.432 31.884V23.8084C127.443 23.4913 127.402 23.1746 127.311 22.8702C127.142 22.5035 126.818 22.3204 126.339 22.321C125.879 22.321 125.558 22.4975 125.377 22.8503C125.278 23.1603 125.23 23.4837 125.235 23.8084Z" fill="#FF0000"/>
<path d="M132.943 36.0207V19.6738H137.035C139.229 19.6738 140.735 19.9669 141.552 20.5531C142.477 21.2386 142.94 22.6033 142.94 24.6472C142.94 25.2057 142.933 25.5883 142.92 25.795C142.893 26.0151 142.839 26.3281 142.758 26.7341C142.664 27.181 142.482 27.6053 142.221 27.9824C141.566 29.022 140.465 29.5417 138.919 29.5417H136.762V36.0225L132.943 36.0207ZM136.762 22.5802V26.6345H137.713C138.267 26.6345 138.648 26.4901 138.856 26.2013C139.037 25.8744 139.128 25.3284 139.129 24.5632C139.129 23.6645 138.967 23.087 138.643 22.8306C138.44 22.6643 137.957 22.5811 137.194 22.5811L136.762 22.5802Z" fill="#FF0000"/>
</g>
<defs>
<clipPath id="clip0_62_243">
<rect width="142" height="46" fill="white" transform="translate(0.939941 0.943359)"/>
</clipPath>
</defs>
</svg>
