<svg width="116" height="38" viewBox="24 3 116 38" fill="none" xmlns="http://www.w3.org/2000/svg">
<g clip-path="url(#clip0_55_721)">
<path d="M33.3245 24.3989H36.3444V25.3972C36.3444 25.8432 36.4052 26.1677 36.5267 26.3704C36.7091 26.6567 36.9986 26.7998 37.3953 26.7998C37.5428 26.8051 37.6897 26.7791 37.8264 26.7238C37.9631 26.6684 38.0865 26.5848 38.1885 26.4785C38.2818 26.3823 38.3552 26.2687 38.4045 26.1442C38.4538 26.0196 38.4779 25.8867 38.4756 25.7528C38.4756 25.1422 38.0978 24.5153 37.3422 23.8722L36.002 22.8739C35.02 22.0628 34.4436 21.5569 34.2728 21.356C34.0207 21.0398 33.8197 20.6863 33.677 20.3083C33.5535 19.8989 33.492 19.4734 33.4946 19.0459C33.4946 17.7817 33.8394 16.8332 34.529 16.2006C35.2076 15.5737 36.1886 15.2603 37.4721 15.2603C38.7843 15.2603 39.7605 15.5572 40.4008 16.1512C41.0411 16.7452 41.366 17.5779 41.3756 18.6495V19.8703H38.4627V19.1447C38.4627 18.7377 38.4103 18.405 38.3055 18.1464C38.1509 17.822 37.8753 17.6598 37.4786 17.6598C37.1527 17.6598 36.8933 17.7423 36.7004 17.9074C36.509 18.0882 36.4133 18.341 36.4133 18.6659C36.4133 19.0953 36.816 19.6371 37.6214 20.2911L39.0032 21.3553C40.2383 22.4492 40.9322 23.1367 41.0849 23.4177C41.4271 24.0279 41.5981 24.8061 41.5981 25.7521C41.5981 26.5822 41.2976 27.3191 40.6966 27.9627C39.9309 28.7819 38.8192 29.1914 37.3616 29.1914C35.9738 29.1914 34.9174 28.8098 34.1924 28.0464C33.9094 27.756 33.6869 27.4126 33.5378 27.036C33.3888 26.6594 33.316 26.2571 33.3238 25.8523L33.3245 24.3989Z" fill="#FF0000"/>
<path d="M42.8643 25.2895V15.4731H45.9832V25.3224C45.9832 25.7952 46.0275 26.1389 46.116 26.3536C46.1983 26.5793 46.4548 26.6921 46.8855 26.6921C47.1779 26.6921 47.404 26.6041 47.5638 26.428C47.7074 26.2577 47.7792 25.8892 47.7792 25.3224V15.4731H50.8981V25.2895C50.8981 26.4822 50.5368 27.428 49.8142 28.1269C49.0911 28.8368 48.1149 29.1916 46.8855 29.1911C45.6561 29.1906 44.6825 28.8414 43.9647 28.1434C43.2306 27.4459 42.8638 26.4946 42.8643 25.2895Z" fill="#FF0000"/>
<path d="M52.2803 28.9771V15.4731H55.6232C57.4158 15.4731 58.6459 15.7153 59.3135 16.1995C60.0686 16.7658 60.4465 17.8932 60.4469 19.5816C60.4469 20.0429 60.4414 20.359 60.4304 20.5298C60.4079 20.7116 60.3639 20.9701 60.2983 21.3055C60.2221 21.6749 60.073 22.0254 59.8598 22.3368C59.3243 23.1955 58.4251 23.6249 57.1622 23.6249H55.3999V28.9785L52.2803 28.9771ZM55.3999 17.8741V21.2232H56.1773C56.6296 21.2232 56.9406 21.104 57.1105 20.8654C57.2593 20.5954 57.3337 20.1443 57.3337 19.5122C57.3337 18.7698 57.2014 18.2927 56.9368 18.0809C56.7707 17.9435 56.3762 17.8748 55.7531 17.8748L55.3999 17.8741Z" fill="#FF0000"/>
<path d="M61.6973 28.9771V15.4731H68.6307V18.0802H64.8198V20.7609H68.1627V23.3673H64.8198V26.3729H68.7836V28.98L61.6973 28.9771Z" fill="#FF0000"/>
<path d="M70.1689 28.9771V15.4731H74.2892C75.6794 15.4731 76.6844 15.7153 77.3041 16.1995C77.9238 16.6838 78.2349 17.5306 78.2373 18.74C78.2373 19.604 78.1351 20.2557 77.9308 20.6951C77.6604 21.2399 77.1364 21.6304 76.3587 21.8666C76.9215 21.9653 77.3601 22.2182 77.6745 22.6252C78.0052 23.0044 78.1705 23.4777 78.1705 24.045V27.7569C78.1709 27.8867 78.1822 28.0162 78.2042 28.1441C78.1942 28.4477 78.2964 28.7444 78.4914 28.9778H75.4047C75.3047 28.8619 75.2136 28.5952 75.1312 28.1777C75.0889 27.8437 75.0668 27.5075 75.0652 27.1708C75.0537 26.8524 75.0487 26.6048 75.0487 26.4287V24.2597C75.0487 23.8918 74.9575 23.6115 74.7752 23.4188C74.5986 23.237 74.2955 23.1461 73.8657 23.1461H73.2893V28.9785L70.1689 28.9771ZM73.2893 17.7746V20.8518H74.0502C74.5024 20.8518 74.8135 20.6977 74.9834 20.3895L75.0824 19.9852L75.1154 19.2595C75.1154 18.7314 75.0659 18.3664 74.9669 18.1625C74.8066 17.9039 74.4508 17.7746 73.8995 17.7746H73.2893Z" fill="#FF0000"/>
<path d="M79.4634 24.3986H82.4832V25.3969C82.4832 25.843 82.544 26.1674 82.6656 26.3702C82.8469 26.6564 83.1365 26.7995 83.5341 26.7995C83.6818 26.8049 83.8289 26.779 83.9658 26.7235C84.1026 26.668 84.2261 26.5842 84.328 26.4775C84.4214 26.3813 84.4947 26.2677 84.544 26.1432C84.5933 26.0186 84.6175 25.8857 84.6152 25.7519C84.6152 25.1412 84.2374 24.5143 83.4817 23.8712L82.1408 22.8729C81.1589 22.0618 80.5824 21.5559 80.4116 21.355C80.1601 21.0384 79.9591 20.6851 79.8158 20.3073C79.6926 19.8979 79.6314 19.4724 79.6342 19.045C79.6342 17.7807 79.979 16.8322 80.6686 16.1996C81.3472 15.5727 82.3282 15.2593 83.6117 15.2593C84.9248 15.2593 85.9013 15.5563 86.5411 16.1502C87.1809 16.7442 87.5034 17.5772 87.5087 18.6492V19.8701H84.5965V19.1444C84.5965 18.7375 84.5441 18.4047 84.4393 18.1461C84.2843 17.8217 84.0084 17.6595 83.6117 17.6595C83.2865 17.6595 83.0266 17.7418 82.8343 17.9071C82.6428 18.0879 82.5471 18.3408 82.5471 18.6657C82.5471 19.0951 82.9498 19.6368 83.7552 20.2909L85.137 21.355C86.3726 22.449 87.0665 23.1365 87.2187 23.4175C87.5604 24.0277 87.7312 24.8058 87.7312 25.7519C87.7312 26.582 87.4307 27.3188 86.8297 27.9624C86.064 28.7816 84.9526 29.1912 83.4954 29.1912C82.1047 29.1912 81.0483 28.8095 80.3262 28.0462C80.043 27.7559 79.8205 27.4125 79.6714 27.0359C79.5223 26.6592 79.4496 26.2569 79.4576 25.852L79.4634 24.3986Z" fill="#FF0000"/>
<path d="M89.001 28.9771V15.4731H92.1206V20.5298H93.9152V15.4731H97.0348V28.9771H93.9152V23.2277H92.1206V28.9771H89.001Z" fill="#FF0000"/>
<path d="M98.418 25.2896V19.161C98.418 17.8848 98.7958 16.9067 99.5514 16.2269C100.263 15.5833 101.226 15.2617 102.439 15.2622C103.636 15.2622 104.606 15.5947 105.351 16.2598C106.086 16.9177 106.453 17.8848 106.453 19.161V25.2896C106.453 26.4823 106.092 27.4282 105.369 28.1271C104.646 28.837 103.67 29.1917 102.441 29.1912C101.211 29.1908 100.238 28.8415 99.5198 28.1436C98.7824 27.4461 98.4151 26.4947 98.418 25.2896ZM101.537 18.8883V25.5623C101.537 25.9688 101.606 26.2848 101.744 26.5105C101.876 26.703 102.108 26.7967 102.439 26.7967C102.808 26.7967 103.068 26.6372 103.217 26.318C103.295 26.0728 103.334 25.8168 103.332 25.5594V18.8883C103.341 18.6264 103.307 18.3647 103.233 18.1133C103.095 17.8103 102.831 17.6591 102.439 17.6596C102.064 17.6596 101.802 17.8053 101.653 18.0968C101.573 18.3529 101.533 18.62 101.537 18.8883Z" fill="#FF0000"/>
<path d="M107.833 28.9771V15.4731H111.176C112.969 15.4731 114.199 15.7153 114.866 16.1995C115.622 16.7658 116 17.8932 116 19.5816C116 20.0429 115.994 20.359 115.983 20.5298C115.961 20.7116 115.917 20.9701 115.851 21.3055C115.775 21.6748 115.625 22.0252 115.412 22.3368C114.877 23.1955 113.978 23.6249 112.715 23.6249H110.953V28.9785L107.833 28.9771ZM110.953 17.8741V21.2232H111.73C112.182 21.2232 112.493 21.104 112.663 20.8654C112.812 20.5954 112.886 20.1443 112.886 19.5122C112.886 18.7698 112.754 18.2927 112.49 18.0809C112.323 17.9435 111.929 17.8748 111.306 17.8748L110.953 17.8741Z" fill="#FF0000"/>
</g>
<defs>
<clipPath id="clip0_55_721">
<rect width="116" height="38" fill="white"/>
</clipPath>
</defs>
</svg>
