<svg width="21" viewBox="0 0 21 17" fill="white" xmlns="http://www.w3.org/2000/svg">
<path d="M19.5469 0.336914H0.859375C0.461816 0.336914 0.140625 0.658105 0.140625 1.05566V15.4307C0.140625 15.8282 0.461816 16.1494 0.859375 16.1494H19.5469C19.9444 16.1494 20.2656 15.8282 20.2656 15.4307V1.05566C20.2656 0.658105 19.9444 0.336914 19.5469 0.336914ZM18.6484 2.82559V14.5322H1.75781V2.82559L1.13789 2.34268L2.02061 1.2084L2.98193 1.95635H17.4266L18.3879 1.2084L19.2706 2.34268L18.6484 2.82559ZM17.4266 1.9541L10.2031 7.56934L2.97969 1.9541L2.01836 1.20615L1.13564 2.34043L1.75557 2.82334L9.42822 8.78896C9.64888 8.96039 9.92034 9.05344 10.1998 9.05344C10.4792 9.05344 10.7506 8.96039 10.9713 8.78896L18.6484 2.82559L19.2684 2.34268L18.3856 1.2084L17.4266 1.9541Z" fill="current"/>
</svg>
