<svg width="25" height="20" viewBox="0 0 25 20" fill="none" xmlns="http://www.w3.org/2000/svg">
<path d="M23.5561 0H0.87245C0.389876 0 0 0.389876 0 0.87245V18.3214C0 18.804 0.389876 19.1939 0.87245 19.1939H23.5561C24.0387 19.1939 24.4286 18.804 24.4286 18.3214V0.87245C24.4286 0.389876 24.0387 0 23.5561 0ZM22.4656 3.02086V17.2309H1.96301V3.02086L1.21052 2.43468L2.282 1.05785L3.4489 1.96574H20.9824L22.1493 1.05785L23.2208 2.43468L22.4656 3.02086V3.02086ZM20.9824 1.96301L12.2143 8.77903L3.44618 1.96301L2.27928 1.05512L1.2078 2.43195L1.96029 3.01813L11.2737 10.2595C11.5415 10.4675 11.871 10.5805 12.2102 10.5805C12.5494 10.5805 12.8789 10.4675 13.1467 10.2595L22.4656 3.02086L23.2181 2.43468L22.1466 1.05785L20.9824 1.96301Z" fill="#2C9382"/>
</svg>
