<svg xmlns="http://www.w3.org/2000/svg" width="34" height="34" viewBox="0 0 34 34" fill="none">
  <path d="M28.4042 15.583H5.59583C4.85255 15.583 4.25 16.1856 4.25 16.9288V17.0705C4.25 17.8138 4.85255 18.4163 5.59583 18.4163H28.4042C29.1474 18.4163 29.75 17.8138 29.75 17.0705V16.9288C29.75 16.1856 29.1474 15.583 28.4042 15.583Z" fill="white"/>
  <path d="M28.4042 22.667H5.59583C4.85255 22.667 4.25 23.2695 4.25 24.0128V24.1545C4.25 24.8978 4.85255 25.5003 5.59583 25.5003H28.4042C29.1474 25.5003 29.75 24.8978 29.75 24.1545V24.0128C29.75 23.2695 29.1474 22.667 28.4042 22.667Z" fill="white"/>
  <path d="M28.4042 8.5H5.59583C4.85255 8.5 4.25 9.10255 4.25 9.84583V9.9875C4.25 10.7308 4.85255 11.3333 5.59583 11.3333H28.4042C29.1474 11.3333 29.75 10.7308 29.75 9.9875V9.84583C29.75 9.10255 29.1474 8.5 28.4042 8.5Z" fill="white"/>
</svg>
