<svg xmlns="http://www.w3.org/2000/svg" width="25" height="25" viewBox="0 0 25 25" fill="none">
  <path d="M20.1338 4.33685L18.6338 2.83685L17.1338 4.33685L15.6338 2.83685L14.1338 4.33685L12.6338 2.83685L11.1338 4.33685L9.63379 2.83685L8.13379 4.33685L6.63379 2.83685V16.8369H3.63379V19.8369C3.63379 21.4969 4.97379 22.8369 6.63379 22.8369H18.6338C20.2938 22.8369 21.6338 21.4969 21.6338 19.8369V2.83685L20.1338 4.33685ZM15.6338 20.8369H6.63379C6.08379 20.8369 5.63379 20.3869 5.63379 19.8369V18.8369H15.6338V20.8369ZM19.6338 19.8369C19.6338 20.3869 19.1838 20.8369 18.6338 20.8369C18.0838 20.8369 17.6338 20.3869 17.6338 19.8369V16.8369H8.63379V5.83685H19.6338V19.8369Z" fill="white"/>
  <path d="M9.63379 7.83685H15.6338V9.83685H9.63379V7.83685ZM16.6338 7.83685H18.6338V9.83685H16.6338V7.83685ZM9.63379 10.8369H15.6338V12.8369H9.63379V10.8369ZM16.6338 10.8369H18.6338V12.8369H16.6338V10.8369Z" fill="white"/>
</svg>