<svg width="53" height="53" viewBox="0 0 53 53" fill="#F45538" xmlns="http://www.w3.org/2000/svg">
<path d="M50.6031 14.8223H40.2386V7.0666C40.2404 6.80493 40.1683 6.54808 40.0305 6.32561C39.8927 6.10313 39.695 5.92407 39.4599 5.80902C39.2249 5.69397 38.9622 5.64761 38.702 5.67527C38.4418 5.70293 38.1947 5.80349 37.9891 5.96538L26.5941 14.7987H26.4056L15.0106 5.96538C14.8051 5.80349 14.5579 5.70293 14.2977 5.67527C14.0375 5.64761 13.7748 5.69397 13.5398 5.80902C13.3048 5.92407 13.107 6.10313 12.9692 6.32561C12.8315 6.54808 12.7593 6.80493 12.7611 7.0666V14.8223H2.39664C2.02649 14.8223 1.6715 14.9693 1.40976 15.231C1.14802 15.4928 1.00098 15.8478 1.00098 16.2179C1.00098 16.5881 1.14802 16.9431 1.40976 17.2048C1.6715 17.4666 2.02649 17.6136 2.39664 17.6136H6.14787V43.8722C6.14942 44.7853 6.51288 45.6607 7.1586 46.3064C7.80433 46.9521 8.67967 47.3156 9.59287 47.3172H43.4069C44.3201 47.3156 45.1954 46.9521 45.8411 46.3064C46.4869 45.6607 46.8503 44.7853 46.8519 43.8722V17.6136H50.6031C50.9732 17.6136 51.3282 17.4666 51.59 17.2048C51.8517 16.9431 51.9988 16.5881 51.9988 16.2179C51.9988 15.8478 51.8517 15.4928 51.59 15.231C51.3282 14.9693 50.9732 14.8223 50.6031 14.8223ZM37.4532 9.9286V14.8223H31.1462L37.4532 9.9286ZM15.5465 9.9286L21.8535 14.8223H15.5465V9.9286ZM44.1665 43.8722C44.1665 44.0799 44.084 44.2791 43.9371 44.426C43.7902 44.5729 43.591 44.6554 43.3833 44.6554H9.59287C9.38925 44.6493 9.19604 44.564 9.05421 44.4178C8.91238 44.2716 8.83311 44.0759 8.8332 43.8722V17.6136H44.1665V43.8722Z" fill="current"/>
<path d="M30.5575 31.5647C30.0702 31.2035 29.5325 30.9158 28.9616 30.7108C28.567 30.5577 28.1489 30.4281 27.7073 30.3045V24.8631C27.8486 24.8926 27.9958 24.9338 28.1372 24.975C28.5813 25.1014 29.0085 25.2813 29.4092 25.5109C29.7716 25.7078 30.0982 25.9647 30.3749 26.2706C30.5054 26.3695 30.6646 26.4233 30.8284 26.4237C31.0687 26.4193 31.2974 26.3198 31.4644 26.1469C31.6292 25.9937 31.7284 25.7827 31.7412 25.558C31.7263 25.3968 31.6784 25.2404 31.6003 25.0985C31.5223 24.9567 31.4159 24.8325 31.2877 24.7336C30.7455 24.1723 30.0773 23.7484 29.3385 23.4969C28.8128 23.303 28.2647 23.1763 27.7073 23.12V21.7008C27.7139 21.4606 27.6249 21.2277 27.4599 21.053C27.3778 20.9644 27.2772 20.8947 27.1653 20.8489C27.0534 20.8032 26.9329 20.7824 26.8122 20.788C26.6916 20.7843 26.5717 20.806 26.4601 20.8516C26.3485 20.8973 26.2477 20.9659 26.1644 21.053C26.079 21.1377 26.0115 21.2386 25.9659 21.3499C25.9204 21.4612 25.8978 21.5806 25.8994 21.7008V23.0847C25.2567 23.1419 24.6279 23.305 24.0385 23.5676C23.2982 23.884 22.6572 24.3947 22.1835 25.0457C21.7272 25.6948 21.49 26.4725 21.5063 27.2658C21.4963 27.8726 21.6147 28.4746 21.8537 29.0325C22.0791 29.5282 22.418 29.964 22.843 30.3045C23.2881 30.6707 23.7892 30.963 24.327 31.1701C24.8388 31.3768 25.3641 31.548 25.8994 31.6825V37.2769C25.3715 37.23 24.8546 37.0988 24.3683 36.8882C23.6707 36.5703 23.0348 36.1317 22.4897 35.5927C22.4191 35.5159 22.3337 35.4544 22.2385 35.4119C22.1433 35.3693 22.0404 35.3467 21.9362 35.3453C21.8165 35.3429 21.6977 35.3664 21.5879 35.4141C21.4781 35.4619 21.3799 35.5329 21.3002 35.6221C21.1332 35.7916 21.0401 36.0202 21.041 36.2581C21.0398 36.4062 21.0763 36.5521 21.147 36.6821C21.2034 36.8143 21.2902 36.9314 21.4003 37.0237C22.0981 37.686 22.9128 38.2132 23.8029 38.5784C24.4745 38.8374 25.1812 38.9942 25.8994 39.0436V41.1165C25.8943 41.2349 25.9148 41.353 25.9596 41.4627C26.0043 41.5725 26.0721 41.6713 26.1585 41.7525C26.2401 41.8382 26.339 41.9056 26.4487 41.9503C26.5583 41.995 26.6762 42.0159 26.7945 42.0116C26.9155 42.0165 27.0362 41.996 27.1488 41.9514C27.2614 41.9067 27.3634 41.839 27.4482 41.7525C27.5345 41.6713 27.6024 41.5725 27.6471 41.4627C27.6918 41.353 27.7123 41.2349 27.7073 41.1165V39.0082C28.2909 38.9314 28.859 38.7645 29.3915 38.5136C30.1369 38.1809 30.7839 37.6617 31.27 37.006C31.7289 36.3709 31.9706 35.6047 31.959 34.8212C31.9772 34.1516 31.8549 33.4856 31.5998 32.8661C31.3595 32.3564 31.0024 31.9106 30.5575 31.5647ZM25.8994 29.798C25.6246 29.7038 25.3655 29.6037 25.122 29.4977C24.621 29.3043 24.1701 29.0003 23.8029 28.6085C23.4703 28.2236 23.2957 27.727 23.3142 27.2187C23.2959 26.7435 23.4531 26.2782 23.7558 25.9113C24.0651 25.5294 24.4722 25.2384 24.9336 25.0692C25.2502 24.955 25.5778 24.874 25.9112 24.8278L25.8994 29.798ZM29.6683 36.1698C29.3293 36.5617 28.8983 36.8632 28.4139 37.0472C28.1852 37.136 27.9486 37.203 27.7073 37.2475V32.2419L28.249 32.4539C28.7768 32.6659 29.2513 32.9916 29.6388 33.4079C29.9716 33.8249 30.1449 34.3469 30.1276 34.8801C30.1307 35.3453 29.9678 35.7963 29.6683 36.1521V36.1698Z" fill="current"/>
</svg>
