<svg width="21" viewBox="0 0 21 22" fill="white" xmlns="http://www.w3.org/2000/svg">
<path fill-rule="evenodd" clip-rule="evenodd" d="M1.25174 0.28125H5.14062C5.75174 0.28125 6.25174 0.800887 6.25174 1.436C6.25174 2.87944 6.47396 4.26514 6.88507 5.55846C7.00729 5.96262 6.9184 6.41297 6.60729 6.7363L4.16285 9.27675C5.76285 12.5447 8.34063 15.2122 11.4851 16.8866L13.9295 14.3461C14.1517 14.1267 14.4295 14.0112 14.7184 14.0112C14.8295 14.0112 14.9517 14.0228 15.0628 14.069C16.3073 14.4962 17.6517 14.7272 19.0295 14.7272C19.6406 14.7272 20.1406 15.2468 20.1406 15.8819V19.912C20.1406 20.5471 19.6406 21.0667 19.0295 21.0667C8.59618 21.0667 0.140625 12.2791 0.140625 1.436C0.140625 0.800887 0.640625 0.28125 1.25174 0.28125ZM4.07622 2.59082C4.14288 3.61855 4.30955 4.62318 4.57622 5.58162L3.24288 6.96732C2.78733 5.58162 2.49844 4.11509 2.39844 2.59082H4.07622ZM15.0286 16.4707C15.9731 16.7478 16.9398 16.9211 17.9175 16.9903V18.7109C16.4509 18.607 15.0398 18.3068 13.6953 17.8449L15.0286 16.4707Z" fill="current"/>
</svg>
