<svg width="22" height="23" viewBox="0 0 22 23" fill="none" xmlns="http://www.w3.org/2000/svg">
<path fill-rule="evenodd" clip-rule="evenodd" d="M1.20025 0H5.40114C6.06127 0 6.60139 0.561326 6.60139 1.24739C6.60139 2.80663 6.84144 4.3035 7.28553 5.70058C7.41756 6.13717 7.32154 6.62365 6.98547 6.97292L4.34491 9.71719C6.07328 13.2473 8.85786 16.1288 12.2546 17.9375L14.8951 15.1932C15.1352 14.9562 15.4352 14.8315 15.7473 14.8315C15.8673 14.8315 15.9994 14.844 16.1194 14.8939C17.4637 15.3554 18.916 15.6049 20.4043 15.6049C21.0644 15.6049 21.6045 16.1662 21.6045 16.8523V21.2057C21.6045 21.8917 21.0644 22.4531 20.4043 22.4531C9.13392 22.4531 0 12.9604 0 1.24739C0 0.561326 0.540114 0 1.20025 0ZM4.25079 2.49484C4.32281 3.60502 4.50284 4.69025 4.7909 5.72559L3.3506 7.22246C2.8585 5.72559 2.54643 4.1414 2.43841 2.49484H4.25079ZM16.0823 17.4883C17.1025 17.7877 18.1467 17.9748 19.2029 18.0496V19.9082C17.6186 19.796 16.0943 19.4716 14.642 18.9727L16.0823 17.4883Z" fill="#2C9382"/>
</svg>
