<svg width="33" height="33" viewBox="0 0 33 33" fill="#0058DB" xmlns="http://www.w3.org/2000/svg">
<path d="M31.355 13.0552H28.8934C28.8907 10.771 27.9822 8.58104 26.367 6.96585C24.7518 5.35067 22.5619 4.44211 20.2777 4.43951V1.97789C23.2146 1.98115 26.0302 3.14926 28.1069 5.22595C30.1836 7.30263 31.3517 10.1183 31.355 13.0552ZM21.9184 23.4949L24.6754 20.7379C25.0444 20.3687 25.5137 20.116 26.025 20.011C26.5362 19.906 27.0671 19.9533 27.5518 20.1471L30.9094 21.4911C31.4043 21.6891 31.8285 22.0309 32.1273 22.4723C32.4261 22.9137 32.5858 23.4345 32.5858 23.9675V30.0736C32.5866 30.4365 32.5134 30.7957 32.3706 31.1294C32.2278 31.463 32.0184 31.764 31.7553 32.0139C31.4921 32.2638 31.1807 32.4574 30.8401 32.5828C30.4996 32.7082 30.137 32.7628 29.7746 32.7432C6.23909 31.2785 1.48571 11.3443 0.603221 3.71087C0.560479 3.33768 0.59723 2.95967 0.711057 2.60171C0.824883 2.24375 1.01321 1.91394 1.26364 1.63397C1.51407 1.35401 1.82093 1.13024 2.16405 0.977378C2.50717 0.824518 2.87876 0.746031 3.25438 0.747081H9.25211C9.78514 0.747064 10.3059 0.906755 10.7473 1.20556C11.1887 1.50436 11.5305 1.92856 11.7285 2.42344L13.0713 5.78109C13.2651 6.26575 13.3124 6.79662 13.2074 7.30791C13.1024 7.8192 12.8497 8.28844 12.4805 8.65749L9.72351 11.4145C9.72351 11.4145 11.2522 22.1619 21.9184 23.4949Z" fill="current"/>
</svg>
