<svg width="22" height="22" viewBox="0 0 22 22" fill="white" xmlns="http://www.w3.org/2000/svg">
<path d="M0 11C-2.15253e-08 9.55546 0.284523 8.12506 0.837325 6.79048C1.39013 5.4559 2.20038 4.24327 3.22183 3.22183C4.24327 2.20038 5.4559 1.39013 6.79048 0.837325C8.12506 0.284523 9.55546 0 11 0C12.4445 0 13.8749 0.284523 15.2095 0.837325C16.5441 1.39013 17.7567 2.20038 18.7782 3.22183C19.7996 4.24327 20.6099 5.4559 21.1627 6.79048C21.7155 8.12506 22 9.55546 22 11C22 13.9174 20.8411 16.7153 18.7782 18.7782C16.7153 20.8411 13.9174 22 11 22C8.08262 22 5.28473 20.8411 3.22183 18.7782C1.15893 16.7153 4.34724e-08 13.9174 0 11ZM11 5.5C10.7569 5.5 10.5237 5.59658 10.3518 5.76849C10.1799 5.94039 10.0833 6.17355 10.0833 6.41667V10.0833H6.41667C6.17355 10.0833 5.94039 10.1799 5.76849 10.3518C5.59658 10.5237 5.5 10.7569 5.5 11C5.5 11.2431 5.59658 11.4763 5.76849 11.6482C5.94039 11.8201 6.17355 11.9167 6.41667 11.9167H10.0833V15.5833C10.0833 15.8264 10.1799 16.0596 10.3518 16.2315C10.5237 16.4034 10.7569 16.5 11 16.5C11.2431 16.5 11.4763 16.4034 11.6482 16.2315C11.8201 16.0596 11.9167 15.8264 11.9167 15.5833V11.9167H15.5833C15.8264 11.9167 16.0596 11.8201 16.2315 11.6482C16.4034 11.4763 16.5 11.2431 16.5 11C16.5 10.7569 16.4034 10.5237 16.2315 10.3518C16.0596 10.1799 15.8264 10.0833 15.5833 10.0833H11.9167V6.41667C11.9167 6.17355 11.8201 5.94039 11.6482 5.76849C11.4763 5.59658 11.2431 5.5 11 5.5Z" fill="current"/>
</svg>
