<svg width="34" height="40" viewBox="0 0 34 40" fill="none" xmlns="http://www.w3.org/2000/svg">
<path d="M26.9665 6.61C25.4854 4.91918 24.6692 2.74777 24.6699 0.5H17.9749V27.3667C17.9232 28.8206 17.3094 30.1977 16.2627 31.208C15.2159 32.2184 13.818 32.7831 12.3632 32.7833C9.28652 32.7833 6.72985 30.27 6.72985 27.15C6.72985 23.4233 10.3265 20.6283 14.0315 21.7767V14.93C6.55652 13.9333 0.0131836 19.74 0.0131836 27.15C0.0131836 34.365 5.99319 39.5 12.3415 39.5C19.1449 39.5 24.6699 33.975 24.6699 27.15V13.5217C27.3847 15.4713 30.6441 16.5174 33.9865 16.5117V9.81667C33.9865 9.81667 29.9132 10.0117 26.9665 6.61Z" fill="#F45538"/>
</svg>
