<svg width="18" height="22" viewBox="0 0 18 22" fill="#F31A1A" xmlns="http://www.w3.org/2000/svg">
<path fill-rule="evenodd" clip-rule="evenodd" d="M13.0909 3.38462H18V5.07692H16.3636V20.3077L14.7273 22H3.27273L1.63636 20.3077V5.07692H0V3.38462H4.90909V1.69231C4.90909 1.24348 5.08149 0.813035 5.38837 0.495665C5.69525 0.178296 6.11146 0 6.54545 0H11.4545C11.8885 0 12.3048 0.178296 12.6116 0.495665C12.9185 0.813035 13.0909 1.24348 13.0909 1.69231V3.38462ZM11.4545 1.69231H6.54545V3.38462H11.4545V1.69231ZM3.27273 20.3077H14.7273V5.07692H3.27273V20.3077ZM6.54545 6.76923H4.90909V18.6154H6.54545V6.76923ZM8.18182 6.76923H9.81818V18.6154H8.18182V6.76923ZM11.4545 6.76923H13.0909V18.6154H11.4545V6.76923Z" fill="current"/>
</svg>
