<svg width="24" height="24" viewBox="0 0 24 24" fill="none" xmlns="http://www.w3.org/2000/svg">
<g id="u:top-arrow-from-top">
<path id="Vector" d="M11.5 5.4099V4.19906L10.6457 5.05711L8.35645 7.35634C8.35633 7.35646 8.35621 7.35658 8.35609 7.3567C8.30935 7.40334 8.25391 7.44035 8.19291 7.46562C8.13175 7.49095 8.0662 7.50399 8 7.50399C7.9338 7.50399 7.86825 7.49095 7.80709 7.46562C7.74593 7.44028 7.69036 7.40315 7.64355 7.35634C7.59674 7.30953 7.55961 7.25396 7.53428 7.1928C7.50895 7.13164 7.49591 7.06609 7.49591 6.9999C7.49591 6.9337 7.50895 6.86815 7.53428 6.80699C7.55961 6.74583 7.59674 6.69026 7.64355 6.64345L11.639 2.64797C11.6859 2.60393 11.7408 2.56933 11.8008 2.54608L11.8008 2.54617L11.81 2.54239C11.9317 2.49238 12.0683 2.49238 12.19 2.54239L12.19 2.54248L12.1992 2.54608C12.2592 2.56933 12.3141 2.60393 12.361 2.64796L16.3564 6.64345L16.3579 6.6449C16.4048 6.69138 16.442 6.74668 16.4673 6.80761C16.4927 6.86854 16.5058 6.93389 16.5058 6.9999C16.5058 7.06591 16.4927 7.13126 16.4673 7.19218C16.442 7.25311 16.4048 7.30841 16.3579 7.3549L16.355 7.3578C16.3085 7.40466 16.2532 7.44186 16.1923 7.46724C16.1314 7.49263 16.066 7.50569 16 7.50569C15.934 7.50569 15.8686 7.49263 15.8077 7.46724C15.7468 7.44186 15.6915 7.40466 15.645 7.35779L15.6443 7.35711L13.3543 5.05711L12.5 4.19906V5.4099V16.9999C12.5 17.1325 12.4473 17.2597 12.3536 17.3534C12.2598 17.4472 12.1326 17.4999 12 17.4999C11.8674 17.4999 11.7402 17.4472 11.6464 17.3534C11.5527 17.2597 11.5 17.1325 11.5 16.9999V5.4099ZM4.64645 20.6463C4.74021 20.5526 4.86739 20.4999 5 20.4999H19C19.1326 20.4999 19.2598 20.5526 19.3536 20.6463C19.4473 20.7401 19.5 20.8673 19.5 20.9999C19.5 21.1325 19.4473 21.2597 19.3536 21.3535C19.2598 21.4472 19.1326 21.4999 19 21.4999H5C4.86739 21.4999 4.74021 21.4472 4.64645 21.3535C4.55268 21.2597 4.5 21.1325 4.5 20.9999C4.5 20.8673 4.55268 20.7401 4.64645 20.6463Z" fill="black" stroke="#FF7D03"/>
</g>
</svg>
