<svg width="101" height="100" viewBox="0 0 101 100" fill="#F45538" xmlns="http://www.w3.org/2000/svg">
<g clip-path="url(#clip0_30_504)">
<path d="M95.3274 38.0699C93.952 36.2474 92.6582 34.5175 91.9764 32.8917C91.2421 31.156 90.904 28.9285 90.5485 26.5853C89.9249 22.4948 89.2198 17.8604 85.9794 14.6436C82.7391 11.4268 78.0942 10.7267 73.9506 10.1076C71.6194 9.75469 69.364 9.41912 67.604 8.69012C65.9605 8.01898 64.2238 6.72877 62.3588 5.36334C58.9903 2.84656 55.1497 0 50.365 0C45.5802 0 41.7396 2.84656 38.3478 5.36334C36.512 6.72877 34.7694 8.01898 33.1318 8.69012C31.3834 9.41912 29.1396 9.75469 26.7793 10.1076C22.659 10.7267 17.9908 11.4268 14.7505 14.6436C11.5102 17.8604 10.805 22.4948 10.1814 26.6142C9.82589 28.9285 9.48787 31.1676 8.75355 32.9206C8.07751 34.5464 6.77788 36.2763 5.40249 38.0988C2.86734 41.4372 0 45.2499 0 50C0 54.7501 2.86734 58.5628 5.40249 61.907C6.77788 63.7352 8.07751 65.4594 8.75355 67.0852C9.48787 68.8209 9.82589 71.0484 10.1814 73.3916C10.805 77.4821 11.5102 82.1164 14.7505 85.3333C17.9908 88.5501 22.659 89.2733 26.8085 89.8924C29.1396 90.2511 31.3951 90.5809 33.1609 91.3099C34.7986 91.9868 36.5411 93.2712 38.3769 94.6367C41.7688 97.1534 45.6094 100 50.3941 100C55.1788 100 59.0194 97.1534 62.4113 94.6367C64.2529 93.2712 65.9896 91.9868 67.6564 91.3099C69.4048 90.5809 71.6427 90.2511 74.003 89.8924C78.1234 89.2733 82.7915 88.5732 86.0319 85.3564C89.2722 82.1395 89.9774 77.5052 90.601 73.4147C90.9565 71.1004 91.2945 68.8614 92.0288 67.1141C92.7107 65.4825 94.0045 63.7584 95.3799 61.907C97.915 58.5397 100.782 54.7269 100.782 49.9769C100.782 45.2268 97.8626 41.4372 95.3274 38.0699ZM90.193 58.1231C88.6428 60.1828 87.0401 62.312 86.0552 64.6725C85.0237 67.143 84.6099 69.8449 84.2136 72.4659C83.6891 75.8852 83.1995 79.1194 81.4453 80.8551C79.6911 82.5908 76.4391 83.0826 72.989 83.6033C70.3548 83.9968 67.6331 84.4075 65.1446 85.4316C62.7668 86.4094 60.6221 88.0005 58.5474 89.5395C55.7033 91.6454 53.0225 93.6357 50.3883 93.6357C47.754 93.6357 45.0499 91.6454 42.2292 89.5395C40.1544 88.0005 38.0098 86.4094 35.6261 85.4316C33.1376 84.4075 30.416 83.9968 27.7817 83.6033C24.3316 83.0826 21.0796 82.5966 19.3254 80.8551C17.5712 79.1136 17.0817 75.8852 16.563 72.4659C16.1608 69.8449 15.7471 67.143 14.7155 64.6725C13.7306 62.3062 12.1279 60.177 10.5777 58.1231C8.41553 55.2997 6.41072 52.6498 6.41072 50C6.41072 47.3501 8.41553 44.7003 10.5369 41.9C12.0871 39.8403 13.6898 37.7112 14.6747 35.3448C15.7063 32.8743 16.1201 30.1724 16.5222 27.5573C17.0409 24.1321 17.5362 20.9037 19.2846 19.1622C21.033 17.4207 24.2908 16.9347 27.7409 16.4198C30.3752 16.0206 33.0968 15.6098 35.5853 14.5857C37.969 13.608 40.1136 12.0169 42.1884 10.4779C45.0266 8.37191 47.7133 6.38162 50.3475 6.38162C52.9817 6.38162 55.6859 8.37191 58.5066 10.4779C60.5813 12.0169 62.726 13.608 65.1038 14.5857C67.5923 15.6098 70.314 16.0206 72.954 16.4198C76.3983 16.9347 79.6561 17.4265 81.4045 19.1622C83.1529 20.8979 83.6483 24.1321 84.1728 27.5573C84.5691 30.1724 84.9829 32.8743 86.0144 35.3448C86.9993 37.7112 88.602 39.8403 90.1522 41.9C92.2736 44.7177 94.2784 47.3849 94.2784 50C94.2784 52.6151 92.3144 55.2997 90.193 58.1231Z" fill="current"/>
<path d="M63.7983 37.7804L47.0896 54.3854L37.1821 44.5497C36.5712 44.0384 35.7899 43.7721 34.9914 43.803C34.1929 43.8339 33.4349 44.1597 32.8659 44.7167C32.2968 45.2736 31.9579 46.0215 31.9154 46.8136C31.873 47.6058 32.1301 48.3851 32.6364 48.9989L44.84 61.1141C45.1372 61.4096 45.4901 61.644 45.8786 61.8039C46.2671 61.9639 46.6836 62.0462 47.1042 62.0462C47.5248 62.0462 47.9412 61.9639 48.3297 61.8039C48.7182 61.644 49.0712 61.4096 49.3683 61.1141L68.3441 42.2817C68.9453 41.6848 69.2831 40.8752 69.2831 40.031C69.2831 39.1869 68.9453 38.3773 68.3441 37.7804C67.7428 37.1835 66.9273 36.8481 66.077 36.8481C65.2267 36.8481 64.4112 37.1835 63.8099 37.7804H63.7983Z" fill="current"/>
</g>
<defs>
<clipPath id="clip0_30_504">
<rect width="100.73" height="100" fill="white"/>
</clipPath>
</defs>
</svg>
