<svg width="101" height="100" viewBox="0 0 101 100" fill="#F45538" xmlns="http://www.w3.org/2000/svg">
<path d="M24.0519 40.4999H15.852C15.9516 31.9572 19.4368 23.7973 25.5529 17.7873C31.669 11.7772 39.9236 8.40084 48.5292 8.38924H51.3558C58.4536 8.40727 65.3542 10.7098 71.0222 14.9514C76.6902 19.1929 80.8199 25.1448 82.7916 31.9139C82.9087 32.3211 83.1055 32.7015 83.3706 33.0333C83.6358 33.365 83.9642 33.6417 84.337 33.8474C84.7099 34.0532 85.12 34.1841 85.5438 34.2325C85.9676 34.2809 86.3968 34.2461 86.8071 34.1298C87.2173 34.0136 87.6004 33.8182 87.9346 33.555C88.2688 33.2917 88.5475 32.9657 88.7547 32.5956C88.962 32.2254 89.0938 31.8183 89.1426 31.3976C89.1914 30.9769 89.1562 30.5507 89.0391 30.1435C86.6789 22.0247 81.7303 14.8848 74.9358 9.79513C68.1413 4.70541 59.8675 1.94041 51.3558 1.91504H48.5292C38.1369 1.92269 28.1722 6.0233 20.8222 13.3169C13.4721 20.6105 9.33708 30.5011 9.32474 40.8181V42.1025C7.08061 43.2874 5.20416 45.0571 3.89702 47.2212C2.58988 49.3853 1.90147 51.8622 1.90578 54.3855V68.925C1.91501 72.6049 3.39161 76.1314 6.01269 78.7335C8.63376 81.3356 12.1861 82.8015 15.8928 82.8107H24.0519C24.4787 82.8114 24.9014 82.7286 25.2959 82.567C25.6905 82.4054 26.049 82.1682 26.3511 81.8688C26.6531 81.5695 26.8927 81.214 27.0562 80.8226C27.2197 80.4313 27.3039 80.0117 27.3039 79.588V43.7167C27.3008 42.8625 26.9568 42.0443 26.3473 41.4413C25.7378 40.8384 24.9124 40.4999 24.0519 40.4999ZM20.8058 76.3712H15.9103C13.9194 76.3681 12.0111 75.5812 10.6038 74.1831C9.19662 72.785 8.40546 70.8899 8.40392 68.9134V54.3855C8.40392 52.4081 9.1944 50.5115 10.6018 49.1121C12.0092 47.7127 13.9184 46.9251 15.9103 46.922H20.8058V76.3712Z" fill="current"/>
<path d="M84.8197 40.5H76.6606C75.8067 40.5045 74.989 40.8429 74.3847 41.4418C73.7803 42.0407 73.438 42.8518 73.4319 43.6995V83.5456C73.4288 84.6848 72.9716 85.7764 72.1602 86.5819C71.3489 87.3874 70.2492 87.8413 69.1018 87.8444H56.4144C55.6868 86.4471 54.5076 85.333 53.0659 84.6808C51.6242 84.0286 50.0036 83.876 48.4641 84.2477C46.9246 84.6193 45.5555 85.4936 44.5764 86.7302C43.5974 87.9669 43.0652 89.4941 43.0652 91.067C43.0652 92.6399 43.5974 94.1671 44.5764 95.4038C45.5555 96.6404 46.9246 97.5147 48.4641 97.8863C50.0036 98.258 51.6242 98.1054 53.0659 97.4532C54.5076 96.801 55.6868 95.6869 56.4144 94.2896H69.1018C71.9711 94.2866 74.7221 93.1536 76.751 91.1394C78.7799 89.1252 79.9211 86.3941 79.9242 83.5456V82.8166H84.8197C88.5264 82.8074 92.0787 81.3415 94.6998 78.7394C97.3209 76.1374 98.7975 72.6108 98.8067 68.9309V54.3857C98.7975 50.7058 97.3209 47.1792 94.6998 44.5771C92.0787 41.9751 88.5264 40.5092 84.8197 40.5ZM92.3261 68.9425C92.3168 70.9139 91.5223 72.8017 90.1159 74.1935C88.7095 75.5854 86.8055 76.3683 84.8197 76.3713H79.9242V46.9221H84.8197C86.8116 46.9252 88.7208 47.7129 90.1282 49.1122C91.5356 50.5116 92.3261 52.4082 92.3261 54.3857V68.9425Z" fill="current"/>
</svg>
