<svg width="100" height="100" viewBox="0 0 100 100" fill="#F45538" xmlns="http://www.w3.org/2000/svg">
<path d="M93.1497 80.1491H37.9137C37.2564 77.3597 35.8196 74.8147 33.7707 72.8109C31.7219 70.8072 29.1456 69.4273 26.3423 68.8322V9.76026C26.3423 9.34238 26.26 8.92858 26.1001 8.54251C25.9401 8.15643 25.7058 7.80564 25.4103 7.51015C25.1148 7.21466 24.764 6.98027 24.3779 6.82035C23.9918 6.66043 23.578 6.57812 23.1602 6.57812H6.59571C5.75175 6.57812 4.94237 6.91338 4.3456 7.51015C3.74883 8.10692 3.41357 8.91631 3.41357 9.76026C3.41357 10.6042 3.74883 11.4136 4.3456 12.0104C4.94237 12.6071 5.75175 12.9424 6.59571 12.9424H19.9549V68.8843C17.3342 69.4726 14.9189 70.7518 12.9597 72.5891C11.0006 74.4264 9.56906 76.7547 8.81388 79.3323C8.0587 81.9098 8.00739 84.6425 8.66529 87.2465C9.32319 89.8506 10.6663 92.231 12.5551 94.1405C14.4439 96.0501 16.8095 97.4191 19.4063 98.1053C22.003 98.7916 24.7361 98.7701 27.3217 98.0431C29.9073 97.316 32.2511 95.91 34.1096 93.971C35.9682 92.032 37.2737 89.6308 37.8905 87.0167H89.7015V96.0424C89.7015 96.96 90.066 97.84 90.7148 98.4889C91.3637 99.1377 92.2437 99.5022 93.1613 99.5022C94.0789 99.5022 94.959 99.1377 95.6078 98.4889C96.2567 97.84 96.6212 96.96 96.6212 96.0424V83.5858C96.6212 83.1315 96.5312 82.6818 96.3563 82.2625C96.1814 81.8433 95.9252 81.4629 95.6023 81.1433C95.2795 80.8237 94.8966 80.5713 94.4756 80.4006C94.0546 80.23 93.604 80.1445 93.1497 80.1491ZM23.2469 91.7841C21.6241 91.7841 20.0377 91.3028 18.6884 90.4011C17.3391 89.4993 16.2876 88.2177 15.6668 86.7182C15.046 85.2188 14.8839 83.5689 15.2009 81.9773C15.5179 80.3857 16.2999 78.9239 17.4478 77.7767C18.5958 76.6296 20.0581 75.8487 21.65 75.5328C23.2418 75.2169 24.8915 75.3802 26.3905 76.002C27.8895 76.6239 29.1705 77.6763 30.0712 79.0262C30.972 80.3761 31.4522 81.9629 31.4511 83.5858C31.448 85.7602 30.5825 87.8445 29.0444 89.3815C27.5063 90.9185 25.4213 91.7826 23.2469 91.7841Z" fill="current"/>
<path d="M40.5693 69.7987H90.5982C91.0465 69.7987 91.4904 69.7104 91.9046 69.5388C92.3187 69.3673 92.695 69.1158 93.012 68.7989C93.329 68.4819 93.5804 68.1056 93.752 67.6914C93.9235 67.2773 94.0118 66.8334 94.0118 66.3851V3.95165C94.0118 3.50337 93.9235 3.05949 93.752 2.64533C93.5804 2.23118 93.329 1.85487 93.012 1.5379C92.695 1.22092 92.3187 0.969475 91.9046 0.797928C91.4904 0.62638 91.0465 0.538086 90.5982 0.538086H40.5693C39.664 0.538086 38.7957 0.897728 38.1556 1.5379C37.5154 2.17806 37.1558 3.04631 37.1558 3.95165V66.3851C37.1558 66.8334 37.2441 67.2773 37.4156 67.6914C37.5872 68.1056 37.8386 68.4819 38.1556 68.7989C38.4725 69.1158 38.8489 69.3673 39.263 69.5388C39.6772 69.7104 40.121 69.7987 40.5693 69.7987ZM43.9713 62.9773V34.3497H87.1731V62.9773H43.9713ZM87.1731 27.5226H72.7089V7.36521H87.1731V27.5226ZM65.9107 7.36521V27.5226H43.9713V7.36521H65.9107Z" fill="current"/>
</svg>
