<svg width="101" height="100" viewBox="0 0 101 100" fill="#F45538" xmlns="http://www.w3.org/2000/svg">
<path d="M50.3649 8.16348C60.6564 8.13848 70.5973 11.8743 78.2923 18.6587H70.5179C70.0796 18.6403 69.6421 18.7101 69.2318 18.8639C68.8214 19.0177 68.4466 19.2523 68.1299 19.5536C67.8132 19.8549 67.5613 20.2168 67.3891 20.6173C67.217 21.0178 67.1282 21.4488 67.1282 21.8843C67.1282 22.3197 67.217 22.7507 67.3891 23.1512C67.5613 23.5518 67.8132 23.9136 68.1299 24.2149C68.4466 24.5162 68.8214 24.7509 69.2318 24.9047C69.6421 25.0584 70.0796 25.1282 70.5179 25.1098H85.8337H86.0726H86.1076C86.3041 25.0924 86.499 25.0595 86.6904 25.0114H86.737C86.9254 24.9557 87.1087 24.8841 87.2848 24.7974H87.3314C87.5141 24.7066 87.6861 24.596 87.8443 24.4676C88.0046 24.3384 88.1528 24.1951 88.2872 24.0394V24.0105C88.4138 23.8544 88.5268 23.6879 88.6252 23.5129C88.6272 23.4995 88.6272 23.4859 88.6252 23.4724C88.7188 23.301 88.7949 23.1208 88.8525 22.9344C88.9037 22.7559 88.9426 22.5742 88.9691 22.3905C88.9691 22.3905 88.9691 22.3442 88.9691 22.3269C88.9749 22.2132 88.9749 22.0992 88.9691 21.9855V6.67655C88.9691 5.82186 88.6271 5.00217 88.0183 4.39781C87.4095 3.79345 86.5839 3.45392 85.7229 3.45392C84.862 3.45392 84.0363 3.79345 83.4275 4.39781C82.8188 5.00217 82.4768 5.82186 82.4768 6.67655V13.8219C75.4547 7.70872 66.8087 3.73128 57.5711 2.36455C48.3336 0.997828 38.895 2.29959 30.3826 6.11439C21.8702 9.92918 14.6437 16.0958 9.56614 23.8777C4.48859 31.6596 1.77461 40.728 1.74829 49.9999C1.74829 50.8546 2.0903 51.6742 2.69907 52.2786C3.30784 52.883 4.13351 53.2225 4.99445 53.2225C5.85538 53.2225 6.68105 52.883 7.28983 52.2786C7.8986 51.6742 8.2406 50.8546 8.2406 49.9999C8.25447 38.9114 12.6965 28.2808 20.5928 20.4384C28.4891 12.596 39.1955 8.18185 50.3649 8.16348Z" fill="current"/>
<path d="M95.7587 46.7773C94.8977 46.7773 94.0721 47.1169 93.4633 47.7212C92.8545 48.3256 92.5125 49.1453 92.5125 50C92.513 58.2055 90.0831 66.2301 85.5253 73.0754C80.9675 79.9206 74.4828 85.2843 66.8782 88.4992C59.2735 91.7141 50.8846 92.6383 42.755 91.1567C34.6254 89.6752 27.114 85.8533 21.1553 80.1666H29.2387C30.0996 80.1666 30.9253 79.8271 31.5341 79.2227C32.1428 78.6184 32.4848 77.7987 32.4848 76.944C32.4848 76.0893 32.1428 75.2696 31.5341 74.6652C30.9253 74.0609 30.0996 73.7213 29.2387 73.7213H13.9171C13.4903 73.7213 13.0677 73.8049 12.6735 73.9672C12.2792 74.1295 11.9211 74.3674 11.6196 74.6673C11.3181 74.9671 11.0791 75.3231 10.9163 75.7147C10.7535 76.1064 10.6701 76.5261 10.6709 76.9498V92.1546C10.7064 92.9864 11.0642 93.7725 11.6697 94.3486C12.2751 94.9247 13.0813 95.2464 13.92 95.2464C14.7586 95.2464 15.5649 94.9247 16.1703 94.3486C16.7757 93.7725 17.1335 92.9864 17.169 92.1546V85.3043C24.0976 91.7235 32.764 95.9937 42.1036 97.5903C51.4432 99.187 61.0492 98.0406 69.7415 94.2919C78.4338 90.5432 85.8338 84.3556 91.0325 76.4891C96.2312 68.6226 99.0021 59.4199 99.0048 50.0116C99.0064 49.5874 98.9235 49.1671 98.7611 48.7747C98.5986 48.3824 98.3598 48.0258 98.0582 47.7253C97.7566 47.4248 97.3982 47.1864 97.0036 47.0238C96.609 46.8611 96.1859 46.7773 95.7587 46.7773Z" fill="current"/>
</svg>
