<svg width="21" viewBox="0 0 21 22" fill="white" xmlns="http://www.w3.org/2000/svg">
<path fill-rule="evenodd" clip-rule="evenodd" d="M0.140625 11.1359C0.140625 5.39912 4.61062 0.743164 10.1306 0.743164C15.6606 0.743164 20.1406 5.39912 20.1406 11.1359C20.1406 16.8727 15.6606 21.5287 10.1306 21.5287C4.61062 21.5287 0.140625 16.8727 0.140625 11.1359ZM14.1105 6.97881H17.0605C16.1005 5.26401 14.5705 3.93373 12.7305 3.27899C13.3305 4.43259 13.7905 5.67972 14.1105 6.97881ZM10.1405 2.86328C10.9705 4.11041 11.6205 5.49265 12.0505 6.97881H8.23047C8.66047 5.49265 9.31047 4.11041 10.1405 2.86328ZM2.14062 11.136C2.14062 11.8531 2.24062 12.5494 2.40062 13.2145H5.78063C5.70062 12.5286 5.64062 11.8427 5.64062 11.136C5.64062 10.4293 5.70062 9.74336 5.78063 9.05743H2.40062C2.24062 9.72257 2.14062 10.4189 2.14062 11.136ZM3.2207 15.2931H6.1707C6.4907 16.5922 6.9507 17.8393 7.5507 18.9929C5.7107 18.3382 4.1807 17.0183 3.2207 15.2931ZM3.2207 6.97881H6.1707C6.4907 5.67972 6.9507 4.43259 7.5507 3.27899C5.7107 3.93373 4.1807 5.25361 3.2207 6.97881ZM10.1405 19.4086C9.31047 18.1615 8.66047 16.7793 8.23047 15.2931H12.0505C11.6205 16.7793 10.9705 18.1615 10.1405 19.4086ZM7.80062 13.2145H12.4806C12.5706 12.5286 12.6406 11.8427 12.6406 11.136C12.6406 10.4293 12.5706 9.73296 12.4806 9.05743H7.80062C7.71063 9.73296 7.64062 10.4293 7.64062 11.136C7.64062 11.8427 7.71063 12.5286 7.80062 13.2145ZM12.7305 18.9929C13.3305 17.8393 13.7905 16.5922 14.1105 15.2931H17.0605C16.1005 17.0079 14.5705 18.3382 12.7305 18.9929ZM14.6405 11.136C14.6405 11.8427 14.5805 12.5286 14.5005 13.2145H17.8805C18.0405 12.5494 18.1405 11.8531 18.1405 11.136C18.1405 10.4189 18.0405 9.72257 17.8805 9.05743H14.5005C14.5805 9.74336 14.6405 10.4293 14.6405 11.136Z" fill="current"/>
</svg>
