<svg width="20" viewBox="0 0 20 16" fill="white" xmlns="http://www.w3.org/2000/svg">
<path d="M20 7.93106C20 7.87688 20 7.81533 19.9978 7.74392C19.9955 7.54447 19.9911 7.32041 19.9866 7.08156C19.9688 6.39458 19.9375 5.71006 19.8884 5.06494C19.8214 4.17605 19.7232 3.4349 19.5893 2.87842C19.448 2.29769 19.1709 1.76805 18.7859 1.34244C18.4008 0.916822 17.9213 0.610147 17.3951 0.453062C16.7634 0.265928 15.5268 0.1502 13.7857 0.0787934C12.9576 0.0443213 12.0714 0.0221605 11.1853 0.00984903C10.875 0.00492444 10.5871 0.0024623 10.3281 0H9.67188C9.41295 0.0024623 9.125 0.00492444 8.81473 0.00984903C7.92857 0.0221605 7.04241 0.0443213 6.21429 0.0787934C4.47321 0.152662 3.23438 0.26839 2.60491 0.453062C2.07857 0.609762 1.59882 0.916307 1.21371 1.34198C0.828614 1.76765 0.551697 2.2975 0.410714 2.87842C0.274554 3.4349 0.178571 4.17605 0.111607 5.06494C0.0625 5.71006 0.03125 6.39458 0.0133928 7.08156C0.00669639 7.32041 0.00446425 7.54447 0.00223211 7.74392C0.00223211 7.81533 0 7.87688 0 7.93106V8.06894C0 8.12311 -3.40931e-08 8.18467 0.00223211 8.25608C0.00446425 8.45552 0.00892854 8.67959 0.0133928 8.91844C0.03125 9.60542 0.0625 10.2899 0.111607 10.9351C0.178571 11.8239 0.276786 12.5651 0.410714 13.1216C0.696429 14.301 1.53571 15.2318 2.60491 15.5469C3.23438 15.7341 4.47321 15.8498 6.21429 15.9212C7.04241 15.9557 7.92857 15.9778 8.81473 15.9901C9.125 15.9951 9.41295 15.9975 9.67188 16H10.3281C10.5871 15.9975 10.875 15.9951 11.1853 15.9901C12.0714 15.9778 12.9576 15.9557 13.7857 15.9212C15.5268 15.8473 16.7656 15.7316 17.3951 15.5469C18.4643 15.2318 19.3036 14.3035 19.5893 13.1216C19.7254 12.5651 19.8214 11.8239 19.8884 10.9351C19.9375 10.2899 19.9688 9.60542 19.9866 8.91844C19.9933 8.67959 19.9955 8.45552 19.9978 8.25608C19.9978 8.18467 20 8.12311 20 8.06894V7.93106ZM18.3929 8.05909C18.3929 8.1108 18.3929 8.16743 18.3906 8.23392C18.3884 8.42598 18.3839 8.63773 18.3795 8.86673C18.3638 9.5217 18.3326 10.1767 18.2857 10.7849C18.2254 11.5777 18.1406 12.2278 18.0357 12.6636C17.8973 13.2324 17.4911 13.683 16.9777 13.8332C16.5089 13.9711 15.3281 14.0819 13.7232 14.1484C12.9107 14.1828 12.0357 14.205 11.1629 14.2173C10.8571 14.2222 10.5737 14.2247 10.3192 14.2247H9.6808L8.83705 14.2173C7.96429 14.205 7.09152 14.1828 6.27679 14.1484C4.67188 14.0794 3.48884 13.9711 3.02232 13.8332C2.50893 13.6805 2.10268 13.2324 1.96429 12.6636C1.85938 12.2278 1.77455 11.5777 1.71429 10.7849C1.66741 10.1767 1.63839 9.5217 1.62054 8.86673C1.61384 8.63773 1.61161 8.42351 1.60938 8.23392C1.60938 8.16743 1.60714 8.10834 1.60714 8.05909V7.9409C1.60714 7.8892 1.60714 7.83256 1.60938 7.76608C1.61161 7.57402 1.61607 7.36226 1.62054 7.13327C1.63616 6.4783 1.66741 5.82333 1.71429 5.21514C1.77455 4.42228 1.85938 3.77224 1.96429 3.33641C2.10268 2.76762 2.50893 2.31702 3.02232 2.16682C3.49107 2.02893 4.67188 1.91813 6.27679 1.85165C7.08929 1.81717 7.96429 1.79501 8.83705 1.7827C9.14286 1.77778 9.42634 1.77532 9.6808 1.77532H10.3192L11.1629 1.7827C12.0357 1.79501 12.9085 1.81717 13.7232 1.85165C15.3281 1.92059 16.5112 2.02893 16.9777 2.16682C17.4911 2.31948 17.8973 2.76762 18.0357 3.33641C18.1406 3.77224 18.2254 4.42228 18.2857 5.21514C18.3326 5.82333 18.3616 6.4783 18.3795 7.13327C18.3862 7.36226 18.3884 7.57648 18.3906 7.76608C18.3906 7.83256 18.3929 7.89166 18.3929 7.9409V8.05909ZM8.01339 11.2995L13.192 7.97538L8.01339 4.70052V11.2995Z" fill="current"/>
</svg>
