<svg width="41" height="41" viewBox="0 0 41 41" fill="current" xmlns="http://www.w3.org/2000/svg">
<path d="M8.00149 0.94779C9.37112 0.731806 10.764 0.730513 12.1479 0.761553L12.0289 0.871485C10.2182 2.05746 8.7167 3.68574 7.63161 5.55458C5.45625 9.29615 4.66344 13.7206 4.84321 18.0092C5.02169 21.5012 5.85976 25.0125 7.63678 28.048C7.93424 28.5911 8.42958 29.071 8.43734 29.7306C8.49295 31.1454 7.79327 32.4789 6.84656 33.4902C6.90864 33.5549 6.96943 33.6196 7.03151 33.6842C7.91743 34.6516 8.86284 35.5608 9.76299 36.5153C11.0421 37.9612 12.4996 39.2416 13.7529 40.7134C11.668 40.7444 9.55865 40.8414 7.49839 40.4522C4.90529 39.9491 2.60319 38.1513 1.50387 35.7484C0.837811 34.3593 0.63864 32.8061 0.586907 31.2838C0.585614 24.2559 0.585614 17.2294 0.586907 10.2028C0.61536 7.8541 1.23745 5.3968 2.89031 3.6547C4.19914 2.17903 6.05246 1.21939 8.00149 0.94779Z" fill="current"/>
<path d="M26.9942 13.8525C27.549 13.8525 28.1038 13.8525 28.66 13.8525C28.6509 17.1026 28.6509 20.354 28.66 23.6041C28.1168 23.5278 27.2127 23.8757 27.0084 23.1528C26.9748 20.054 27.0058 16.9526 26.9942 13.8525Z" fill="current"/>
<path d="M10.0179 13.9676C12.5993 13.965 15.1782 13.9482 17.7584 13.9663C17.7403 14.472 17.7118 15.0229 17.373 15.4316C15.6089 17.6277 13.8823 19.8522 12.1195 22.0482C13.9935 22.0599 15.8675 22.0521 17.7416 22.0521C17.7066 22.4905 17.8605 23.0014 17.576 23.3816C17.3975 23.6274 17.0742 23.6054 16.8065 23.608C14.4617 23.595 12.1169 23.6196 9.77344 23.595C9.7799 23.0997 9.78508 22.5513 10.1317 22.1569C11.8751 19.9699 13.6392 17.7984 15.3748 15.6062C13.5913 15.6088 11.8065 15.5946 10.023 15.614C10.0114 15.0656 10.0153 14.516 10.0179 13.9676Z" fill="current"/>
<path d="M32.7828 16.1199C34.64 15.7047 36.655 16.9243 37.1633 18.7531C37.8009 20.6555 36.6369 22.9176 34.7138 23.497C33.0803 24.0725 31.1248 23.3211 30.2777 21.8157C29.6129 20.7034 29.5728 19.2471 30.1768 18.1025C30.689 17.0925 31.6783 16.354 32.7828 16.1199ZM32.7518 17.7676C31.6189 18.1672 31.0084 19.5459 31.4507 20.6594C31.8167 21.7122 33.0493 22.3563 34.1201 22.0329C35.3423 21.7406 36.0808 20.3089 35.6475 19.1359C35.2854 17.9745 33.8822 17.3046 32.7518 17.7676Z" fill="current"/>
<path d="M19.0226 17.4737C19.9163 16.3666 21.4812 15.8208 22.8599 16.2153C23.3151 16.3304 23.7277 16.558 24.126 16.7998C24.1221 16.6783 24.1131 16.4364 24.1092 16.3148C24.6304 16.3123 25.1503 16.3136 25.6715 16.311C25.669 18.7424 25.6664 21.1738 25.6728 23.6066C25.29 23.5962 24.9007 23.6415 24.5244 23.5639C24.2605 23.4565 24.1791 23.1681 24.0743 22.9327C22.6361 24.0502 20.3767 23.7967 19.1817 22.4361C17.9078 21.1182 17.8418 18.873 19.0226 17.4737ZM21.1281 17.7996C19.9305 18.2212 19.3498 19.7641 19.9564 20.8764C20.4737 21.9602 21.93 22.4154 22.9711 21.8179C23.9372 21.3109 24.3834 20.0525 23.9682 19.0463C23.566 17.9522 22.2093 17.3392 21.1281 17.7996Z" fill="current"/>
<path d="M12.0228 0.871598C12.3125 0.788826 12.6151 0.762959 12.9152 0.753906C18.0871 0.773306 23.2591 0.75132 28.4311 0.760373C29.8136 0.777186 31.204 0.684067 32.5762 0.894878C34.476 1.03973 36.3048 1.84417 37.7184 3.1155C39.4928 4.81104 40.4395 7.25282 40.4693 9.68814C40.4706 16.544 40.4667 23.4051 40.4732 30.2583C40.4551 30.2984 40.4201 30.3812 40.402 30.4226C38.559 32.4841 36.0811 33.8796 33.4905 34.7824C29.9999 35.9722 26.2609 36.355 22.5918 36.0757C18.9226 35.7601 15.225 34.8018 12.1133 32.7738C10.5225 33.4813 8.7675 33.8279 7.0254 33.6843C6.96332 33.6197 6.90253 33.555 6.84046 33.4903C7.78716 32.479 8.48685 31.1456 8.43123 29.7307C8.42347 29.0711 7.92813 28.5913 7.63067 28.0481C5.85365 25.0126 5.01558 21.5013 4.83711 18.0093C4.65734 13.7207 5.45014 9.29626 7.6255 5.5547C8.71059 3.68586 10.2121 2.05757 12.0228 0.871598ZM26.9839 13.8526C26.9955 16.9527 26.9645 20.0541 26.9981 23.1529C27.2024 23.8758 28.1065 23.5279 28.6497 23.6042C28.6406 20.3541 28.6406 17.1027 28.6497 13.8526C28.0935 13.8526 27.5387 13.8526 26.9839 13.8526ZM10.0104 13.9677C10.0078 14.5161 10.0039 15.0658 10.0155 15.6141C11.799 15.5947 13.5838 15.6089 15.3673 15.6064C13.6317 17.7985 11.8676 19.97 10.1242 22.157C9.77758 22.5515 9.7724 23.0998 9.76594 23.5952C12.1094 23.6197 14.4542 23.5952 16.799 23.6081C17.0667 23.6055 17.39 23.6275 17.5685 23.3818C17.853 23.0015 17.6991 22.4907 17.7341 22.0522C15.86 22.0522 13.986 22.06 12.112 22.0484C13.8748 19.8523 15.6014 17.6278 17.3655 15.4318C17.7043 15.0231 17.7328 14.4721 17.7509 13.9664C15.1707 13.9483 12.5918 13.9651 10.0104 13.9677ZM32.7792 16.1198C31.6747 16.3539 30.6853 17.0924 30.1732 18.1025C29.5692 19.247 29.6093 20.7033 30.2741 21.8156C31.1212 23.321 33.0767 24.0724 34.7101 23.4969C36.6333 22.9175 37.7973 20.6555 37.1597 18.753C36.6514 16.9242 34.6364 15.7046 32.7792 16.1198ZM19.0209 17.4739C17.8401 18.8733 17.9061 21.1185 19.18 22.4364C20.375 23.7969 22.6344 24.0504 24.0726 22.933C24.1774 23.1684 24.2588 23.4568 24.5227 23.5641C24.899 23.6417 25.2883 23.5965 25.6711 23.6068C25.6647 21.1741 25.6673 18.7426 25.6699 16.3112C25.1486 16.3138 24.6287 16.3125 24.1075 16.3151C24.1114 16.4367 24.1205 16.6785 24.1243 16.8001C23.726 16.5582 23.3134 16.3306 22.8582 16.2155C21.4795 15.821 19.9146 16.3668 19.0209 17.4739Z" fill="white"/>
<path d="M21.1256 17.8001C22.2068 17.3396 23.5635 17.9527 23.9657 19.0468C24.3809 20.053 23.9347 21.3114 22.9686 21.8184C21.9275 22.4159 20.4712 21.9607 19.9539 20.8769C19.3473 19.7646 19.928 18.2217 21.1256 17.8001Z" fill="white"/>
<path d="M32.7505 17.7676C33.8809 17.3045 35.2841 17.9745 35.6462 19.1359C36.0795 20.3089 35.341 21.7406 34.1188 22.0329C33.048 22.3562 31.8154 21.7122 31.4494 20.6594C31.0071 19.5459 31.6175 18.1672 32.7505 17.7676Z" fill="white"/>
<path d="M40.4079 30.4227L40.5101 30.3115C40.5631 32.333 40.3445 34.4424 39.3525 36.2414C38.1989 38.3521 36.1063 39.9196 33.7525 40.4214C32.432 40.6943 31.0779 40.7551 29.7328 40.7382C25.5955 40.7395 21.4582 40.7382 17.3209 40.7395C16.131 40.7201 14.9386 40.7758 13.7526 40.7137C12.4994 39.2419 11.0418 37.9615 9.76273 36.5156C8.86259 35.5611 7.91717 34.6519 7.03125 33.6845C8.77335 33.8281 10.5284 33.4814 12.1192 32.774C15.2309 34.8019 18.9285 35.7603 22.5976 36.0758C26.2668 36.3552 30.0057 35.9724 33.4964 34.7825C36.0869 33.8798 38.5649 32.4843 40.4079 30.4227Z" fill="current"/>
</svg>
