<svg width="45" height="45" viewBox="0 0 45 45" fill="none" xmlns="http://www.w3.org/2000/svg">
<path d="M8.3425 0.22581C9.88333 -0.017172 11.4503 -0.018627 13.0072 0.0162926L12.8733 0.139966C10.8363 1.47418 9.1471 3.30601 7.92637 5.40845C5.4791 9.61771 4.58719 14.5952 4.78943 19.4199C4.99022 23.3484 5.93305 27.2986 7.9322 30.7135C8.26684 31.3246 8.8241 31.8644 8.83283 32.6064C8.89539 34.1982 8.10825 35.6983 7.0432 36.8361C7.11304 36.9088 7.18142 36.9816 7.25126 37.0543C8.24793 38.1426 9.31152 39.1655 10.3242 40.2393C11.7632 41.8659 13.4029 43.3064 14.8128 44.9621C12.4674 44.997 10.0943 45.1062 7.77651 44.6682C4.85927 44.1022 2.26941 42.0798 1.03267 39.3764C0.283358 37.8138 0.0592905 36.0664 0.00109124 34.3539C-0.000363745 26.4475 -0.000363745 18.5426 0.00109124 10.6377C0.0331008 7.99541 0.732947 5.23095 2.59241 3.27109C4.06485 1.61095 6.14984 0.531356 8.3425 0.22581Z" fill="#F45538"/>
<path d="M29.7063 14.7461C30.3305 14.7461 30.9547 14.7461 31.5803 14.7461C31.5702 18.4025 31.5702 22.0603 31.5803 25.7167C30.9693 25.6308 29.9522 26.0222 29.7223 25.2089C29.6845 21.7227 29.7194 18.2337 29.7063 14.7461Z" fill="#F45538"/>
<path d="M10.6109 14.8741C13.5151 14.8712 16.4163 14.8522 19.319 14.8726C19.2986 15.4415 19.2666 16.0613 18.8854 16.5211C16.9008 18.9917 14.9584 21.4942 12.9753 23.9648C15.0835 23.9779 17.1918 23.9691 19.3001 23.9691C19.2608 24.4624 19.4339 25.0371 19.1138 25.4649C18.9131 25.7413 18.5493 25.7166 18.2481 25.7195C15.6102 25.7049 12.9724 25.7326 10.3359 25.7049C10.3432 25.1477 10.349 24.5308 10.739 24.087C12.7003 21.6266 14.6849 19.1837 16.6375 16.7175C14.631 16.7204 12.6232 16.7044 10.6167 16.7263C10.6037 16.1093 10.608 15.491 10.6109 14.8741Z" fill="#F45538"/>
<path d="M36.2249 17.2985C38.3143 16.8315 40.5811 18.2035 41.153 20.2608C41.8703 22.4011 40.5608 24.9459 38.3972 25.5977C36.5596 26.2452 34.3596 25.3998 33.4066 23.7062C32.6588 22.455 32.6137 20.8167 33.2931 19.529C33.8693 18.3927 34.9824 17.5619 36.2249 17.2985ZM36.19 19.1522C34.9155 19.6017 34.2287 21.1528 34.7263 22.4055C35.1381 23.5898 36.5247 24.3144 37.7294 23.9507C39.1043 23.6219 39.9351 22.0112 39.4477 20.6915C39.0403 19.3849 37.4617 18.6313 36.19 19.1522Z" fill="#F45538"/>
<path d="M20.7452 18.8173C21.7505 17.5719 23.5111 16.9579 25.0621 17.4017C25.5742 17.5311 26.0384 17.7872 26.4865 18.0593C26.4821 17.9225 26.472 17.6505 26.4676 17.5137C27.054 17.5108 27.6389 17.5122 28.2252 17.5093C28.2223 20.2447 28.2194 22.9801 28.2267 25.7169C27.796 25.7052 27.358 25.7562 26.9346 25.6689C26.6378 25.5481 26.5462 25.2236 26.4283 24.9588C24.8104 26.2159 22.2685 25.9308 20.9241 24.4001C19.491 22.9175 19.4168 20.3916 20.7452 18.8173ZM23.1139 19.184C21.7665 19.6583 21.1133 21.3941 21.7956 22.6454C22.3776 23.8647 24.0159 24.3768 25.1872 23.7046C26.2741 23.1343 26.7761 21.7186 26.309 20.5866C25.8565 19.3557 24.3302 18.666 23.1139 19.184Z" fill="#F45538"/>
<path d="M12.8708 0.144122C13.1968 0.0510032 13.5372 0.0219036 13.8748 0.0117188C19.6932 0.0335435 25.5117 0.00880879 31.3302 0.0189937C32.8856 0.0379084 34.4497 -0.0668503 35.9934 0.170312C38.1308 0.33327 40.1881 1.23827 41.7784 2.66851C43.7746 4.57599 44.8397 7.323 44.8731 10.0627C44.8746 17.7756 44.8702 25.4943 44.8775 33.2042C44.8571 33.2493 44.8179 33.3424 44.7975 33.389C42.7241 35.7082 39.9364 37.2782 37.0221 38.2937C33.0951 39.6323 28.8887 40.063 24.7609 39.7487C20.6332 39.3937 16.4734 38.3156 12.9727 36.0341C11.1831 36.83 9.20865 37.22 7.24879 37.0585C7.17895 36.9857 7.11057 36.913 7.04073 36.8402C8.10577 35.7024 8.89292 34.2023 8.83035 32.6106C8.82162 31.8685 8.26437 31.3287 7.92972 30.7176C5.93058 27.3028 4.98775 23.3525 4.78696 19.4241C4.58472 14.5994 5.47662 9.62187 7.9239 5.41261C9.14463 3.31016 10.8339 1.47834 12.8708 0.144122ZM29.7021 14.7478C29.7152 18.2354 29.6802 21.7244 29.7181 25.2105C29.948 26.0239 30.965 25.6325 31.5761 25.7183C31.5659 22.062 31.5659 18.4041 31.5761 14.7478C30.9504 14.7478 30.3262 14.7478 29.7021 14.7478ZM10.6069 14.8773C10.604 15.4942 10.5996 16.1125 10.6127 16.7295C12.6191 16.7076 14.627 16.7236 16.6334 16.7207C14.6808 19.1869 12.6962 21.6298 10.7349 24.0902C10.345 24.534 10.3392 25.1509 10.3319 25.7081C12.9683 25.7358 15.6062 25.7081 18.2441 25.7227C18.5453 25.7198 18.909 25.7445 19.1098 25.4681C19.4299 25.0403 19.2567 24.4656 19.296 23.9723C17.1878 23.9723 15.0795 23.9811 12.9712 23.968C14.9544 21.4974 16.8968 18.9949 18.8814 16.5243C19.2626 16.0645 19.2946 15.4447 19.3149 14.8758C16.4123 14.8554 13.511 14.8744 10.6069 14.8773ZM36.2218 17.2984C34.9793 17.5617 33.8662 18.3925 33.29 19.5288C32.6106 20.8165 32.6557 22.4548 33.4035 23.7061C34.3565 25.3997 36.5565 26.245 38.3941 25.5976C40.5577 24.9457 41.8672 22.401 41.1499 20.2607C40.578 18.2034 38.3112 16.8313 36.2218 17.2984ZM20.7437 18.8217C19.4153 20.396 19.4895 22.9219 20.9227 24.4045C22.2671 25.9351 24.809 26.2203 26.4269 24.9632C26.5448 25.228 26.6364 25.5525 26.9332 25.6732C27.3566 25.7605 27.7946 25.7096 28.2253 25.7212C28.218 22.9844 28.2209 20.2491 28.2238 17.5137C27.6374 17.5166 27.0525 17.5151 26.4662 17.5181C26.4705 17.6548 26.4807 17.9269 26.4851 18.0637C26.037 17.7916 25.5728 17.5355 25.0607 17.406C23.5097 16.9622 21.7491 17.5763 20.7437 18.8217Z" fill="white"/>
<path d="M23.1125 19.1895C24.3289 18.6715 25.8551 19.3612 26.3076 20.5921C26.7747 21.7241 26.2727 23.1398 25.1858 23.7101C24.0146 24.3823 22.3763 23.8702 21.7943 22.6509C21.1119 21.3996 21.7652 19.6638 23.1125 19.1895Z" fill="white"/>
<path d="M36.1876 19.1508C37.4592 18.6299 39.0379 19.3836 39.4453 20.6902C39.9327 22.0098 39.1019 23.6205 37.7269 23.9493C36.5222 24.3131 35.1356 23.5885 34.7239 22.4041C34.2263 21.1514 34.913 19.6004 36.1876 19.1508Z" fill="white"/>
<path d="M44.7997 33.3829L44.9146 33.2578C44.9743 35.5319 44.7284 37.905 43.6124 39.9289C42.3146 42.3034 39.9604 44.0669 37.3123 44.6314C35.8268 44.9384 34.3034 45.0068 32.7903 44.9879C28.1358 44.9893 23.4813 44.9879 18.8268 44.9893C17.4882 44.9675 16.1467 45.0301 14.8125 44.9602C13.4026 43.3045 11.7629 41.864 10.3239 40.2374C9.31123 39.1636 8.24764 38.1407 7.25098 37.0524C9.21084 37.2139 11.1852 36.824 12.9749 36.0281C16.4756 38.3095 20.6353 39.3877 24.7631 39.7427C28.8909 40.0569 33.0973 39.6263 37.0243 38.2877C39.9386 37.2721 42.7263 35.7022 44.7997 33.3829Z" fill="#F45538"/>
</svg>
