<svg width="367" height="345" viewBox="0 0 367 345" fill="none" xmlns="http://www.w3.org/2000/svg">
<g filter="url(#filter0_d_135_324)">
<path d="M173.013 336.288C265.861 336.288 341.13 261.02 341.13 168.171C341.13 75.3231 265.861 0.0546875 173.013 0.0546875C80.1649 0.0546875 4.89648 75.3231 4.89648 168.171C4.89648 261.02 80.1649 336.288 173.013 336.288Z" fill="#D8D8D8"/>
</g>
<path d="M175.388 312.085C254.083 312.085 317.879 248.289 317.879 169.594C317.879 90.8978 254.083 27.1023 175.388 27.1023C96.692 27.1023 32.8965 90.8978 32.8965 169.594C32.8965 248.289 96.692 312.085 175.388 312.085Z" fill="white"/>
<path d="M317.751 170.141C317.699 194.825 311.204 219.067 298.909 240.471L298.718 240.795C298.646 240.925 298.568 241.051 298.491 241.174C298.02 241.995 297.518 242.796 297.041 243.613C293.533 249.368 289.621 254.868 285.336 260.072L285.277 260.14C285.257 260.168 285.236 260.195 285.213 260.221C285.086 260.373 284.976 260.513 284.859 260.649C284.165 261.488 283.457 262.319 282.735 263.142C282.541 263.363 282.346 263.587 282.149 263.791C279.492 266.817 276.709 269.718 273.799 272.494C273.74 272.556 273.677 272.616 273.611 272.672C271.854 274.354 270.053 275.989 268.209 277.578C267.917 277.821 267.635 278.067 267.343 278.311C263.103 281.912 258.655 285.261 254.023 288.343L253.676 288.57C250.706 290.535 247.656 292.388 244.526 294.131C229.54 302.494 213.162 308.069 196.187 310.586C189.045 311.645 181.834 312.164 174.615 312.14C108.357 311.932 52.8039 266.657 36.9773 205.462C32.2565 187.204 31.2045 168.192 33.8821 149.525C36.5597 130.858 42.9137 112.908 52.5763 96.7135C62.2389 80.5192 75.018 66.4026 90.1738 55.1811C105.33 43.9596 122.561 35.8561 140.87 31.3398C140.881 31.3367 140.892 31.3367 140.902 31.3398C171.214 23.908 203.123 26.5592 231.793 38.8916C282.541 60.8724 317.946 111.42 317.751 170.141Z" fill="#EAE9E8"/>
<path d="M58.0323 169.351C57.989 179.377 59.2379 189.367 61.7482 199.075C74.7377 249.294 120.327 286.453 174.7 286.622C239.356 286.82 291.942 234.638 292.16 170.067C292.377 105.496 240.144 53.0134 175.492 52.7994C131.601 52.6664 93.2717 76.6674 73.1132 112.299C63.2613 129.702 58.0669 149.353 58.0323 169.351Z" fill="#9CB148"/>
<path d="M185.627 258.347C234.639 252.512 269.646 208.104 263.818 159.161C257.991 110.217 213.535 75.2708 164.524 81.1064C115.513 86.9419 80.5054 131.349 86.3329 180.293C92.1604 229.237 136.616 264.183 185.627 258.347Z" fill="#2C9382"/>
<path d="M182.411 230.957C216.297 226.923 240.5 196.22 236.471 162.38C232.442 128.541 201.706 104.379 167.82 108.414C133.935 112.448 109.731 143.151 113.76 176.991C117.789 210.83 148.525 234.992 182.411 230.957Z" fill="#FFF387"/>
<path d="M178.577 198.945C194.745 197.017 206.29 182.365 204.365 166.22C202.439 150.074 187.773 138.548 171.605 140.475C155.438 142.403 143.893 157.055 145.818 173.201C147.743 189.347 162.41 200.873 178.577 198.945Z" fill="#D8D8D8"/>
<g opacity="0.89">
<path d="M42.089 85.3782C29.2066 104.402 18.3572 130.248 17.4882 166.911C16.4668 210.058 38.078 241.744 38.078 241.744" stroke="white" stroke-width="6" stroke-linecap="round" stroke-linejoin="round"/>
<path d="M73.6566 49.9739C66.8473 56.5723 58.2482 64.5651 49.834 74.9411" stroke="white" stroke-width="5" stroke-linecap="round" stroke-linejoin="round"/>
</g>
<path opacity="0.17" d="M298.373 241.683C297.903 242.504 321.395 247.39 320.918 248.198C318.619 251.975 310.561 265.73 307.669 268.625C306.372 269.922 286.664 258.677 285.195 260.461C285.195 260.487 284.294 260.004 284.278 260.02L172.564 176.989L172.354 163.776L298.373 241.683Z" fill="#070716"/>
<path d="M327.797 134.863C328.481 133.404 337.657 114.717 341.389 112.49C345.122 110.262 352.057 111.407 352.057 111.407C347.57 123.871 342.544 131.834 336.253 133.4C333.011 134.211 330.667 134.967 329.269 135.3C327.959 135.618 327.466 135.573 327.797 134.863Z" fill="#9B9BAA"/>
<path opacity="0.23" d="M327.797 134.862C328.481 133.402 337.33 116 341.062 113.785C341.983 116.266 336.312 132.955 329.269 135.309C327.959 135.617 327.466 135.572 327.797 134.862Z" fill="#1F1F39"/>
<path d="M319.348 136.798C320.029 135.336 329.098 116.695 332.831 114.474C336.563 112.253 341.627 112.716 341.627 112.716C337.137 125.18 334.095 133.77 327.805 135.336C324.562 136.15 322.218 136.905 320.82 137.239C319.504 137.554 319.018 137.505 319.348 136.798Z" fill="#9B9BAA"/>
<path opacity="0.23" d="M319.348 136.798C320.029 135.336 328.878 117.937 332.613 115.722C333.534 118.203 331.258 128.245 320.82 137.246C319.504 137.554 319.018 137.505 319.348 136.798Z" fill="#1F1F39"/>
<path d="M309.608 138.805C309.932 138.088 312.118 136.82 314.874 131.023C314.893 130.98 314.913 130.935 314.935 130.893C317.76 124.946 321.33 117.806 323.213 116.688C326.946 114.46 333.298 114.596 333.298 114.596C328.807 127.057 324.355 135.786 318.058 137.355C314.815 138.166 312.471 138.921 311.074 139.255L310.639 139.349C309.663 139.541 309.316 139.43 309.608 138.805Z" fill="#9B9BAA"/>
<path opacity="0.23" d="M309.608 138.805C309.932 138.089 312.118 136.821 314.874 131.023C314.893 130.981 314.913 130.936 314.935 130.894C317.909 124.876 321.265 118.767 323.132 117.655C324.05 120.135 319.053 131.922 311.336 139.175L310.645 139.35C309.663 139.541 309.316 139.431 309.608 138.805Z" fill="#1F1F39"/>
<path d="M300.008 140.861C300.692 139.399 309.162 121.546 312.897 119.325C316.633 117.104 323.218 116.455 323.218 116.455C318.73 128.916 314.755 137.833 308.468 139.399C305.225 140.213 302.881 140.968 301.48 141.302C300.174 141.617 299.681 141.575 300.008 140.861Z" fill="#9B9BAA"/>
<path opacity="0.23" d="M300.008 140.863C300.692 139.4 309.045 121.547 312.78 119.326C313.698 121.806 308.241 134.024 301.48 141.304C300.174 141.618 299.681 141.576 300.008 140.863Z" fill="#1F1F39"/>
<path d="M290.107 142.602C290.788 141.143 299.64 123.744 303.373 121.526C307.105 119.308 313.012 118.773 313.012 118.773C308.525 131.234 302.542 140.543 299.037 141.47C295.795 142.33 292.977 142.712 291.58 143.046C290.27 143.361 289.777 143.312 290.107 142.602Z" fill="#9B9BAA"/>
<path opacity="0.23" d="M290.107 142.603C290.788 141.144 299.64 123.744 303.373 121.527C304.293 124.007 298.619 140.696 291.58 143.05C290.27 143.362 289.777 143.313 290.107 142.603Z" fill="#1F1F39"/>
<path d="M281.651 144.54C282.335 143.081 291.446 127.183 295.179 124.962C298.911 122.74 303.82 121.395 303.82 121.395C299.332 133.856 296.398 141.521 290.107 143.09C286.865 143.901 284.524 144.656 283.123 144.99C281.816 145.295 281.323 145.25 281.651 144.54Z" fill="#9B9BAA"/>
<path d="M174.097 163.165C184.106 161.106 344.149 130.315 348.39 130.02C352.959 129.696 357.245 161.508 351.795 162.16C346.642 162.779 176.911 177.234 175.338 177.4C169.009 178.045 166.885 164.65 174.097 163.165Z" fill="#1A5249"/>
<path d="M349.48 162.33C358.851 162.33 366.448 155.096 366.448 146.173C366.448 137.249 358.851 130.015 349.48 130.015C340.109 130.015 332.512 137.249 332.512 146.173C332.512 155.096 340.109 162.33 349.48 162.33Z" fill="#7FB266"/>
<path d="M327.505 161.526C328.607 162.67 343.717 178.387 347.88 179.359C352.044 180.332 358.581 177.813 358.581 177.813C350.403 167.674 342.044 159.979 335.753 160.397C332.495 160.608 330.105 160.602 328.711 160.722C327.407 160.783 326.96 160.971 327.505 161.526Z" fill="#9B9BAA"/>
<path opacity="0.23" d="M327.504 161.526C328.607 162.67 342.621 177.871 346.778 178.814C346.817 176.263 335.954 160.78 328.714 160.689C327.407 160.783 326.96 160.971 327.504 161.526Z" fill="#1F1F39"/>
<path d="M319.104 162.236C320.206 163.378 334.691 178.549 338.844 179.493C341.525 180.04 344.293 179.988 346.95 179.34C338.773 169.201 333.656 160.68 327.346 161.088C324.104 161.299 321.698 161.293 320.304 161.413C319.007 161.494 318.569 161.678 319.104 162.236Z" fill="#9B9BAA"/>
<path opacity="0.23" d="M319.104 162.236C320.206 163.378 333.767 178.721 337.91 179.665C337.949 177.113 332.823 166.604 320.301 161.4C319.007 161.494 318.569 161.678 319.104 162.236Z" fill="#1F1F39"/>
<path d="M309.494 163.255C310.035 163.82 312.448 164.345 316.867 168.875L316.965 168.975C321.504 173.612 327.101 179.127 329.195 179.604C333.349 180.551 338.842 179.844 338.842 179.844C330.664 169.708 324.04 161.686 317.746 162.111C314.504 162.322 312.098 162.315 310.703 162.419L310.275 162.458C309.306 162.565 309.024 162.769 309.494 163.255Z" fill="#9B9BAA"/>
<path opacity="0.23" d="M309.496 163.253C310.037 163.817 312.45 164.342 316.869 168.872L316.966 168.972C321.658 173.629 326.729 178.262 328.808 178.732C328.847 176.18 320.42 166.806 310.974 162.413C310.737 162.429 310.504 162.445 310.284 162.455C309.308 162.562 309.025 162.766 309.496 163.253Z" fill="#1F1F39"/>
<path d="M299.994 164.193C301.097 165.335 314.689 179.261 318.843 180.205C322.997 181.148 329.268 179.806 329.268 179.806C321.093 169.667 314.543 162.637 308.246 163.045C305.004 163.259 302.601 163.25 301.207 163.37C299.9 163.451 299.463 163.639 299.994 164.193Z" fill="#9B9BAA"/>
<path opacity="0.23" d="M299.994 164.193C301.097 165.335 314.586 179.297 318.736 180.24C318.775 177.689 309.783 168.058 301.207 163.357C299.9 163.451 299.463 163.639 299.994 164.193Z" fill="#1F1F39"/>
<path d="M290.319 165.507C291.421 166.648 305.211 180.046 309.368 180.99C313.525 181.934 319.131 180.685 319.131 180.685C310.954 170.546 302.429 163.746 298.905 163.922C295.643 164.084 292.925 164.57 291.531 164.671C290.228 164.765 289.79 164.953 290.319 165.507Z" fill="#9B9BAA"/>
<path opacity="0.23" d="M290.318 165.508C291.421 166.65 305.211 180.048 309.368 180.991C309.407 178.439 298.772 164.779 291.534 164.672C290.228 164.766 289.79 164.954 290.318 165.508Z" fill="#1F1F39"/>
<path d="M281.92 166.217C283.022 167.362 296.566 179.298 300.726 180.244C304.887 181.191 309.835 180.987 309.835 180.987C301.657 170.848 296.472 164.661 290.175 165.073C286.933 165.284 284.53 165.277 283.136 165.381C281.826 165.472 281.388 165.663 281.92 166.217Z" fill="#9B9BAA"/>
<defs>
<filter id="filter0_d_135_324" x="0.896484" y="0.0546875" width="344.232" height="344.233" filterUnits="userSpaceOnUse" color-interpolation-filters="sRGB">
<feFlood flood-opacity="0" result="BackgroundImageFix"/>
<feColorMatrix in="SourceAlpha" type="matrix" values="0 0 0 0 0 0 0 0 0 0 0 0 0 0 0 0 0 0 127 0" result="hardAlpha"/>
<feOffset dy="4"/>
<feGaussianBlur stdDeviation="2"/>
<feComposite in2="hardAlpha" operator="out"/>
<feColorMatrix type="matrix" values="0 0 0 0 0 0 0 0 0 0 0 0 0 0 0 0 0 0 0.25 0"/>
<feBlend mode="normal" in2="BackgroundImageFix" result="effect1_dropShadow_135_324"/>
<feBlend mode="normal" in="SourceGraphic" in2="effect1_dropShadow_135_324" result="shape"/>
</filter>
</defs>
</svg>
