<svg width="auto" height="100%" viewBox="0 0 569 404" fill="none" xmlns="http://www.w3.org/2000/svg">
<g opacity="0.68" filter="url(#filter0_d_568_4)">
<path d="M431.317 115.781C385.539 152.865 333.916 118.099 286.19 120.417C248.204 121.576 220.931 159.818 195.607 193.424C156.647 245.573 136.193 309.31 85.544 351.029C60.1029 372.954 33.8631 390.163 4 395.899H90.1219C201.568 361.308 318.176 366.893 432.291 362.617C477.213 360.89 520.507 354.679 565 345.408V39.0999C560.685 38.0917 556.361 37.3964 552.094 36.9792C502.42 34.6615 472.226 83.3334 431.317 115.781Z" fill="#EFFEFA"/>
</g>
<path opacity="0.68" d="M429.296 161.053C365.951 163.37 322.097 222.453 279.218 273.425C264.6 291.961 247.058 307.021 224.644 302.387C180.79 291.961 152.568 321.757 124.306 356.511C111.121 372.185 89.8661 395.899 79 395.899H89.866C201.372 361.319 318.043 366.903 432.22 362.628C477.165 360.902 520.483 354.692 565 345.425V192.402C521.039 174.746 475.801 159.177 429.296 161.053Z" fill="#9CB148"/>
<path d="M91 395.899H565V345.899C520.59 355.078 477.375 361.228 432.537 362.937C318.623 367.171 202.24 361.641 91 395.899Z" fill="url(#paint0_linear_568_4)"/>
<path opacity="0.68" d="M91 395.899H565V345.899C520.59 355.078 477.375 361.228 432.537 362.937C318.623 367.171 202.24 361.641 91 395.899Z" fill="#A4CB96"/>
<path d="M262.971 19.8343V224.47C262.971 225.335 264.606 225.335 264.606 224.47V19.8343C264.616 18.9693 262.971 18.9693 262.971 19.8343Z" fill="url(#paint1_linear_568_4)"/>
<path d="M301.928 86.6222C302.803 89.9663 308.278 87.8881 308.278 87.8881L307.413 77.4021L301.875 80.2399L301.928 86.6222Z" fill="#FFCCBC"/>
<path d="M299.852 84.5967L299.883 86.9597C301.328 89.7025 310.348 87.9935 310.348 87.9935L309.641 83.7105C306.382 83.5839 303.111 83.9531 299.852 84.5967Z" fill="url(#paint2_linear_568_4)"/>
<path d="M298.691 76.748L300.653 70.6399C300.948 69.7221 301.929 69.2263 302.847 69.5217C305.864 70.4922 307.774 73.2878 307.784 76.2838C308.101 76.1994 307.689 78.6152 307.425 78.5308C307.425 78.5308 303.849 82.8033 301.402 82.0121C299.186 81.3053 297.984 78.9528 298.691 76.748Z" fill="#FFCCBC"/>
<path d="M323.672 215.63L323.703 219.491L318.165 219.512L317.469 215.662L323.672 215.63Z" fill="#FFCCBC"/>
<path d="M323.702 219.491L325.2 224.565C325.306 224.924 325.084 225.251 324.715 225.251L309.756 225.325C309.956 223.257 311.275 221.633 313.227 221.031L318.153 219.512L323.702 219.491Z" fill="url(#paint3_linear_568_4)"/>
<path d="M303.025 135.465L306.57 171.555C307.066 176.587 307.899 181.608 309.081 186.577L316.423 217.592L325.158 217.55L323.333 203.509C321.149 186.63 320.168 169.698 320.411 152.861L320.664 134.906L303.025 135.465Z" fill="url(#paint4_linear_568_4)"/>
<path d="M318.282 128.145L314.916 132.396C314.283 133.198 314.516 134.369 315.412 134.864C315.412 134.864 321.984 135.276 322.364 134.379L322.85 130.444L318.282 128.145Z" fill="#FFCCBC"/>
<path d="M318.264 128.176L320.173 126.414L324.699 129.115L322.832 130.476L318.264 128.176Z" fill="#FFCCBC"/>
<path d="M320.172 126.414L324.444 129.305L324.698 129.115L327.641 126.973L322.345 123.84L320.172 126.414Z" fill="url(#paint5_linear_568_4)"/>
<path d="M315.373 91.9285C313.453 93.0889 312.408 95.0406 312.313 97.0555C312.218 98.8805 312.904 100.748 314.434 102.109L329.393 115.369L329.456 115.422L329.393 115.496L322.346 123.84L327.641 126.973L339.003 118.692C340.87 117.342 341.451 114.81 340.364 112.774L337.853 110.094L318.864 89.8608L315.373 91.9285Z" fill="url(#paint6_linear_568_4)"/>
<path d="M267.93 107.077C267.93 107.077 260.714 104.725 260.619 105.737C260.619 105.737 260.693 112.932 261.674 112.921L267.656 112.183L267.93 107.077Z" fill="#FFCCBC"/>
<path d="M267.899 107.067L270.273 108.1L269.629 113.333L267.625 112.172L267.899 107.067Z" fill="#FFCCBC"/>
<path d="M270.269 108.1L269.352 113.175L269.626 113.333L272.78 115.158L273.508 109.05L270.269 108.1Z" fill="url(#paint7_linear_568_4)"/>
<path d="M299.884 89.7867C298.048 88.4996 295.843 88.3309 293.955 89.0588C292.246 89.7128 290.811 91.0948 290.189 93.0359L284.102 112.077L284.081 112.151L283.996 112.12L273.521 109.039L272.793 115.147L284.956 122.194C286.95 123.365 289.503 122.869 290.917 121.044L292.351 117.658L303.196 92.1181L299.884 89.7867Z" fill="url(#paint8_linear_568_4)"/>
<path d="M298.336 215.756L297.692 219.628L292.143 219.649L292.133 215.799L298.336 215.756Z" fill="#FFCCBC"/>
<path d="M297.691 219.628L298.302 224.713C298.345 225.071 298.06 225.398 297.701 225.398L282.742 225.472C283.301 223.405 284.905 221.78 286.962 221.179L292.152 219.66L297.691 219.628Z" fill="url(#paint9_linear_568_4)"/>
<path d="M291.748 135.529L288.963 171.649C288.573 176.692 288.53 181.714 288.836 186.682L290.735 217.729L299.47 217.687L300.114 203.635C300.884 186.746 302.878 169.793 306.063 152.946L309.471 134.969L291.748 135.529Z" fill="url(#paint10_linear_568_4)"/>
<path d="M321.381 96.7494L321.592 136.425C321.592 137.375 315.78 137.227 315.78 137.227L306.992 137.375L292.603 137.618C291.348 137.639 290.324 136.636 290.314 135.381L290.124 98.585C290.092 91.7385 290.989 88.7636 298.405 86.1368C299.523 85.736 302.161 85.3562 303.996 85.1135C305.304 84.9448 306.634 84.987 307.931 85.2507C307.942 85.2507 307.963 85.2612 307.973 85.2612C309.165 85.4933 310.906 85.8731 313.216 86.4217C317.985 87.5715 321.36 91.844 321.381 96.7494Z" fill="url(#paint11_linear_568_4)"/>
<path d="M310.042 73.7096C309.125 76.0515 308.059 78.6783 307.595 79.5117C306.73 79.4273 305.422 79.575 304.546 79.4906C304.251 78.3302 304.029 77.4968 303.734 76.3363C304.261 76.4629 304.852 76.2414 305.169 75.7983C305.485 75.3553 305.506 74.7223 305.221 74.2687C304.968 73.7623 304.282 74.0788 303.924 73.91C302.9 73.4353 304.43 70.703 300.643 70.6397C300.632 70.6397 300.664 70.6714 300.643 70.6397C298.079 67.4855 302.679 65.882 305.074 66.6943C305.475 66.8314 307.099 67.8336 307.479 67.9813C309.789 68.8569 310.939 71.4204 310.042 73.7096Z" fill="url(#paint12_linear_568_4)"/>
<path d="M264.754 19.6971C274.797 15.3086 286.201 14.1165 296.929 16.3213C300.959 17.1547 305.474 19.0114 306.561 22.978C307.194 25.2883 306.476 27.8307 307.194 30.1199C308.449 34.0969 313.45 35.5528 317.595 35.0991C321.741 34.6455 325.74 32.926 329.907 33.0842C334.074 33.2425 338.662 36.4178 338.114 40.5426C337.882 42.2727 336.774 43.8867 337.006 45.6168C337.28 47.6106 339.317 48.982 341.31 49.1719C343.315 49.3618 345.277 48.6656 347.165 47.9799C344.982 50.1425 343.452 51.5983 340.762 53.0752C338.072 54.5415 334.78 55.2167 331.89 54.1723C329.041 53.1385 326.942 50.5961 324.104 49.5306C320.739 48.2647 316.941 49.288 313.682 50.8282C310.432 52.3684 307.384 54.4255 303.913 55.3644C300.442 56.3033 296.244 55.8286 293.997 53.0224C292.636 51.324 292.14 48.9609 290.484 47.5473C288.353 45.7223 285.146 46.1126 282.435 46.8405C276.021 48.5706 269.965 51.651 264.796 55.8286L264.754 19.6971Z" fill="url(#paint13_linear_568_4)"/>
<path opacity="0.41" d="M337.005 45.6273C336.773 43.8973 337.88 42.2832 338.113 40.5531C338.186 40.0362 338.165 39.5404 338.091 39.0657C334.452 43.3171 331.445 48.0009 329.631 53.0119C330.348 53.476 331.097 53.898 331.899 54.1934C334.568 55.1639 337.575 54.647 340.149 53.4022C340.518 51.9886 340.866 50.575 341.256 49.193C339.273 48.9609 337.269 47.6001 337.005 45.6273Z" fill="url(#paint14_linear_568_4)"/>
<path d="M341.31 49.1826C341.289 49.1826 341.267 49.1721 341.246 49.1721C340.856 50.554 340.508 51.9676 340.139 53.3812C340.35 53.2757 340.561 53.1808 340.761 53.0753C343.451 51.6089 344.981 50.1426 347.165 47.98C345.276 48.6762 343.314 49.3725 341.31 49.1826Z" fill="url(#paint15_linear_568_4)"/>
<path opacity="0.41" d="M307.194 30.1199C306.688 28.5375 306.878 26.8285 306.835 25.1617C300.379 31.8289 292.868 38.7071 288.648 46.5452C289.313 46.7562 289.946 47.0727 290.495 47.5474C292.151 48.9716 292.647 51.3241 294.008 53.0225C296.255 55.8286 300.453 56.3033 303.924 55.3645C306.646 54.626 309.093 53.2124 311.593 51.8937C312.416 46.2182 313.503 40.511 315.338 35.1519C311.794 34.9515 308.228 33.3902 307.194 30.1199Z" fill="url(#paint16_linear_568_4)"/>
<path d="M353.212 75.1757C351.345 76.1252 350.016 78.2983 350.512 80.3344C350.807 81.5581 351.693 82.6658 351.577 83.9211C351.44 85.3664 350.005 86.4319 349.889 87.8771C349.815 88.8477 350.385 89.7971 351.187 90.3562C351.989 90.9153 352.98 91.1263 353.961 91.158C354.457 91.1791 354.963 91.1474 355.428 90.947C355.881 90.7465 356.272 90.3457 356.335 89.8499C356.419 89.1747 355.923 88.5945 355.66 87.9721C355.037 86.5374 355.67 84.86 356.599 83.5941C357.527 82.3387 358.74 81.2838 359.5 79.9229C359.932 79.1423 360.175 78.2245 360.112 77.3278C360.069 76.7476 359.974 76.1041 359.668 75.5977C359.025 74.49 357.348 74.4373 356.229 74.4584C355.185 74.49 354.141 74.701 353.212 75.1757Z" fill="url(#paint17_linear_568_4)"/>
<path d="M366.527 81.3261C367.687 79.4273 366.917 76.7161 365.113 75.408C363.309 74.0999 360.756 74.1104 358.763 75.102C356.294 76.3258 354.606 79.0158 354.68 81.7692C354.754 84.5226 356.653 87.1599 359.269 88.0039C360.556 88.4258 362.022 88.4047 363.214 87.7612C365.092 86.7379 365.852 84.4804 366.453 82.4338" fill="url(#paint18_linear_568_4)"/>
<path d="M372.982 132.311C372.982 132.311 373.742 168.168 373.341 172.599L368.52 207.201L363.825 207.18C363.825 207.18 360.935 162.83 358.74 147.829L356.398 131.826L372.982 132.311Z" fill="url(#paint19_linear_568_4)"/>
<path d="M365.186 132.311C365.186 132.311 361.178 168.168 360.186 172.599L350.755 207.201L346.061 207.18C346.061 207.18 349.067 162.83 348.867 147.829L348.656 131.826L365.186 132.311Z" fill="url(#paint20_linear_568_4)"/>
<path d="M349.92 96.591C349.889 93.4157 353.296 92.2552 357.051 92.002C358.507 91.9071 364.753 91.0315 367.21 94.2702C369.763 97.6354 372.791 102.003 371.578 105.79C370.998 107.615 370.534 112.415 370.038 114.303C369.426 116.635 374.099 132.427 374.099 132.427C373.181 138.978 346.07 136.995 347.568 133.303C347.135 133.798 350.332 123.787 353.159 115.063C355.153 108.902 349.931 98.1839 349.92 96.591Z" fill="url(#paint21_linear_568_4)"/>
<path d="M356.872 92.0127C353.191 92.2975 349.889 93.4685 349.92 96.5911C349.931 98.184 355.153 108.913 353.159 115.063C350.332 123.787 347.135 133.799 347.568 133.303C346.703 135.434 355.364 136.995 363.033 136.679C363.529 121.498 362.864 106.455 356.872 92.0127Z" fill="url(#paint22_linear_568_4)"/>
<path d="M368.687 124.336C368.086 113.734 366.83 103.121 364.763 92.5191C361.904 91.4114 358.138 91.9178 357.041 91.9916C356.977 91.9916 356.925 92.0022 356.861 92.0022C361.271 102.636 362.79 113.597 363.085 124.684C364.963 124.779 366.83 124.621 368.687 124.336Z" fill="url(#paint23_linear_568_4)"/>
<path d="M374.099 132.427C374.099 132.427 369.436 116.635 370.038 114.303C370.533 112.415 370.987 107.615 371.578 105.79C372.791 102.003 369.763 97.6354 367.21 94.2702C366.588 93.4579 365.733 92.8988 364.773 92.5295C367.59 106.993 368.919 121.456 369.099 135.919C371.873 135.233 373.867 134.115 374.099 132.427Z" fill="url(#paint24_linear_568_4)"/>
<path d="M363.306 93.7007C363.316 94.3442 362.936 94.9244 362.346 95.1671C361.354 95.5679 359.74 94.7767 359.181 94.3126C358.738 93.9539 358.506 93.3842 358.548 92.8146L359.339 82.3918L363 82.5817L363.306 93.7007Z" fill="#FFCCBC"/>
<path d="M358.327 86.1052C358.011 85.8731 357.821 85.4722 357.863 85.0925C357.905 84.7127 358.18 84.3646 358.538 84.2591C358.718 84.2063 358.918 84.2169 359.108 84.2802L359.182 81.1892C359.224 79.3958 360.722 78.0139 362.515 78.0983L365.09 78.2354C366.081 78.2882 366.862 79.1216 366.841 80.1237L366.714 85.7782C366.672 87.5294 365.206 88.8797 363.465 88.7953L361.25 88.6792C360.005 88.6159 359.045 87.5716 359.076 86.3373C358.802 86.3373 358.549 86.2634 358.327 86.1052Z" fill="#FFCCBC"/>
<path d="M358.824 83.9003C357.948 84.0796 356.862 84.0058 356.387 83.088C355.944 82.2335 356.303 81.1364 356.777 80.3241C357.695 78.7417 359.046 77.5496 360.565 76.885C361.63 76.4208 364.141 75.5558 365.027 76.8533C367.074 79.8493 360.491 83.5522 358.824 83.9003Z" fill="url(#paint25_linear_568_4)"/>
<path d="M374.436 87.3815L372.643 84.2167L375.185 81.4528L376.936 83.2039C377.474 83.742 377.843 84.4382 377.981 85.2083L377.601 87.0122L374.436 87.3815Z" fill="#FFCCBC"/>
<path d="M372.462 79.8491C371.829 81.748 372.135 83.879 373.348 85.4297C373.728 85.915 374.519 85.3348 374.129 84.8389C373.137 83.573 372.81 81.8113 373.337 80.2394C373.422 79.9863 373.359 79.712 373.105 79.5959C372.884 79.501 372.546 79.5959 372.462 79.8491Z" fill="#FFCCBC"/>
<path d="M373.349 79.3745C372.716 81.2734 373.022 83.4044 374.235 84.9551C374.615 85.4404 375.406 84.8602 375.015 84.3643C374.024 83.0984 373.697 81.3367 374.224 79.7648C374.309 79.5116 374.245 79.2374 373.992 79.1213C373.771 79.0264 373.433 79.1213 373.349 79.3745Z" fill="#FFCCBC"/>
<path d="M374.308 79.7015C373.675 81.6004 373.981 83.7313 375.194 85.2821C375.574 85.7674 376.365 85.1872 375.974 84.6913C374.983 83.4254 374.656 81.6637 375.183 80.0918C375.268 79.8386 375.204 79.5644 374.951 79.4483C374.73 79.3428 374.392 79.4483 374.308 79.7015Z" fill="#FFCCBC"/>
<path d="M375.204 80.3557C374.571 82.2546 374.877 84.3856 376.09 85.9363C376.47 86.4216 377.261 85.8414 376.871 85.3455C375.879 84.0796 375.552 82.3179 376.08 80.746C376.164 80.4928 376.101 80.2186 375.848 80.1025C375.626 80.0076 375.288 80.1025 375.204 80.3557Z" fill="#FFCCBC"/>
<path d="M368.551 83.9636V80.8199L367.676 80.7355V84.0374L368.551 83.9636Z" fill="url(#paint26_linear_568_4)"/>
<path d="M368.551 81.0836V83.6998L383.067 84.6176V80.1553L368.551 81.0836Z" fill="url(#paint27_linear_568_4)"/>
<path d="M384.225 79.8071L382.98 79.881V84.8919L384.225 84.9763V79.8071Z" fill="url(#paint28_linear_568_4)"/>
<path d="M383.919 107.858C383.338 100.779 381.018 94.0696 378.507 87.4341L374.118 87.8561C375.131 92.445 375.891 96.3588 376.967 101.117C373.295 97.8146 369.835 96.2428 365.795 93.3945L368.749 104.988C373.106 106.444 377.462 107.889 381.819 109.345C382.41 109.545 383.149 109.714 383.602 109.282C383.971 108.923 383.961 108.353 383.919 107.858Z" fill="url(#paint29_linear_568_4)"/>
<path d="M377.895 85.7781C376.503 85.9258 375.152 86.0629 373.76 86.2106C373.886 86.7697 374.002 87.3077 374.129 87.8457L378.518 87.4238C378.307 86.8752 378.096 86.3266 377.895 85.7781Z" fill="url(#paint30_linear_568_4)"/>
<path d="M373.139 84.4698C372.918 83.7103 372.918 82.8874 373.15 82.1384C373.192 82.0013 373.245 81.8641 373.34 81.7586C373.435 81.6531 373.593 81.6004 373.73 81.6531C373.952 81.7481 373.962 82.054 373.952 82.2966C373.92 83.2566 374.3 84.2272 374.975 84.9129" fill="#FFCCBC"/>
<path d="M342.548 136.478L344.405 139.611L341.926 142.427L340.143 140.718C339.595 140.191 339.215 139.495 339.057 138.735L339.405 136.921L342.548 136.478Z" fill="#FFCCBC"/>
<path d="M344.658 143.968C345.259 142.058 344.911 139.938 343.667 138.408C343.276 137.933 342.506 138.524 342.896 139.009C343.909 140.254 344.278 142.016 343.783 143.588C343.698 143.841 343.772 144.115 344.025 144.231C344.247 144.326 344.584 144.231 344.658 143.968Z" fill="#FFCCBC"/>
<path d="M343.783 144.474C344.385 142.565 344.036 140.444 342.792 138.915C342.401 138.44 341.631 139.041 342.021 139.516C343.034 140.761 343.403 142.523 342.908 144.094C342.823 144.348 342.897 144.622 343.15 144.738C343.372 144.833 343.709 144.727 343.783 144.474Z" fill="#FFCCBC"/>
<path d="M342.824 144.168C343.426 142.259 343.077 140.138 341.833 138.609C341.442 138.134 340.672 138.725 341.062 139.21C342.075 140.455 342.444 142.217 341.949 143.788C341.864 144.042 341.938 144.316 342.191 144.432C342.402 144.527 342.74 144.421 342.824 144.168Z" fill="#FFCCBC"/>
<path d="M341.914 143.524C342.515 141.615 342.167 139.495 340.922 137.965C340.532 137.49 339.762 138.081 340.152 138.566C341.165 139.811 341.534 141.573 341.038 143.145C340.954 143.398 341.028 143.672 341.281 143.788C341.503 143.883 341.84 143.778 341.914 143.524Z" fill="#FFCCBC"/>
<path d="M338.506 137.28C339.919 137.122 341.692 136.647 343.105 136.478C343.179 135.866 343.264 135.138 343.348 134.347L338.58 134.875C338.569 135.771 338.538 136.584 338.506 137.28Z" fill="url(#paint31_linear_568_4)"/>
<path d="M357.674 102.172L350.648 94.3651C349.688 95.6838 342.357 109.735 338.928 114.44C338.506 116.55 338.717 128.133 338.58 134.875L343.348 134.347C343.95 128.83 344.783 119.726 344.952 118.365L357.674 102.172Z" fill="url(#paint32_linear_568_4)"/>
<path d="M368.507 207.19L363.813 207.169L363.148 211.694C363.116 211.884 363.19 212.053 363.317 212.169L365.184 217.328H366.292V213.836L371.978 217.106C372.537 217.423 373.17 217.592 373.813 217.592H376.324L368.507 207.19Z" fill="url(#paint33_linear_568_4)"/>
<path d="M350.786 207.19L346.092 207.169L345.427 211.694C345.396 211.884 345.469 212.053 345.596 212.169L347.463 217.328H348.571V213.836L354.257 217.106C354.816 217.423 355.449 217.592 356.093 217.592H358.603L350.786 207.19Z" fill="url(#paint34_linear_568_4)"/>
<path d="M292.922 266.752C270.642 262.764 244.321 257.964 232.548 236.127C227.516 226.801 226.746 215.545 232.865 206.505C239.827 196.219 252.697 193.044 264.059 197.274C269.46 199.278 271.781 190.649 266.433 188.655C253.172 183.718 237.665 187.178 228.265 197.928C219.667 207.77 217.399 221.263 221.714 233.542C231.947 262.722 263.394 270.497 290.548 275.36C296.171 276.383 298.587 267.764 292.922 266.752Z" fill="url(#paint35_linear_568_4)"/>
<path opacity="0.74" d="M292.924 266.752C270.643 262.764 244.323 257.964 232.55 236.127C227.518 226.801 226.748 215.545 232.866 206.505C239.829 196.219 252.699 193.044 264.061 197.274C267.373 198.508 269.525 195.734 269.462 192.938C255.104 186.366 234.269 192.706 226.737 206.083C216.905 223.953 225.84 243.617 241.928 254.335C254.292 262.205 268.08 266.541 280.159 273.345C283.651 274.084 287.132 274.738 290.55 275.349C296.173 276.383 298.589 267.764 292.924 266.752Z" fill="url(#paint36_linear_568_4)"/>
<path d="M347.228 266.752C369.508 262.764 395.829 257.964 407.602 236.127C412.634 226.801 413.404 215.545 407.285 206.505C400.323 196.219 387.452 193.044 376.091 197.274C370.69 199.278 368.369 190.649 373.717 188.655C386.978 183.718 402.485 187.178 411.885 197.928C420.482 207.77 422.75 221.263 418.446 233.542C408.214 262.722 376.766 270.497 349.612 275.36C343.979 276.383 341.573 267.764 347.228 266.752Z" fill="url(#paint37_linear_568_4)"/>
<path opacity="0.74" d="M347.229 266.752C369.509 262.764 395.829 257.964 407.602 236.127C412.634 226.801 413.404 215.545 407.286 206.505C400.323 196.219 387.453 193.044 376.092 197.274C372.779 198.508 370.627 195.734 370.69 192.938C385.048 186.366 405.883 192.706 413.415 206.083C423.247 223.953 414.312 243.617 398.224 254.335C385.86 262.205 372.072 266.541 359.993 273.345C356.501 274.084 353.02 274.738 349.602 275.349C343.979 276.383 341.574 267.764 347.229 266.752Z" fill="url(#paint38_linear_568_4)"/>
<path d="M333.915 336.324C330.792 325.427 332.596 289.707 339.126 278.926H301.697C308.227 289.717 310.031 325.437 306.909 336.324C303.902 346.821 296.338 355.82 286.264 361.189H320.254H320.56H354.549C344.485 355.809 336.922 346.81 333.915 336.324Z" fill="url(#paint39_linear_568_4)"/>
<path opacity="0.74" d="M333.917 336.324C330.794 325.427 332.598 289.707 339.128 278.926H301.699C305.676 285.508 309.189 293.452 310.149 300.858C310.582 304.233 313.504 306.723 316.901 306.734C318.536 306.734 320.161 306.723 322.123 306.723C321.437 318.327 325.193 353.066 333.02 361.189H354.551C344.487 355.809 336.923 346.81 333.917 336.324Z" fill="url(#paint40_linear_568_4)"/>
<path d="M320.421 291.553C291.738 291.553 265.713 269.326 261.862 238.405L254.319 177.873C253.76 173.411 256.461 169.729 260.354 169.729H380.489C384.382 169.729 387.083 173.401 386.523 177.873L378.981 238.405C375.13 269.326 349.105 291.553 320.421 291.553Z" fill="url(#paint41_linear_568_4)"/>
<path opacity="0.74" d="M358.661 235.852C340.189 260.728 313.499 278.915 286.746 280.677C296.314 287.544 307.971 291.553 320.42 291.553C349.103 291.553 375.128 269.325 378.979 238.405L386.247 180.047C386.342 179.266 386.353 178.517 386.3 177.778C381.268 200.407 370.74 219.575 358.661 235.852Z" fill="url(#paint42_linear_568_4)"/>
<path d="M330.616 258.333L325.268 258.977L324.055 263.471L328.549 264.568L332.23 263.197L330.616 258.333Z" fill="#FFAB91"/>
<path d="M320.722 261.424C322.315 259.525 324.794 258.481 327.273 258.787C328.054 258.882 327.959 260.095 327.178 260C325.163 259.757 323.053 260.538 321.735 262.11C321.524 262.363 321.175 262.468 320.891 262.279C320.637 262.099 320.511 261.677 320.722 261.424Z" fill="#FFAB91"/>
<path d="M320.583 262.859C322.176 260.96 324.655 259.916 327.134 260.222C327.915 260.317 327.82 261.53 327.039 261.435C325.024 261.192 322.915 261.973 321.596 263.545C321.385 263.798 321.037 263.903 320.752 263.713C320.499 263.534 320.372 263.112 320.583 262.859Z" fill="#FFAB91"/>
<path d="M321.575 264.114C323.168 262.215 325.647 261.171 328.126 261.477C328.906 261.572 328.812 262.785 328.031 262.69C326.016 262.447 323.906 263.228 322.587 264.8C322.376 265.053 322.028 265.159 321.743 264.969C321.48 264.789 321.353 264.367 321.575 264.114Z" fill="#FFAB91"/>
<path d="M323.136 264.505C324.729 262.606 327.208 261.562 329.687 261.868C330.468 261.962 330.373 263.176 329.592 263.081C327.577 262.838 325.467 263.619 324.149 265.191C323.938 265.444 323.589 265.549 323.305 265.359C323.051 265.18 322.925 264.758 323.136 264.505Z" fill="#FFAB91"/>
<path d="M350.448 261.857L352.822 259.04L364.922 229.681L362.453 226.453C361.082 224.681 359.014 223.868 356.999 224.006C355.174 224.122 353.391 225.029 352.231 226.706L346.587 251.254L346.545 251.318L346.471 251.265L330.615 258.333L332.229 263.196C332.229 263.196 348.56 263.186 350.448 261.857Z" fill="url(#paint43_linear_568_4)"/>
<path d="M359.206 351.494L358.541 355.355H352.992V351.494H359.206Z" fill="#FFCCBC"/>
<path d="M358.539 355.355L359.119 360.451C359.161 360.809 358.877 361.136 358.507 361.136H343.527C344.097 359.069 345.711 357.455 347.768 356.853L352.98 355.355H358.539Z" fill="url(#paint44_linear_568_4)"/>
<path d="M353.044 271.13L350.069 307.282C349.658 312.325 349.584 317.357 349.858 322.336L351.936 355.355H358.54C358.54 355.355 363.994 305.499 367.275 288.641L370.777 270.665L353.044 271.13Z" fill="url(#paint45_linear_568_4)"/>
<path d="M384.577 351.494L384.587 355.355H379.038L378.363 351.494H384.577Z" fill="#FFCCBC"/>
<path d="M384.586 355.355L386.063 360.451C386.168 360.809 385.936 361.136 385.578 361.136H370.598C370.809 359.069 372.138 357.455 374.089 356.853L379.037 355.355H384.586Z" fill="url(#paint46_linear_568_4)"/>
<path d="M364.332 271.13L367.687 307.282C368.151 312.325 368.963 317.357 370.113 322.336L379.038 355.355H385.557L384.291 339.363C382.192 322.452 381.295 305.499 381.622 288.641L381.97 270.665L364.332 271.13Z" fill="url(#paint47_linear_568_4)"/>
<path d="M382.91 232.466V272.184C382.91 273.134 377.087 272.965 377.087 272.965L368.289 273.071L353.878 273.239C352.623 273.261 351.6 272.248 351.6 270.992V234.154C351.6 227.297 352.517 224.322 359.955 221.738C361.759 221.105 367.519 220.514 367.519 220.514C367.519 220.514 368.173 220.619 369.544 220.904C370.736 221.147 372.477 221.527 374.787 222.096C379.555 223.257 382.91 227.55 382.91 232.466Z" fill="url(#paint48_linear_568_4)"/>
<path d="M382.909 232.466V280.318C382.909 281.267 377.086 281.099 377.086 281.099L368.667 281.204C368.562 278.799 368.425 276.056 368.298 273.081C367.718 260.517 367.032 243.838 367.633 231.591C367.633 228.542 368.15 224.164 369.543 220.925C370.735 221.168 372.476 221.548 374.786 222.117C379.554 223.257 382.909 227.55 382.909 232.466Z" fill="url(#paint49_linear_568_4)"/>
<path d="M360.65 223.995C360.65 223.214 360.988 222.265 361.441 221.368C360.84 221.484 360.323 221.611 359.954 221.738C352.517 224.333 351.599 227.297 351.599 234.154L351.188 279.115C351.188 280.371 352.211 281.383 353.466 281.362L358.435 281.299C357.812 265.021 358.551 240.441 360.65 223.995Z" fill="url(#paint50_linear_568_4)"/>
<path d="M361.722 268.809C361.722 268.809 361.216 238.722 362.587 225.609L362.651 224.976L365.077 225.23L365.014 225.863C363.653 238.828 365.119 268.07 365.119 268.07L363.8 270.37L361.722 268.809Z" fill="url(#paint51_linear_568_4)"/>
<path d="M358.424 209.384C357.686 208.435 357.39 207.158 357.622 205.987C357.865 204.816 358.635 203.751 359.68 203.171C360.914 202.485 362.401 202.464 363.794 202.664C364.933 202.823 366.072 203.129 367.054 203.74C368.035 204.352 368.836 205.291 369.1 206.42C369.364 207.549 368.731 211.61 367.813 212.306C367.465 213.298 363.667 215.197 362.169 213.541C360.924 212.138 359.532 210.808 358.424 209.384Z" fill="url(#paint52_linear_568_4)"/>
<path d="M362.792 217.697L366.949 216.157L367.202 212.243C367.075 209.68 366.232 209.258 364.639 208.846C362.655 208.34 360.915 207.148 359.723 205.481C358.763 205.534 358.024 206.346 358.077 207.306L358.404 213.72C358.52 216.03 360.482 217.813 362.792 217.697Z" fill="#FFAB91"/>
<path d="M361.928 222.138C363.932 224.965 367.624 222.138 367.624 222.138L366.907 211.473H361.938V222.138H361.928Z" fill="#FFAB91"/>
<path d="M366.81 211.948C367.222 211.769 367.739 211.885 368.034 212.222C368.329 212.56 368.393 213.077 368.192 213.478C368.002 213.878 367.57 214.153 367.127 214.184C366.684 214.216 366.23 214.016 365.945 213.667L366.81 211.948Z" fill="#FFAB91"/>
<path d="M376.192 275.286L374.873 280.497L378.629 283.261L381.266 279.453L381.308 275.529L376.192 275.286Z" fill="#FFAB91"/>
<path d="M375.516 285.624C374.314 283.462 374.24 280.772 375.411 278.567C375.78 277.871 376.877 278.398 376.508 279.094C375.559 280.888 375.527 283.145 376.519 284.928C376.962 285.572 375.959 286.278 375.516 285.624Z" fill="#FFAB91"/>
<path d="M376.813 286.268C375.611 284.105 375.537 281.415 376.708 279.21C377.077 278.514 378.174 279.042 377.805 279.738C376.855 281.531 376.824 283.789 377.815 285.572C378.248 286.215 377.246 286.922 376.813 286.268Z" fill="#FFAB91"/>
<path d="M378.333 285.804C377.13 283.641 377.056 280.951 378.227 278.746C378.597 278.05 379.694 278.577 379.324 279.274C378.375 281.067 378.343 283.325 379.335 285.107C379.778 285.751 378.776 286.458 378.333 285.804Z" fill="#FFAB91"/>
<path d="M379.261 284.475C378.058 282.312 377.984 279.622 379.155 277.417C379.524 276.721 380.621 277.248 380.252 277.944C379.303 279.738 379.271 281.995 380.263 283.778C380.706 284.432 379.693 285.139 379.261 284.475Z" fill="#FFAB91"/>
<path d="M376.182 275.318L377.205 272.934L382.448 273.545L381.298 275.55L376.182 275.318Z" fill="#FFAB91"/>
<path d="M372.678 233.679C374.661 231.496 378.29 222.919 381.824 228.067L392.553 249.071C395.042 253.291 384.577 270.908 383.522 274.98L375.874 272.754L382.489 249.229L372.678 233.679Z" fill="url(#paint53_linear_568_4)"/>
<path d="M280.181 223.309C279.305 226.664 273.83 224.575 273.83 224.575L274.695 214.089L280.233 216.927L280.181 223.309Z" fill="#A16733"/>
<path d="M282.27 221.294L282.238 223.657C280.793 226.4 271.773 224.691 271.773 224.691L272.48 220.408C275.74 220.271 279 220.651 282.27 221.294Z" fill="url(#paint54_linear_568_4)"/>
<path d="M283.431 213.446L281.469 207.338C281.173 206.42 280.192 205.924 279.274 206.219C276.257 207.19 274.348 209.986 274.337 212.982C274.021 212.897 274.432 215.313 274.696 215.229C274.696 215.229 278.272 219.501 280.72 218.71C282.924 218.003 284.138 215.64 283.431 213.446Z" fill="#A16733"/>
<path d="M258.45 352.317L258.408 355.018L263.957 355.049L264.653 352.349L258.45 352.317Z" fill="#A16733"/>
<path d="M258.407 355.018L256.909 360.092C256.804 360.45 257.025 360.778 257.394 360.778L272.353 360.851C272.153 358.784 270.834 357.159 268.883 356.558L263.956 355.039L258.407 355.018Z" fill="url(#paint55_linear_568_4)"/>
<path d="M279.082 272.163L275.537 308.253C275.041 313.285 274.208 318.306 273.026 323.275L265.684 354.29L256.949 354.248L258.774 340.217C260.958 323.338 261.939 306.406 261.696 289.57L261.443 271.615L279.082 272.163Z" fill="url(#paint56_linear_568_4)"/>
<path d="M263.828 264.842L267.193 269.104C267.826 269.906 267.594 271.077 266.697 271.573C266.697 271.573 260.125 271.984 259.745 271.087L259.26 267.152L263.828 264.842Z" fill="#A16733"/>
<path d="M263.849 264.863L261.95 263.101L257.414 265.813L259.292 267.173L263.849 264.863Z" fill="#A16733"/>
<path d="M266.739 228.626L263.247 226.558L244.258 246.792L241.748 249.472C240.65 251.508 241.231 254.039 243.108 255.39L254.47 263.671L257.424 265.823L257.677 266.002L261.95 263.112L259.776 260.538L252.729 252.193L252.666 252.119L252.729 252.067L267.688 238.806C269.218 237.456 269.904 235.589 269.809 233.753C269.703 231.738 268.659 229.776 266.739 228.626Z" fill="url(#paint57_linear_568_4)"/>
<path d="M282.227 226.474C284.062 225.187 286.267 225.018 288.155 225.746C289.864 226.4 291.299 227.782 291.921 229.723L298.008 248.765L298.029 248.839L298.114 248.807L318.759 258.407L317.145 263.27C317.145 263.27 292.607 259.557 291.193 257.742L289.759 254.356L278.914 228.816L282.227 226.474Z" fill="url(#paint58_linear_568_4)"/>
<path d="M283.785 352.454L284.418 355.155L289.967 355.176L289.988 352.486L283.785 352.454Z" fill="#A16733"/>
<path d="M284.417 355.155L283.805 360.24C283.763 360.598 284.048 360.926 284.406 360.926L299.365 360.999C298.806 358.932 297.203 357.307 295.145 356.706L289.955 355.187L284.417 355.155Z" fill="url(#paint59_linear_568_4)"/>
<path d="M290.358 272.216L293.143 308.337C293.533 313.379 293.575 318.401 293.269 323.37L291.37 354.416L282.636 354.374L281.992 340.322C281.222 323.433 279.228 306.48 276.042 289.633L272.635 271.657L290.358 272.216Z" fill="url(#paint60_linear_568_4)"/>
<path d="M260.729 233.437L260.518 273.113C260.518 274.062 266.33 273.914 266.33 273.914L275.118 274.062L289.507 274.305C290.762 274.326 291.786 273.324 291.796 272.068L291.986 235.272C292.018 228.426 291.121 225.451 283.705 222.824C282.587 222.423 279.949 222.043 278.114 221.801C276.806 221.632 275.476 221.674 274.179 221.938C274.168 221.938 274.147 221.948 274.137 221.948C272.945 222.191 271.204 222.56 268.894 223.109C264.136 224.259 260.76 228.531 260.729 233.437Z" fill="url(#paint61_linear_568_4)"/>
<path d="M272.064 210.408C272.982 212.75 274.048 215.376 274.512 216.21C275.377 216.136 276.685 216.273 277.561 216.189C277.856 215.028 278.078 214.195 278.373 213.034C277.846 213.161 277.255 212.939 276.938 212.496C276.622 212.053 276.601 211.42 276.886 210.967C277.139 210.46 277.824 210.777 278.183 210.608C279.206 210.133 277.677 207.401 281.464 207.338C281.443 207.369 281.474 207.338 281.464 207.338C284.027 204.183 279.428 202.58 277.033 203.392C276.632 203.529 275.008 204.532 274.628 204.679C272.318 205.544 271.168 208.118 272.064 210.408Z" fill="url(#paint62_linear_568_4)"/>
<path d="M318.766 258.428L324.104 259.072L325.328 263.566L320.834 264.663L317.152 263.291L318.766 258.428Z" fill="#A16733"/>
<path d="M328.65 261.519C327.057 259.621 324.578 258.576 322.099 258.882C321.318 258.977 321.413 260.19 322.194 260.095C324.209 259.853 326.319 260.633 327.637 262.205C327.848 262.458 328.196 262.564 328.481 262.374C328.745 262.195 328.861 261.773 328.65 261.519Z" fill="#A16733"/>
<path d="M328.8 262.954C327.207 261.055 324.728 260.011 322.249 260.317C321.469 260.411 321.563 261.625 322.344 261.53C324.359 261.287 326.469 262.068 327.788 263.64C327.999 263.893 328.347 263.998 328.631 263.808C328.885 263.629 329.011 263.207 328.8 262.954Z" fill="#A16733"/>
<path d="M327.808 264.209C326.215 262.31 323.736 261.266 321.257 261.572C320.476 261.667 320.571 262.88 321.352 262.785C323.367 262.542 325.477 263.323 326.795 264.895C327.006 265.148 327.354 265.253 327.639 265.064C327.892 264.895 328.019 264.462 327.808 264.209Z" fill="#A16733"/>
<path d="M326.246 264.6C324.653 262.701 322.174 261.656 319.694 261.962C318.914 262.057 319.009 263.271 319.789 263.176C321.804 262.933 323.914 263.714 325.233 265.285C325.444 265.539 325.792 265.644 326.077 265.454C326.33 265.275 326.457 264.853 326.246 264.6Z" fill="#A16733"/>
<path d="M132.302 142.5V153H130.538V143.06L131.112 143.088L126.226 153H124.252L119.366 143.102L119.94 143.074V153H118.176V142.5H121.004L125.708 152.202H124.784L129.474 142.5H132.302ZM135.071 142.5H136.919V153H135.071V142.5ZM139.044 149.584H140.92C140.976 150.004 141.149 150.373 141.438 150.69C141.737 151.007 142.129 151.255 142.614 151.432C143.099 151.6 143.659 151.684 144.294 151.684C145.237 151.684 145.983 151.539 146.534 151.25C147.085 150.951 147.36 150.55 147.36 150.046C147.36 149.635 147.201 149.327 146.884 149.122C146.567 148.917 145.993 148.763 145.162 148.66L142.894 148.366C141.625 148.198 140.701 147.885 140.122 147.428C139.553 146.961 139.268 146.303 139.268 145.454C139.268 144.81 139.459 144.255 139.842 143.788C140.234 143.312 140.785 142.948 141.494 142.696C142.203 142.435 143.034 142.304 143.986 142.304C144.929 142.304 145.764 142.444 146.492 142.724C147.22 143.004 147.799 143.396 148.228 143.9C148.667 144.395 148.905 144.978 148.942 145.65H147.066C147.019 145.277 146.861 144.955 146.59 144.684C146.329 144.413 145.974 144.203 145.526 144.054C145.078 143.895 144.551 143.816 143.944 143.816C143.085 143.816 142.399 143.956 141.886 144.236C141.373 144.516 141.116 144.899 141.116 145.384C141.116 145.757 141.265 146.047 141.564 146.252C141.872 146.448 142.404 146.597 143.16 146.7L145.456 147.022C146.399 147.153 147.141 147.33 147.682 147.554C148.233 147.769 148.625 148.063 148.858 148.436C149.091 148.8 149.208 149.271 149.208 149.85C149.208 150.522 149.003 151.11 148.592 151.614C148.181 152.118 147.603 152.51 146.856 152.79C146.119 153.061 145.255 153.196 144.266 153.196C143.258 153.196 142.367 153.047 141.592 152.748C140.827 152.44 140.22 152.015 139.772 151.474C139.324 150.933 139.081 150.303 139.044 149.584ZM150.702 149.584H152.578C152.634 150.004 152.807 150.373 153.096 150.69C153.395 151.007 153.787 151.255 154.272 151.432C154.757 151.6 155.317 151.684 155.952 151.684C156.895 151.684 157.641 151.539 158.192 151.25C158.743 150.951 159.018 150.55 159.018 150.046C159.018 149.635 158.859 149.327 158.542 149.122C158.225 148.917 157.651 148.763 156.82 148.66L154.552 148.366C153.283 148.198 152.359 147.885 151.78 147.428C151.211 146.961 150.926 146.303 150.926 145.454C150.926 144.81 151.117 144.255 151.5 143.788C151.892 143.312 152.443 142.948 153.152 142.696C153.861 142.435 154.692 142.304 155.644 142.304C156.587 142.304 157.422 142.444 158.15 142.724C158.878 143.004 159.457 143.396 159.886 143.9C160.325 144.395 160.563 144.978 160.6 145.65H158.724C158.677 145.277 158.519 144.955 158.248 144.684C157.987 144.413 157.632 144.203 157.184 144.054C156.736 143.895 156.209 143.816 155.602 143.816C154.743 143.816 154.057 143.956 153.544 144.236C153.031 144.516 152.774 144.899 152.774 145.384C152.774 145.757 152.923 146.047 153.222 146.252C153.53 146.448 154.062 146.597 154.818 146.7L157.114 147.022C158.057 147.153 158.799 147.33 159.34 147.554C159.891 147.769 160.283 148.063 160.516 148.436C160.749 148.8 160.866 149.271 160.866 149.85C160.866 150.522 160.661 151.11 160.25 151.614C159.839 152.118 159.261 152.51 158.514 152.79C157.777 153.061 156.913 153.196 155.924 153.196C154.916 153.196 154.025 153.047 153.25 152.748C152.485 152.44 151.878 152.015 151.43 151.474C150.982 150.933 150.739 150.303 150.702 149.584ZM163.004 142.5H164.852V153H163.004V142.5ZM173.082 153.196C171.887 153.196 170.837 152.967 169.932 152.51C169.026 152.053 168.322 151.418 167.818 150.606C167.314 149.785 167.062 148.833 167.062 147.75C167.062 146.667 167.314 145.72 167.818 144.908C168.322 144.087 169.026 143.447 169.932 142.99C170.837 142.533 171.887 142.304 173.082 142.304C174.276 142.304 175.326 142.533 176.232 142.99C177.137 143.447 177.842 144.087 178.346 144.908C178.85 145.72 179.102 146.667 179.102 147.75C179.102 148.833 178.85 149.785 178.346 150.606C177.842 151.418 177.137 152.053 176.232 152.51C175.326 152.967 174.276 153.196 173.082 153.196ZM173.082 151.544C173.931 151.544 174.664 151.39 175.28 151.082C175.896 150.774 176.372 150.335 176.708 149.766C177.053 149.197 177.226 148.525 177.226 147.75C177.226 146.975 177.053 146.303 176.708 145.734C176.372 145.165 175.896 144.726 175.28 144.418C174.664 144.11 173.931 143.956 173.082 143.956C172.242 143.956 171.509 144.11 170.884 144.418C170.268 144.726 169.787 145.165 169.442 145.734C169.106 146.303 168.938 146.975 168.938 147.75C168.938 148.525 169.106 149.197 169.442 149.766C169.787 150.335 170.268 150.774 170.884 151.082C171.509 151.39 172.242 151.544 173.082 151.544ZM191.047 151.88L190.291 151.964V142.5H192.083V153H189.731L182.367 143.536L183.109 143.452V153H181.317V142.5H183.725L191.047 151.88Z" fill="#2C9382"/>
<path d="M141.826 126.997C122.816 126.997 107.355 111.536 107.355 92.5266C107.355 73.5174 122.816 58.0564 141.826 58.0564C160.835 58.0564 176.296 73.5174 176.296 92.5266C176.296 111.536 160.835 126.997 141.826 126.997ZM141.826 65.8913C127.151 65.8913 115.206 77.8362 115.206 92.5105C115.206 107.185 127.151 119.13 141.826 119.13C156.5 119.13 168.445 107.185 168.445 92.5105C168.445 77.8362 156.5 65.8913 141.826 65.8913Z" fill="#9CB148"/>
<path d="M141.829 110.412C131.971 110.412 123.943 102.384 123.943 92.5267C123.943 82.6689 131.971 74.6414 141.829 74.6414C151.686 74.6414 159.714 82.6689 159.714 92.5267C159.714 102.384 151.686 110.412 141.829 110.412ZM141.829 82.4762C136.29 82.4762 131.778 86.9877 131.778 92.5267C131.778 98.0657 136.29 102.577 141.829 102.577C147.368 102.577 151.879 98.0657 151.879 92.5267C151.863 86.9877 147.352 82.4762 141.829 82.4762Z" fill="#9CB148"/>
<path d="M141.828 93.1685C141.619 93.1685 141.41 93.0561 141.282 92.8795C141.089 92.5744 141.17 92.173 141.475 91.9804L184.936 63.563C185.241 63.3703 185.642 63.4506 185.835 63.7556C186.027 64.0607 185.947 64.462 185.642 64.6547L142.181 93.0721C142.069 93.1363 141.94 93.1685 141.828 93.1685Z" fill="#9CB148"/>
<path d="M178.639 73.9987L178.334 73.9184L173.1 72.8427L182.604 66.6294L188.175 67.7532L178.639 73.9987Z" fill="#9CB148"/>
<path d="M183.167 60.095L181.883 65.5376L172.395 71.7509C173.021 70.017 173.438 68.1867 173.647 66.3243L183.167 60.095Z" fill="#9CB148"/>
<path d="M126.022 280.423H125.154L129.676 270.707H131.65L126.582 281.207H124.524L119.456 270.707H121.444L126.022 280.423ZM133.032 278.799V277.273H140.368V278.799H133.032ZM137.904 270.707L142.944 281.207H140.97L136.392 271.407H137.106L132.528 281.207H130.554L135.594 270.707H137.904ZM146.491 270.707V280.381L145.665 279.583H153.575V281.207H144.643V270.707H146.491ZM156.574 276.699C156.574 277.324 156.7 277.866 156.952 278.323C157.204 278.78 157.564 279.135 158.03 279.387C158.506 279.63 159.071 279.751 159.724 279.751C160.387 279.751 160.952 279.63 161.418 279.387C161.885 279.135 162.244 278.78 162.496 278.323C162.748 277.866 162.874 277.324 162.874 276.699V270.707H164.722V276.769C164.722 277.693 164.512 278.505 164.092 279.205C163.672 279.896 163.089 280.437 162.342 280.829C161.596 281.212 160.723 281.403 159.724 281.403C158.735 281.403 157.862 281.212 157.106 280.829C156.36 280.437 155.776 279.896 155.356 279.205C154.936 278.505 154.726 277.693 154.726 276.769V270.707H156.574V276.699ZM175.744 275.187V276.727H168.408V275.187H175.744ZM169.626 275.957L168.884 280.647L168.002 279.611H176.15V281.207H166.994L167.834 275.957L166.994 270.707H176.08V272.303H168.002L168.884 271.267L169.626 275.957Z" fill="#2C9382"/>
<path d="M146.785 209.725C135.17 209.725 128.744 214.782 128.744 214.782V237.595C128.744 244.517 132.182 250.963 137.858 254.682L146.722 260.485V256.483L139.621 251.825C134.87 248.711 132.032 243.385 132.032 237.595V216.647C134.27 215.386 139.333 213.096 146.735 213.096C146.76 213.096 146.772 213.096 146.797 213.096C154.236 213.096 159.324 215.386 161.549 216.647V237.595C161.549 243.398 158.712 248.711 153.961 251.825L146.797 256.522L146.735 256.483V260.485L146.797 260.523L155.724 254.682C161.399 250.963 164.838 244.517 164.838 237.595V214.782C164.813 214.782 158.399 209.725 146.785 209.725Z" fill="#9CB148"/>
<path d="M409.983 13.216H409.115L413.637 3.5H415.611L410.543 14H408.485L403.417 3.5H405.405L409.983 13.216ZM417.302 3.5H419.15V14H417.302V3.5ZM421.275 10.584H423.151C423.207 11.004 423.38 11.3727 423.669 11.69C423.968 12.0073 424.36 12.2547 424.845 12.432C425.33 12.6 425.89 12.684 426.525 12.684C427.468 12.684 428.214 12.5393 428.765 12.25C429.316 11.9513 429.591 11.55 429.591 11.046C429.591 10.6353 429.432 10.3273 429.115 10.122C428.798 9.91667 428.224 9.76267 427.393 9.66L425.125 9.366C423.856 9.198 422.932 8.88533 422.353 8.428C421.784 7.96133 421.499 7.30333 421.499 6.454C421.499 5.81 421.69 5.25467 422.073 4.788C422.465 4.312 423.016 3.948 423.725 3.696C424.434 3.43467 425.265 3.304 426.217 3.304C427.16 3.304 427.995 3.444 428.723 3.724C429.451 4.004 430.03 4.396 430.459 4.9C430.898 5.39467 431.136 5.978 431.173 6.65H429.297C429.25 6.27667 429.092 5.95467 428.821 5.684C428.56 5.41333 428.205 5.20333 427.757 5.054C427.309 4.89533 426.782 4.816 426.175 4.816C425.316 4.816 424.63 4.956 424.117 5.236C423.604 5.516 423.347 5.89867 423.347 6.384C423.347 6.75733 423.496 7.04667 423.795 7.252C424.103 7.448 424.635 7.59733 425.391 7.7L427.687 8.022C428.63 8.15267 429.372 8.33 429.913 8.554C430.464 8.76867 430.856 9.06267 431.089 9.436C431.322 9.8 431.439 10.2713 431.439 10.85C431.439 11.522 431.234 12.11 430.823 12.614C430.412 13.118 429.834 13.51 429.087 13.79C428.35 14.0607 427.486 14.196 426.497 14.196C425.489 14.196 424.598 14.0467 423.823 13.748C423.058 13.44 422.451 13.0153 422.003 12.474C421.555 11.9327 421.312 11.3027 421.275 10.584ZM433.577 3.5H435.425V14H433.577V3.5ZM443.655 14.196C442.46 14.196 441.41 13.9673 440.505 13.51C439.599 13.0527 438.895 12.418 438.391 11.606C437.887 10.7847 437.635 9.83267 437.635 8.75C437.635 7.66733 437.887 6.72 438.391 5.908C438.895 5.08667 439.599 4.44733 440.505 3.99C441.41 3.53267 442.46 3.304 443.655 3.304C444.849 3.304 445.899 3.53267 446.805 3.99C447.71 4.44733 448.415 5.08667 448.919 5.908C449.423 6.72 449.675 7.66733 449.675 8.75C449.675 9.83267 449.423 10.7847 448.919 11.606C448.415 12.418 447.71 13.0527 446.805 13.51C445.899 13.9673 444.849 14.196 443.655 14.196ZM443.655 12.544C444.504 12.544 445.237 12.39 445.853 12.082C446.469 11.774 446.945 11.3353 447.281 10.766C447.626 10.1967 447.799 9.52467 447.799 8.75C447.799 7.97533 447.626 7.30333 447.281 6.734C446.945 6.16467 446.469 5.726 445.853 5.418C445.237 5.11 444.504 4.956 443.655 4.956C442.815 4.956 442.082 5.11 441.457 5.418C440.841 5.726 440.36 6.16467 440.015 6.734C439.679 7.30333 439.511 7.97533 439.511 8.75C439.511 9.52467 439.679 10.1967 440.015 10.766C440.36 11.3353 440.841 11.774 441.457 12.082C442.082 12.39 442.815 12.544 443.655 12.544ZM461.62 12.88L460.864 12.964V3.5H462.656V14H460.304L452.94 4.536L453.682 4.452V14H451.89V3.5H454.298L461.62 12.88Z" fill="#2C9382"/>
<path d="M433.432 64.5342C421.284 64.5342 409.136 59.9136 399.895 50.6724L398.08 48.8578L399.895 47.0432C418.377 28.5608 448.47 28.5608 466.969 47.0432L468.783 48.8578L466.969 50.6724C457.711 59.9136 445.563 64.5342 433.432 64.5342ZM405.439 48.8578C421.368 62.9212 445.462 62.9212 461.391 48.8578C445.462 34.7944 421.385 34.7944 405.439 48.8578Z" fill="#9CB148"/>
<path d="M434.056 61.0392C441.238 61.0392 447.06 55.2168 447.06 48.0344C447.06 40.852 441.238 35.0295 434.056 35.0295C426.873 35.0295 421.051 40.852 421.051 48.0344C421.051 55.2168 426.873 61.0392 434.056 61.0392Z" fill="#9CB148"/>
<path d="M408.688 56.3344L384.225 79.8069" stroke="#90A4C6" stroke-width="0.75" stroke-miterlimit="10"/>
<path d="M210 396.899H564V370.899C530.839 375.676 498.552 378.873 465.071 379.759C380.003 381.954 293.083 379.085 210 396.899Z" fill="#A4CB96"/>
<path d="M139.948 339.471C140.645 339.471 141.211 340.037 141.211 340.734C141.211 341.43 140.645 341.996 139.948 341.996C139.252 341.996 138.686 341.43 138.686 340.734C138.693 340.037 139.259 339.471 139.948 339.471ZM139.948 328.666C140.645 328.666 141.211 329.232 141.211 329.928C141.211 330.625 140.645 331.191 139.948 331.191C139.252 331.191 138.686 330.632 138.686 329.928C138.693 329.224 139.259 328.666 139.948 328.666ZM139.948 317.853C140.645 317.853 141.211 318.419 141.211 319.115C141.211 319.812 140.645 320.378 139.948 320.378C139.252 320.378 138.686 319.812 138.686 319.115C138.693 318.419 139.259 317.853 139.948 317.853Z" fill="#E4E4E4"/>
<path d="M129.368 339.529C130.065 339.529 130.631 340.095 130.631 340.792C130.631 341.488 130.065 342.054 129.368 342.054C128.671 342.054 128.105 341.488 128.105 340.792C128.105 340.095 128.671 339.529 129.368 339.529ZM129.368 328.724C130.065 328.724 130.631 329.29 130.631 329.986C130.631 330.683 130.065 331.249 129.368 331.249C128.671 331.249 128.105 330.683 128.105 329.986C128.105 329.29 128.671 328.724 129.368 328.724ZM129.368 317.918C130.065 317.918 130.631 318.484 130.631 319.181C130.631 319.877 130.065 320.443 129.368 320.443C128.671 320.443 128.105 319.877 128.105 319.181C128.105 318.484 128.671 317.918 129.368 317.918Z" fill="#E4E4E4"/>
<path d="M118.78 339.594C119.477 339.594 120.043 340.16 120.043 340.857C120.043 341.554 119.477 342.12 118.78 342.12C118.084 342.12 117.518 341.554 117.518 340.857C117.525 340.16 118.084 339.594 118.78 339.594ZM118.78 328.782C119.477 328.782 120.043 329.348 120.043 330.044C120.043 330.741 119.477 331.307 118.78 331.307C118.084 331.307 117.518 330.741 117.518 330.044C117.525 329.348 118.084 328.782 118.78 328.782ZM118.78 317.976C119.477 317.976 120.043 318.542 120.043 319.239C120.043 319.935 119.477 320.501 118.78 320.501C118.084 320.501 117.518 319.935 117.518 319.239C117.525 318.542 118.084 317.976 118.78 317.976Z" fill="#E4E4E4"/>
<path d="M244.871 289.894C245.53 289.894 246.063 290.427 246.063 291.087C246.063 291.746 245.53 292.279 244.871 292.279C244.211 292.279 243.678 291.746 243.678 291.087C243.678 290.436 244.211 289.894 244.871 289.894ZM244.871 279.664C245.53 279.664 246.063 280.197 246.063 280.857C246.063 281.517 245.53 282.05 244.871 282.05C244.211 282.05 243.678 281.517 243.678 280.857C243.678 280.197 244.211 279.664 244.871 279.664ZM244.871 269.435C245.53 269.435 246.063 269.968 246.063 270.627C246.063 271.287 245.53 271.82 244.871 271.82C244.211 271.82 243.678 271.287 243.678 270.627C243.678 269.968 244.211 269.435 244.871 269.435Z" fill="white"/>
<path d="M234.847 289.957C235.507 289.957 236.04 290.49 236.04 291.15C236.04 291.81 235.507 292.343 234.847 292.343C234.187 292.343 233.654 291.81 233.654 291.15C233.654 290.49 234.187 289.957 234.847 289.957ZM234.847 279.727C235.507 279.727 236.04 280.261 236.04 280.92C236.04 281.58 235.507 282.113 234.847 282.113C234.187 282.113 233.654 281.58 233.654 280.92C233.654 280.261 234.187 279.727 234.847 279.727ZM234.847 269.489C235.507 269.489 236.04 270.022 236.04 270.682C236.04 271.341 235.507 271.875 234.847 271.875C234.187 271.875 233.654 271.341 233.654 270.682C233.654 270.031 234.187 269.489 234.847 269.489Z" fill="white"/>
<path d="M224.828 290.011C225.487 290.011 226.02 290.544 226.02 291.204C226.02 291.864 225.487 292.397 224.828 292.397C224.168 292.397 223.635 291.864 223.635 291.204C223.635 290.553 224.168 290.011 224.828 290.011ZM224.828 279.782C225.487 279.782 226.02 280.315 226.02 280.974C226.02 281.634 225.487 282.167 224.828 282.167C224.168 282.167 223.635 281.634 223.635 280.974C223.635 280.315 224.168 279.782 224.828 279.782ZM224.828 269.552C225.487 269.552 226.02 270.085 226.02 270.745C226.02 271.405 225.487 271.938 224.828 271.938C224.168 271.938 223.635 271.405 223.635 270.745C223.635 270.085 224.168 269.552 224.828 269.552Z" fill="white"/>
<path d="M264.869 289.894C265.528 289.894 266.061 290.427 266.061 291.087C266.061 291.746 265.528 292.279 264.869 292.279C264.209 292.279 263.676 291.746 263.676 291.087C263.676 290.436 264.209 289.894 264.869 289.894ZM264.869 279.664C265.528 279.664 266.061 280.197 266.061 280.857C266.061 281.517 265.528 282.05 264.869 282.05C264.209 282.05 263.676 281.517 263.676 280.857C263.676 280.197 264.209 279.664 264.869 279.664ZM264.869 269.435C265.528 269.435 266.061 269.968 266.061 270.627C266.061 271.287 265.528 271.82 264.869 271.82C264.209 271.82 263.676 271.287 263.676 270.627C263.676 269.968 264.209 269.435 264.869 269.435Z" fill="white"/>
<path d="M254.847 289.957C255.507 289.957 256.04 290.49 256.04 291.15C256.04 291.809 255.507 292.343 254.847 292.343C254.187 292.343 253.654 291.809 253.654 291.15C253.654 290.49 254.187 289.957 254.847 289.957ZM254.847 279.727C255.507 279.727 256.04 280.261 256.04 280.92C256.04 281.58 255.507 282.113 254.847 282.113C254.187 282.113 253.654 281.58 253.654 280.92C253.654 280.261 254.187 279.727 254.847 279.727ZM254.847 269.489C255.507 269.489 256.04 270.022 256.04 270.682C256.04 271.341 255.507 271.874 254.847 271.874C254.187 271.874 253.654 271.341 253.654 270.682C253.654 270.031 254.187 269.489 254.847 269.489Z" fill="white"/>
<path d="M244.826 290.011C245.485 290.011 246.018 290.544 246.018 291.204C246.018 291.864 245.485 292.397 244.826 292.397C244.166 292.397 243.633 291.864 243.633 291.204C243.633 290.553 244.166 290.011 244.826 290.011ZM244.826 279.782C245.485 279.782 246.018 280.315 246.018 280.974C246.018 281.634 245.485 282.167 244.826 282.167C244.166 282.167 243.633 281.634 243.633 280.974C243.633 280.315 244.166 279.782 244.826 279.782ZM244.826 269.552C245.485 269.552 246.018 270.085 246.018 270.745C246.018 271.405 245.485 271.938 244.826 271.938C244.166 271.938 243.633 271.405 243.633 270.745C243.633 270.085 244.166 269.552 244.826 269.552Z" fill="white"/>
<defs>
<filter id="filter0_d_568_4" x="0" y="36.8994" width="569" height="367" filterUnits="userSpaceOnUse" color-interpolation-filters="sRGB">
<feFlood flood-opacity="0" result="BackgroundImageFix"/>
<feColorMatrix in="SourceAlpha" type="matrix" values="0 0 0 0 0 0 0 0 0 0 0 0 0 0 0 0 0 0 127 0" result="hardAlpha"/>
<feOffset dy="4"/>
<feGaussianBlur stdDeviation="2"/>
<feComposite in2="hardAlpha" operator="out"/>
<feColorMatrix type="matrix" values="0 0 0 0 0 0 0 0 0 0 0 0 0 0 0 0 0 0 0.25 0"/>
<feBlend mode="normal" in2="BackgroundImageFix" result="effect1_dropShadow_568_4"/>
<feBlend mode="normal" in="SourceGraphic" in2="effect1_dropShadow_568_4" result="shape"/>
</filter>
<linearGradient id="paint0_linear_568_4" x1="328.23" y1="347.328" x2="327.801" y2="411.386" gradientUnits="userSpaceOnUse">
<stop stop-color="#F7F7FF"/>
<stop offset="1" stop-color="#DEDEE6"/>
</linearGradient>
<linearGradient id="paint1_linear_568_4" x1="262.974" y1="122.153" x2="264.615" y2="122.153" gradientUnits="userSpaceOnUse">
<stop offset="0.0979" stop-color="#3D405B"/>
<stop offset="1" stop-color="#202230"/>
</linearGradient>
<linearGradient id="paint2_linear_568_4" x1="299.849" y1="86.1077" x2="310.35" y2="86.1077" gradientUnits="userSpaceOnUse">
<stop stop-color="#F7F7FF"/>
<stop offset="1" stop-color="#DEDEE6"/>
</linearGradient>
<linearGradient id="paint3_linear_568_4" x1="309.745" y1="222.442" x2="325.218" y2="222.362" gradientUnits="userSpaceOnUse">
<stop offset="0.0979" stop-color="#3D405B"/>
<stop offset="1" stop-color="#202230"/>
</linearGradient>
<linearGradient id="paint4_linear_568_4" x1="280.597" y1="182.357" x2="301.961" y2="178.627" gradientUnits="userSpaceOnUse">
<stop offset="0.0979" stop-color="#3D405B"/>
<stop offset="1" stop-color="#202230"/>
</linearGradient>
<linearGradient id="paint5_linear_568_4" x1="319.008" y1="126.033" x2="332.196" y2="127.648" gradientUnits="userSpaceOnUse">
<stop stop-color="#F7F7FF"/>
<stop offset="1" stop-color="#DEDEE6"/>
</linearGradient>
<linearGradient id="paint6_linear_568_4" x1="306.221" y1="106.33" x2="360.154" y2="112.932" gradientUnits="userSpaceOnUse">
<stop offset="0.0979" stop-color="#3D405B"/>
<stop offset="1" stop-color="#202230"/>
</linearGradient>
<linearGradient id="paint7_linear_568_4" x1="270.152" y1="106.884" x2="274.001" y2="119.6" gradientUnits="userSpaceOnUse">
<stop stop-color="#F7F7FF"/>
<stop offset="1" stop-color="#DEDEE6"/>
</linearGradient>
<linearGradient id="paint8_linear_568_4" x1="283.014" y1="87.2274" x2="298.756" y2="139.233" gradientUnits="userSpaceOnUse">
<stop offset="0.0979" stop-color="#3D405B"/>
<stop offset="1" stop-color="#202230"/>
</linearGradient>
<linearGradient id="paint9_linear_568_4" x1="282.722" y1="222.583" x2="298.293" y2="222.503" gradientUnits="userSpaceOnUse">
<stop offset="0.0979" stop-color="#3D405B"/>
<stop offset="1" stop-color="#202230"/>
</linearGradient>
<linearGradient id="paint10_linear_568_4" x1="268.23" y1="164.071" x2="333.729" y2="189.305" gradientUnits="userSpaceOnUse">
<stop offset="0.0979" stop-color="#3D405B"/>
<stop offset="1" stop-color="#202230"/>
</linearGradient>
<linearGradient id="paint11_linear_568_4" x1="305.677" y1="83.6083" x2="305.958" y2="137.665" gradientUnits="userSpaceOnUse">
<stop offset="0.0979" stop-color="#3D405B"/>
<stop offset="1" stop-color="#202230"/>
</linearGradient>
<linearGradient id="paint12_linear_568_4" x1="310.35" y1="73.0074" x2="299.9" y2="73.0074" gradientUnits="userSpaceOnUse">
<stop offset="0.0979" stop-color="#3D405B"/>
<stop offset="1" stop-color="#202230"/>
</linearGradient>
<linearGradient id="paint13_linear_568_4" x1="264.751" y1="35.5299" x2="347.169" y2="35.5299" gradientUnits="userSpaceOnUse">
<stop stop-color="#FBC02D"/>
<stop offset="0.1609" stop-color="#FBC332"/>
<stop offset="0.3647" stop-color="#FCCA42"/>
<stop offset="0.5916" stop-color="#FDD65C"/>
<stop offset="0.8335" stop-color="#FEE780"/>
<stop offset="1" stop-color="#FFF59D"/>
</linearGradient>
<linearGradient id="paint14_linear_568_4" x1="329.627" y1="46.8717" x2="341.253" y2="46.8717" gradientUnits="userSpaceOnUse">
<stop stop-color="#FBC02D"/>
<stop offset="0.1609" stop-color="#FBC332"/>
<stop offset="0.3647" stop-color="#FCCA42"/>
<stop offset="0.5916" stop-color="#FDD65C"/>
<stop offset="0.8335" stop-color="#FEE780"/>
<stop offset="1" stop-color="#FFF59D"/>
</linearGradient>
<linearGradient id="paint15_linear_568_4" x1="340.146" y1="50.6865" x2="347.168" y2="50.6865" gradientUnits="userSpaceOnUse">
<stop stop-color="#FBC02D"/>
<stop offset="0.1609" stop-color="#FBC332"/>
<stop offset="0.3647" stop-color="#FCCA42"/>
<stop offset="0.5916" stop-color="#FDD65C"/>
<stop offset="0.8335" stop-color="#FEE780"/>
<stop offset="1" stop-color="#FFF59D"/>
</linearGradient>
<linearGradient id="paint16_linear_568_4" x1="288.644" y1="40.4868" x2="315.332" y2="40.4868" gradientUnits="userSpaceOnUse">
<stop stop-color="#FBC02D"/>
<stop offset="0.1609" stop-color="#FBC332"/>
<stop offset="0.3647" stop-color="#FCCA42"/>
<stop offset="0.5916" stop-color="#FDD65C"/>
<stop offset="0.8335" stop-color="#FEE780"/>
<stop offset="1" stop-color="#FFF59D"/>
</linearGradient>
<linearGradient id="paint17_linear_568_4" x1="355.652" y1="76.1551" x2="353.577" y2="88.8661" gradientUnits="userSpaceOnUse">
<stop offset="0.0979" stop-color="#3D405B"/>
<stop offset="1" stop-color="#202230"/>
</linearGradient>
<linearGradient id="paint18_linear_568_4" x1="362.124" y1="72.8402" x2="359.854" y2="86.4589" gradientUnits="userSpaceOnUse">
<stop offset="0.0979" stop-color="#3D405B"/>
<stop offset="1" stop-color="#202230"/>
</linearGradient>
<linearGradient id="paint19_linear_568_4" x1="374.027" y1="197.741" x2="364.399" y2="149.833" gradientUnits="userSpaceOnUse">
<stop offset="0.0979" stop-color="#3D405B"/>
<stop offset="1" stop-color="#202230"/>
</linearGradient>
<linearGradient id="paint20_linear_568_4" x1="352.072" y1="128.204" x2="360.492" y2="216.371" gradientUnits="userSpaceOnUse">
<stop offset="0.0979" stop-color="#3D405B"/>
<stop offset="1" stop-color="#202230"/>
</linearGradient>
<linearGradient id="paint21_linear_568_4" x1="359.893" y1="93.2319" x2="361.597" y2="167.58" gradientUnits="userSpaceOnUse">
<stop offset="0.0979" stop-color="#3D405B"/>
<stop offset="1" stop-color="#202230"/>
</linearGradient>
<linearGradient id="paint22_linear_568_4" x1="354.446" y1="89.2614" x2="355.901" y2="156.662" gradientUnits="userSpaceOnUse">
<stop offset="0.0979" stop-color="#3D405B"/>
<stop offset="1" stop-color="#202230"/>
</linearGradient>
<linearGradient id="paint23_linear_568_4" x1="362.431" y1="92.798" x2="363.682" y2="147.398" gradientUnits="userSpaceOnUse">
<stop stop-color="#F7F7FF"/>
<stop offset="1" stop-color="#DEDEE6"/>
</linearGradient>
<linearGradient id="paint24_linear_568_4" x1="368.929" y1="88.9488" x2="370.383" y2="156.349" gradientUnits="userSpaceOnUse">
<stop offset="0.0979" stop-color="#3D405B"/>
<stop offset="1" stop-color="#202230"/>
</linearGradient>
<linearGradient id="paint25_linear_568_4" x1="362.021" y1="72.8234" x2="359.751" y2="86.4421" gradientUnits="userSpaceOnUse">
<stop offset="0.0979" stop-color="#3D405B"/>
<stop offset="1" stop-color="#202230"/>
</linearGradient>
<linearGradient id="paint26_linear_568_4" x1="369.174" y1="83.3001" x2="367.046" y2="81.5466" gradientUnits="userSpaceOnUse">
<stop offset="0.0979" stop-color="#3D405B"/>
<stop offset="1" stop-color="#202230"/>
</linearGradient>
<linearGradient id="paint27_linear_568_4" x1="370.847" y1="77.8372" x2="381.367" y2="86.5049" gradientUnits="userSpaceOnUse">
<stop offset="0.0979" stop-color="#3D405B"/>
<stop offset="1" stop-color="#202230"/>
</linearGradient>
<linearGradient id="paint28_linear_568_4" x1="381.952" y1="80.9901" x2="385.232" y2="83.6924" gradientUnits="userSpaceOnUse">
<stop offset="0.0979" stop-color="#3D405B"/>
<stop offset="1" stop-color="#202230"/>
</linearGradient>
<linearGradient id="paint29_linear_568_4" x1="374.612" y1="88.8259" x2="376.067" y2="156.227" gradientUnits="userSpaceOnUse">
<stop offset="0.0979" stop-color="#3D405B"/>
<stop offset="1" stop-color="#202230"/>
</linearGradient>
<linearGradient id="paint30_linear_568_4" x1="373.755" y1="86.8107" x2="378.514" y2="86.8107" gradientUnits="userSpaceOnUse">
<stop stop-color="#F7F7FF"/>
<stop offset="1" stop-color="#DEDEE6"/>
</linearGradient>
<linearGradient id="paint31_linear_568_4" x1="338.508" y1="135.814" x2="343.349" y2="135.814" gradientUnits="userSpaceOnUse">
<stop stop-color="#F7F7FF"/>
<stop offset="1" stop-color="#DEDEE6"/>
</linearGradient>
<linearGradient id="paint32_linear_568_4" x1="347.503" y1="89.4113" x2="348.957" y2="156.812" gradientUnits="userSpaceOnUse">
<stop offset="0.0979" stop-color="#3D405B"/>
<stop offset="1" stop-color="#202230"/>
</linearGradient>
<linearGradient id="paint33_linear_568_4" x1="363.143" y1="212.38" x2="376.314" y2="212.38" gradientUnits="userSpaceOnUse">
<stop offset="0.0979" stop-color="#3D405B"/>
<stop offset="1" stop-color="#202230"/>
</linearGradient>
<linearGradient id="paint34_linear_568_4" x1="345.418" y1="212.38" x2="358.588" y2="212.38" gradientUnits="userSpaceOnUse">
<stop offset="0.0979" stop-color="#3D405B"/>
<stop offset="1" stop-color="#202230"/>
</linearGradient>
<linearGradient id="paint35_linear_568_4" x1="284.448" y1="223.864" x2="229.071" y2="249.857" gradientUnits="userSpaceOnUse">
<stop stop-color="#FBC02D"/>
<stop offset="0.1609" stop-color="#FBC332"/>
<stop offset="0.3647" stop-color="#FCCA42"/>
<stop offset="0.5916" stop-color="#FDD65C"/>
<stop offset="0.8335" stop-color="#FEE780"/>
<stop offset="1" stop-color="#FFF59D"/>
</linearGradient>
<linearGradient id="paint36_linear_568_4" x1="284.99" y1="226.029" x2="232.715" y2="250.567" gradientUnits="userSpaceOnUse">
<stop stop-color="#FBC02D"/>
<stop offset="0.1609" stop-color="#FBC332"/>
<stop offset="0.3647" stop-color="#FCCA42"/>
<stop offset="0.5916" stop-color="#FDD65C"/>
<stop offset="0.8335" stop-color="#FEE780"/>
<stop offset="1" stop-color="#FFF59D"/>
</linearGradient>
<linearGradient id="paint37_linear_568_4" x1="355.711" y1="223.864" x2="411.088" y2="249.857" gradientUnits="userSpaceOnUse">
<stop stop-color="#FBC02D"/>
<stop offset="0.1609" stop-color="#FBC332"/>
<stop offset="0.3647" stop-color="#FCCA42"/>
<stop offset="0.5916" stop-color="#FDD65C"/>
<stop offset="0.8335" stop-color="#FEE780"/>
<stop offset="1" stop-color="#FFF59D"/>
</linearGradient>
<linearGradient id="paint38_linear_568_4" x1="355.171" y1="226.029" x2="407.446" y2="250.567" gradientUnits="userSpaceOnUse">
<stop stop-color="#FBC02D"/>
<stop offset="0.1609" stop-color="#FBC332"/>
<stop offset="0.3647" stop-color="#FCCA42"/>
<stop offset="0.5916" stop-color="#FDD65C"/>
<stop offset="0.8335" stop-color="#FEE780"/>
<stop offset="1" stop-color="#FFF59D"/>
</linearGradient>
<linearGradient id="paint39_linear_568_4" x1="344.938" y1="312.161" x2="311.363" y2="327.921" gradientUnits="userSpaceOnUse">
<stop stop-color="#FBC02D"/>
<stop offset="0.1609" stop-color="#FBC332"/>
<stop offset="0.3647" stop-color="#FCCA42"/>
<stop offset="0.5916" stop-color="#FDD65C"/>
<stop offset="0.8335" stop-color="#FEE780"/>
<stop offset="1" stop-color="#FFF59D"/>
</linearGradient>
<linearGradient id="paint40_linear_568_4" x1="354.68" y1="307.171" x2="305.602" y2="330.981" gradientUnits="userSpaceOnUse">
<stop stop-color="#FBC02D"/>
<stop offset="0.1609" stop-color="#FBC332"/>
<stop offset="0.3647" stop-color="#FCCA42"/>
<stop offset="0.5916" stop-color="#FDD65C"/>
<stop offset="0.8335" stop-color="#FEE780"/>
<stop offset="1" stop-color="#FFF59D"/>
</linearGradient>
<linearGradient id="paint41_linear_568_4" x1="364.449" y1="230.648" x2="277.564" y2="230.648" gradientUnits="userSpaceOnUse">
<stop stop-color="#FBC02D"/>
<stop offset="0.1609" stop-color="#FBC332"/>
<stop offset="0.3647" stop-color="#FCCA42"/>
<stop offset="0.5916" stop-color="#FDD65C"/>
<stop offset="0.8335" stop-color="#FEE780"/>
<stop offset="1" stop-color="#FFF59D"/>
</linearGradient>
<linearGradient id="paint42_linear_568_4" x1="369.671" y1="234.676" x2="304.294" y2="234.676" gradientUnits="userSpaceOnUse">
<stop stop-color="#FBC02D"/>
<stop offset="0.1609" stop-color="#FBC332"/>
<stop offset="0.3647" stop-color="#FCCA42"/>
<stop offset="0.5916" stop-color="#FDD65C"/>
<stop offset="0.8335" stop-color="#FEE780"/>
<stop offset="1" stop-color="#FFF59D"/>
</linearGradient>
<linearGradient id="paint43_linear_568_4" x1="330.61" y1="243.591" x2="364.923" y2="243.591" gradientUnits="userSpaceOnUse">
<stop offset="0.0979" stop-color="#3D405B"/>
<stop offset="1" stop-color="#202230"/>
</linearGradient>
<linearGradient id="paint44_linear_568_4" x1="343.539" y1="358.238" x2="359.128" y2="358.238" gradientUnits="userSpaceOnUse">
<stop offset="0.0979" stop-color="#3D405B"/>
<stop offset="1" stop-color="#202230"/>
</linearGradient>
<linearGradient id="paint45_linear_568_4" x1="356.668" y1="348.151" x2="359.017" y2="310.988" gradientUnits="userSpaceOnUse">
<stop offset="0.0979" stop-color="#3D405B"/>
<stop offset="1" stop-color="#202230"/>
</linearGradient>
<linearGradient id="paint46_linear_568_4" x1="370.597" y1="358.238" x2="386.088" y2="358.238" gradientUnits="userSpaceOnUse">
<stop offset="0.0979" stop-color="#3D405B"/>
<stop offset="1" stop-color="#202230"/>
</linearGradient>
<linearGradient id="paint47_linear_568_4" x1="364.329" y1="313.008" x2="385.555" y2="313.008" gradientUnits="userSpaceOnUse">
<stop offset="0.0979" stop-color="#3D405B"/>
<stop offset="1" stop-color="#202230"/>
</linearGradient>
<linearGradient id="paint48_linear_568_4" x1="366.977" y1="225.52" x2="367.344" y2="260.239" gradientUnits="userSpaceOnUse">
<stop stop-color="#F7F7FF"/>
<stop offset="1" stop-color="#DEDEE6"/>
</linearGradient>
<linearGradient id="paint49_linear_568_4" x1="375.828" y1="215.024" x2="374.533" y2="301.138" gradientUnits="userSpaceOnUse">
<stop offset="0.0979" stop-color="#3D405B"/>
<stop offset="1" stop-color="#202230"/>
</linearGradient>
<linearGradient id="paint50_linear_568_4" x1="356.709" y1="214.736" x2="355.414" y2="300.851" gradientUnits="userSpaceOnUse">
<stop offset="0.0979" stop-color="#3D405B"/>
<stop offset="1" stop-color="#202230"/>
</linearGradient>
<linearGradient id="paint51_linear_568_4" x1="363.538" y1="224.36" x2="363.307" y2="276.687" gradientUnits="userSpaceOnUse">
<stop offset="0.0979" stop-color="#3D405B"/>
<stop offset="1" stop-color="#202230"/>
</linearGradient>
<linearGradient id="paint52_linear_568_4" x1="358.439" y1="210.008" x2="369.06" y2="206.174" gradientUnits="userSpaceOnUse">
<stop offset="0.0979" stop-color="#3D405B"/>
<stop offset="1" stop-color="#202230"/>
</linearGradient>
<linearGradient id="paint53_linear_568_4" x1="372.674" y1="250.709" x2="392.93" y2="250.709" gradientUnits="userSpaceOnUse">
<stop offset="0.0979" stop-color="#3D405B"/>
<stop offset="1" stop-color="#202230"/>
</linearGradient>
<linearGradient id="paint54_linear_568_4" x1="282.265" y1="222.798" x2="271.764" y2="222.798" gradientUnits="userSpaceOnUse">
<stop stop-color="#F7F7FF"/>
<stop offset="1" stop-color="#DEDEE6"/>
</linearGradient>
<linearGradient id="paint55_linear_568_4" x1="272.367" y1="357.97" x2="256.894" y2="357.89" gradientUnits="userSpaceOnUse">
<stop offset="0.0979" stop-color="#3D405B"/>
<stop offset="1" stop-color="#202230"/>
</linearGradient>
<linearGradient id="paint56_linear_568_4" x1="301.513" y1="319.047" x2="280.148" y2="315.317" gradientUnits="userSpaceOnUse">
<stop offset="0.0979" stop-color="#3D405B"/>
<stop offset="1" stop-color="#202230"/>
</linearGradient>
<linearGradient id="paint57_linear_568_4" x1="255.501" y1="220.229" x2="255.501" y2="290.231" gradientUnits="userSpaceOnUse">
<stop offset="0.0979" stop-color="#3D405B"/>
<stop offset="1" stop-color="#202230"/>
</linearGradient>
<linearGradient id="paint58_linear_568_4" x1="304.31" y1="225.587" x2="288.849" y2="276.663" gradientUnits="userSpaceOnUse">
<stop offset="0.0979" stop-color="#3D405B"/>
<stop offset="1" stop-color="#202230"/>
</linearGradient>
<linearGradient id="paint59_linear_568_4" x1="299.388" y1="358.113" x2="283.817" y2="358.032" gradientUnits="userSpaceOnUse">
<stop offset="0.0979" stop-color="#3D405B"/>
<stop offset="1" stop-color="#202230"/>
</linearGradient>
<linearGradient id="paint60_linear_568_4" x1="313.878" y1="300.761" x2="248.379" y2="325.996" gradientUnits="userSpaceOnUse">
<stop offset="0.0979" stop-color="#3D405B"/>
<stop offset="1" stop-color="#202230"/>
</linearGradient>
<linearGradient id="paint61_linear_568_4" x1="276.436" y1="220.298" x2="276.155" y2="274.355" gradientUnits="userSpaceOnUse">
<stop offset="0.0979" stop-color="#3D405B"/>
<stop offset="1" stop-color="#202230"/>
</linearGradient>
<linearGradient id="paint62_linear_568_4" x1="271.759" y1="209.698" x2="282.21" y2="209.698" gradientUnits="userSpaceOnUse">
<stop offset="0.0979" stop-color="#3D405B"/>
<stop offset="1" stop-color="#202230"/>
</linearGradient>
</defs>
</svg>
