<svg xmlns="http://www.w3.org/2000/svg" width="75" height="72" viewBox="0 0 75 72" fill="none">
  <path d="M32.9781 27.9936C34.1115 28.8661 35.2572 29.6296 36.2427 30.5506C38.6942 32.8531 40.0247 35.7131 40.4312 39.0335C40.7515 41.6753 40.0493 44.2081 39.7413 46.7893C39.5935 48.0738 39.3717 49.3342 38.6696 50.4733C37.45 52.4486 35.6637 53.5635 33.3723 53.7937C30.2432 54.1088 27.8657 52.8243 26.3011 50.1582C25.4757 48.7404 25.3402 47.1771 25.5743 45.5774C26.104 42.0268 26.6214 38.4761 27.1511 34.9132C27.3236 33.7499 27.4714 32.5986 27.6562 31.4352C27.7425 30.902 27.5207 30.696 27.0033 30.6718C21.78 30.3325 17.0741 34.1982 16.3842 39.3001C15.8791 43.0811 15.2631 46.8378 14.6965 50.6066C14.561 51.5034 14.4378 52.4001 14.3269 53.309C14.1544 54.6905 15.1769 55.8418 16.6183 55.8902C17.1726 55.9024 17.727 55.8539 18.2813 55.8539C29.8367 55.8539 41.3921 55.8296 52.9598 55.8781C54.475 55.8781 55.5468 54.9692 55.7193 53.5756C56.1997 49.7947 56.7911 46.0258 57.3454 42.257C57.8135 39.082 58.3063 35.9191 58.7868 32.744C59.2549 29.6175 59.7107 26.4788 60.1788 23.3523C60.5361 20.977 60.7948 18.5897 61.2999 16.2509C61.9035 13.403 63.7144 11.3914 66.3754 10.1674C67.0652 9.85233 67.866 9.74327 68.6298 9.56149C69.8863 9.25853 71.1429 8.96769 72.3994 8.66473C73.2987 8.44659 73.4219 8.50719 73.6437 9.37971C73.8408 10.1432 73.9886 10.9188 74.2104 11.6701C74.3828 12.2639 74.1611 12.5305 73.5821 12.6638C72.1284 12.991 70.6871 13.4273 69.2088 13.6575C66.7573 14.0574 65.4761 16.057 65.205 17.9232C64.5152 22.6615 63.813 27.3877 63.1108 32.1139C62.1992 38.3428 61.2875 44.5716 60.3636 50.8005C60.1542 52.1941 59.9817 53.5998 59.7107 54.9813C59.1317 57.8777 56.4338 59.9984 53.3417 59.9984C45.8024 59.9863 38.2753 59.9984 30.736 59.9984C26.0547 59.9984 21.3734 59.9984 16.6922 59.9984C12.5529 59.9984 9.6456 56.6295 10.2616 52.594C10.9884 47.783 11.6413 42.972 12.4051 38.1731C12.9471 34.7557 14.6595 31.9442 17.382 29.7266C19.1314 28.3087 21.1147 27.315 23.2952 26.8908C24.8844 26.5879 26.5475 26.6969 28.1859 26.6969C28.6664 26.6969 28.9497 26.6485 29.1715 26.2122C29.923 24.6853 30.9085 23.328 32.1774 22.1889C34.4934 20.1045 37.2159 18.7715 40.3696 18.4928C44.8291 18.0929 48.7713 19.3532 51.9373 22.4918C55.362 25.8971 56.6186 30.078 55.8918 34.8163C55.3128 38.6094 54.7707 42.4024 54.2163 46.1955C54.0685 47.1892 53.896 48.1829 53.7605 49.1887C53.6989 49.6371 53.4895 49.8189 53.046 49.8189C52.1221 49.8068 51.1982 49.8189 50.2742 49.8189C49.6213 49.8189 49.4735 49.6492 49.5597 48.9948C49.7445 47.6497 49.9539 46.3167 50.151 44.9836C50.73 41.0088 51.346 37.0461 51.8511 33.0591C52.2946 29.569 50.0525 25.5578 46.9234 23.8612C44.6936 22.6494 42.3284 22.1889 39.8522 22.7342C36.7231 23.4371 34.3948 25.1943 32.9781 27.9936ZM31.8447 32.3441C31.7215 32.8652 31.6107 33.253 31.5614 33.6408C31.1179 36.6583 30.6744 39.6637 30.2432 42.6811C30.0461 44.0748 29.7874 45.4684 29.7012 46.8741C29.615 48.3526 30.8099 49.5765 32.239 49.722C33.7789 49.8674 35.134 48.91 35.4173 47.3831C35.6883 45.8925 35.8608 44.3898 36.1195 42.8993C36.526 40.5968 36.3905 38.367 35.3064 36.2463C34.518 34.7072 33.4093 33.4469 31.8447 32.3441Z" fill="white"/>
  <path d="M22.3472 71.6441C19.329 71.6441 17.0376 69.3658 17.0376 66.3725C17.0376 63.5368 19.4398 61.198 22.3595 61.1859C25.3407 61.1737 27.706 63.5368 27.706 66.5301C27.706 69.3416 25.3038 71.6319 22.3472 71.6441ZM22.3718 64.6032C21.3739 64.6154 20.5116 65.4515 20.5486 66.421C20.5978 67.6207 21.3986 68.1661 22.3964 68.2388C23.3943 68.3115 24.2443 67.3784 24.2197 66.3604C24.1827 65.4152 23.3327 64.5911 22.3718 64.6032Z" fill="white"/>
  <path d="M46.1475 61.1981C48.599 61.0891 51.457 63.028 51.5679 66.3969C51.6541 68.9539 49.3505 71.4503 46.7018 71.6563C43.5604 71.8987 41.0227 69.572 40.8872 66.6757C40.764 63.7915 42.9938 61.2345 46.1475 61.1981ZM46.2707 64.6034C45.2359 64.5913 44.3858 65.4153 44.3735 66.4212C44.3612 67.3785 45.2359 68.2511 46.1967 68.2632C47.1207 68.2753 48.0446 67.4149 48.0816 66.5302C48.1309 65.5487 47.2439 64.6155 46.2707 64.6034Z" fill="white"/>
  <path d="M28.8392 22.4796C28.8022 24.3458 27.2254 25.8121 25.3282 25.7758C23.4557 25.7394 21.9651 24.1762 22.0144 22.2857C22.0513 20.4437 23.6405 18.9652 25.5007 19.0258C27.4225 19.0864 28.8761 20.577 28.8392 22.4796Z" fill="white"/>
  <path d="M45.5931 14.2755C45.5685 16.1781 44.0655 17.6081 42.1068 17.5839C40.1727 17.5596 38.7313 16.0327 38.7683 14.0695C38.8052 12.3245 40.3944 10.8097 42.1684 10.846C44.1641 10.8824 45.6177 12.3366 45.5931 14.2755Z" fill="white"/>
  <path d="M0 32.6833L0.542043 31.2412L1.36743 31.5442C0.923937 30.7928 0.837703 30.0657 1.09641 29.3507C1.24424 28.9751 1.44134 28.6721 1.70004 28.454C1.95875 28.2358 2.29136 28.0904 2.67326 28.0298C2.45151 27.6542 2.316 27.2785 2.26673 26.9271C2.21745 26.5635 2.26673 26.2121 2.38992 25.8727C2.55007 25.4365 2.78413 25.0972 3.07979 24.8669C3.37545 24.6367 3.72039 24.5034 4.12692 24.4791C4.42258 24.467 4.86607 24.564 5.43275 24.77L9.28865 26.1757L8.69733 27.739L5.24796 26.4908C4.64432 26.2727 4.23779 26.1878 4.02837 26.2363C3.74503 26.2969 3.54792 26.4787 3.43705 26.7816C3.35081 26.9998 3.35081 27.23 3.41241 27.4724C3.474 27.7147 3.62183 27.9329 3.8559 28.1147C4.08996 28.2964 4.48418 28.4903 5.05086 28.6963L7.94586 29.7506L7.35454 31.3139L4.06532 30.09C3.474 29.8718 3.09211 29.7628 2.895 29.7628C2.6979 29.7628 2.55007 29.7991 2.41456 29.8839C2.29136 29.9688 2.18049 30.1142 2.10658 30.3202C2.02034 30.5626 1.9957 30.8049 2.0573 31.0473C2.1189 31.2897 2.25441 31.4957 2.47615 31.6775C2.6979 31.8471 3.09211 32.041 3.67111 32.2592L6.60307 33.3256L6.01175 34.8889L0 32.6833Z" fill="white"/>
  <path d="M6.80007 21.7404L5.7899 22.9159C5.33409 22.4675 5.08771 21.9828 5.05075 21.4738C5.00147 20.9648 5.18626 20.3589 5.60511 19.6439C5.98701 19.0017 6.34426 18.5654 6.6892 18.3351C7.03413 18.1049 7.35443 17.9958 7.67473 18.0079C7.99503 18.0201 8.46316 18.2018 9.10375 18.5654L10.8161 19.5591C11.3089 19.8378 11.6785 20.0196 11.9372 20.1044C12.1959 20.1893 12.4915 20.2499 12.8365 20.2741L11.9988 21.7041C11.8756 21.6919 11.7031 21.6556 11.4814 21.595C11.3828 21.5708 11.3089 21.5586 11.2842 21.5465C11.3828 21.9343 11.4074 22.2979 11.3705 22.6493C11.3212 23.0007 11.2103 23.3401 11.0255 23.6551C10.6929 24.2126 10.2741 24.5761 9.78131 24.7216C9.27622 24.867 8.79578 24.8064 8.31533 24.5398C7.99503 24.358 7.76097 24.1277 7.60082 23.8369C7.44067 23.5461 7.37907 23.231 7.40371 22.8917C7.42835 22.5524 7.53922 22.104 7.73633 21.5465C8.00735 20.7952 8.15518 20.262 8.20446 19.9348L8.05663 19.8499C7.77328 19.6924 7.5269 19.6439 7.32979 19.7166C7.13269 19.7894 6.91094 20.0075 6.6892 20.3953C6.54137 20.6498 6.46745 20.88 6.49209 21.086C6.47977 21.2799 6.59064 21.498 6.80007 21.7404ZM9.12839 20.4801C9.07912 20.6982 8.98056 21.0375 8.83273 21.4859C8.6849 21.9343 8.61099 22.2494 8.62331 22.4191C8.64795 22.6857 8.77114 22.8796 8.98056 23.0007C9.18999 23.1219 9.41173 23.1462 9.6458 23.0734C9.87986 23.0129 10.077 22.8553 10.2125 22.6251C10.3603 22.3585 10.4219 22.0676 10.3849 21.7283C10.3603 21.4738 10.2618 21.2678 10.1016 21.1103C10.0031 21.0012 9.76899 20.8437 9.41173 20.6498L9.12839 20.4801Z" fill="white"/>
  <path d="M14.463 18.2019L13.4281 19.5228L8.34033 15.6691L9.30123 14.433L10.0281 14.9784C9.85559 14.5058 9.76936 14.1543 9.79399 13.8998C9.81863 13.6454 9.91719 13.4151 10.0773 13.2091C10.3114 12.9061 10.6317 12.6759 11.0136 12.5305L11.8636 13.8271C11.5433 13.9362 11.3093 14.0937 11.1614 14.2876C11.0136 14.4694 10.9397 14.6754 10.952 14.8814C10.952 15.0874 11.0629 15.3298 11.2723 15.6085C11.4817 15.8873 12.0238 16.3599 12.8861 17.0143L14.463 18.2019Z" fill="white"/>
  <path d="M16.1995 16.0205L10.1016 9.6826L11.3335 8.53135L14.5734 11.9003L14.4625 8.94337L15.9778 7.5134L15.9901 10.6763L20.5113 11.9972L19.1808 13.2333L16.0271 12.2638V13.3908L17.4438 14.8572L16.1995 16.0205Z" fill="white"/>
  <path d="M23.1354 8.09508L24.7369 7.47704C24.8724 8.1072 24.8231 8.68889 24.589 9.19786C24.355 9.70684 23.9361 10.1431 23.3325 10.5067C22.3716 11.0762 21.4846 11.1853 20.6469 10.846C19.9817 10.5672 19.415 10.0583 18.9592 9.30693C18.4048 8.41016 18.22 7.56187 18.3802 6.77418C18.5403 5.98648 18.9961 5.36844 19.723 4.94429C20.536 4.45956 21.3491 4.33837 22.1498 4.59286C22.9506 4.84735 23.6774 5.52598 24.3303 6.62876L20.6839 8.79795C20.9549 9.2221 21.2752 9.47658 21.6447 9.58565C22.0143 9.69472 22.3716 9.64624 22.7042 9.44023C22.9383 9.30693 23.0861 9.12515 23.1723 8.91914C23.2339 8.67677 23.2216 8.41016 23.1354 8.09508ZM22.3346 6.5924C22.0759 6.18037 21.7679 5.938 21.423 5.84106C21.0781 5.74411 20.7701 5.79258 20.4621 5.96224C20.1418 6.15614 19.957 6.42274 19.8831 6.77418C19.8215 7.12561 19.9077 7.48916 20.1418 7.88907L22.3346 6.5924Z" fill="white"/>
  <path d="M27.2254 1.69658L27.6935 2.94478L26.6094 3.34469L27.5087 5.73202C27.6935 6.21675 27.8044 6.49548 27.8537 6.56819C27.903 6.6409 27.9769 6.68937 28.0754 6.71361C28.174 6.73784 28.2725 6.73784 28.3711 6.68937C28.5189 6.6409 28.716 6.50759 28.9501 6.30158L29.5414 7.46495C29.2334 7.75579 28.8392 7.98604 28.3711 8.1557C28.0877 8.26477 27.8044 8.31324 27.5457 8.30112C27.2747 8.289 27.0652 8.22841 26.9051 8.11935C26.7449 8.01028 26.5848 7.8285 26.4493 7.58613C26.3507 7.41648 26.1906 7.05292 25.9812 6.49548L25.0079 3.92637L24.2811 4.19298L23.813 2.94478L24.5398 2.67817L24.0963 1.50268L25.3406 0L26.129 2.09649L27.2254 1.69658Z" fill="white"/>
  <path d="M33.0894 0.193324H34.6539V1.05373C35.2082 0.387219 35.8858 0.0479032 36.6496 0.0479032C37.0561 0.0479032 37.4134 0.132732 37.7214 0.290272C38.0293 0.447811 38.2757 0.702298 38.4728 1.04161C38.7562 0.702298 39.0642 0.447811 39.3844 0.278153C39.7047 0.108495 40.062 0.0236664 40.4316 0.0236664C40.8997 0.0236664 41.3062 0.120614 41.6265 0.30239C41.9592 0.484167 42.1932 0.76289 42.3657 1.12644C42.4889 1.39305 42.5382 1.82931 42.5382 2.43523L42.5505 6.48279H40.8504L40.8381 2.8715C40.8381 2.24134 40.7765 1.84143 40.6656 1.65965C40.5055 1.41729 40.2714 1.30822 39.9388 1.30822C39.7047 1.30822 39.483 1.38093 39.2736 1.52635C39.0641 1.67177 38.9163 1.87779 38.8178 2.15651C38.7315 2.43523 38.6823 2.8715 38.6823 3.4653L38.6946 6.49491H36.9945L36.9822 3.02904C36.9822 2.411 36.9453 2.02321 36.8837 1.84143C36.8221 1.65965 36.7235 1.52635 36.6003 1.44152C36.4771 1.35669 36.3047 1.30822 36.0829 1.30822C35.8242 1.30822 35.5901 1.38093 35.3807 1.51423C35.1713 1.65965 35.0235 1.85355 34.9372 2.12015C34.851 2.38676 34.8017 2.8109 34.8017 3.42894L34.814 6.49491H33.114L33.0894 0.193324Z" fill="white"/>
  <path d="M44.1147 3.62325C44.2379 3.07792 44.4966 2.59318 44.8908 2.1448C45.2851 1.69642 45.7532 1.40558 46.3199 1.24804C46.8742 1.0905 47.4656 1.0905 48.0815 1.2238C49.0301 1.44193 49.7323 1.91455 50.2004 2.65377C50.6685 3.393 50.7917 4.22917 50.57 5.15017C50.3482 6.08329 49.8678 6.78616 49.1163 7.25878C48.3649 7.7314 47.5148 7.8647 46.5909 7.65869C46.0119 7.52538 45.4945 7.28301 45.0387 6.90734C44.5829 6.53167 44.2749 6.07117 44.1147 5.51372C43.9546 4.96839 43.9546 4.33824 44.1147 3.62325ZM45.8025 4.09587C45.6546 4.70179 45.6916 5.21076 45.9133 5.59855C46.1351 5.98634 46.4554 6.22871 46.8866 6.33778C47.3177 6.43472 47.7243 6.3499 48.0938 6.09541C48.4634 5.84092 48.7221 5.39254 48.8699 4.7745C49.0054 4.16858 48.9685 3.67172 48.7591 3.28393C48.5373 2.89614 48.217 2.65377 47.7858 2.54471C47.3547 2.44776 46.9481 2.53259 46.5786 2.78708C46.1967 3.05368 45.938 3.48995 45.8025 4.09587Z" fill="white"/>
  <path d="M53.5884 4.94444L52.2456 4.15674C52.6275 3.64777 53.071 3.32057 53.5638 3.19939C54.0689 3.06608 54.7095 3.15091 55.4856 3.44176C56.2001 3.70836 56.6929 3.97497 56.9762 4.27793C57.2595 4.56877 57.432 4.87173 57.469 5.17469C57.5182 5.47765 57.4074 5.97451 57.1487 6.65314L56.4342 8.4709C56.2371 8.99199 56.1139 9.37978 56.0769 9.64639C56.0399 9.91299 56.0276 10.216 56.0646 10.5432L54.4877 9.96147C54.4877 9.84028 54.4877 9.67063 54.5124 9.44038C54.5247 9.34343 54.5247 9.27072 54.5247 9.23436C54.1551 9.3919 53.7855 9.48885 53.4283 9.50097C53.071 9.51309 52.7138 9.46461 52.3565 9.33131C51.7406 9.10106 51.3094 8.76174 51.0753 8.30124C50.8413 7.84074 50.8289 7.35601 51.0137 6.84703C51.1369 6.50772 51.334 6.24111 51.5927 6.04722C51.8514 5.8412 52.1594 5.73214 52.5043 5.69578C52.8493 5.65943 53.3174 5.69578 53.9087 5.79273C54.7095 5.92603 55.2638 5.98662 55.5965 5.97451L55.658 5.81697C55.7689 5.51401 55.7812 5.27164 55.6704 5.08986C55.5718 4.90808 55.3008 4.73843 54.8819 4.58089C54.5986 4.47182 54.3522 4.44758 54.1551 4.49606C53.995 4.56877 53.7979 4.71419 53.5884 4.94444ZM55.2392 7.00457C55.0051 6.99245 54.6602 6.9561 54.1797 6.88339C53.6993 6.81068 53.379 6.79856 53.2065 6.83491C52.9478 6.90763 52.7754 7.05305 52.6891 7.27118C52.6029 7.48931 52.6152 7.70744 52.7261 7.92557C52.837 8.1437 53.0094 8.30124 53.2681 8.39819C53.5515 8.50726 53.8595 8.50726 54.1921 8.42243C54.4385 8.34972 54.6356 8.22853 54.7711 8.04676C54.8573 7.92557 54.9805 7.6832 55.1283 7.30753L55.2392 7.00457Z" fill="white"/>
</svg>
