<svg width="54" height="64" viewBox="0 0 54 64" fill="none" xmlns="http://www.w3.org/2000/svg">
<g clip-path="url(#clip0_216_2896)">
<path d="M54 0H0V64H54V0Z" fill="#F4F7FC"/>
<path d="M54 0H0V53.3333H54V0Z" fill="#CBD0E4"/>
<path d="M48.5984 5.33331H5.39844V48H48.5984V5.33331Z" fill="white"/>
<path d="M13.6359 17.056C13.1985 17.776 12.6585 18.432 12.2481 19.1786C11.8431 19.92 11.4975 20.6933 11.2113 21.4933C10.6335 23.1253 10.3365 24.8426 10.2771 26.5653C10.1691 29.8026 11.2221 33.2746 13.0203 35.9733C14.9373 38.8533 17.8695 41.04 21.2013 42.064C22.9239 42.592 24.7869 42.8533 26.5851 42.608C29.9277 42.1493 33.3729 40.2933 35.3169 37.536C36.2889 36.1546 36.9153 34.5173 36.9477 32.8213C36.9531 32.6293 36.9477 32.4426 36.9315 32.2506C36.8289 30.8 36.2403 29.104 35.0577 28.1653C33.7509 27.1306 32.0013 26.8213 30.3651 26.992C30.2139 27.008 30.0033 27.0026 29.8629 27.056C28.0917 27.76 27.1683 29.0506 26.9739 30.8373C26.8551 31.9306 26.8767 32.928 26.3313 33.9253C24.6033 37.0826 20.4615 37.232 17.5239 35.8293C17.1837 35.6693 16.8543 35.4826 16.5411 35.28C13.2525 33.1733 11.5137 29.936 11.0493 25.7706C10.8495 23.0133 11.7837 20.1013 13.6359 17.056Z" fill="#EF3026"/>
<path d="M43.7239 26.768C43.6105 22.3093 42.1309 18.2026 38.1781 14.72C34.2847 11.2906 28.8469 9.82398 23.7493 11.072C19.2457 12.176 15.5305 15.7173 14.1373 20.0746C12.7819 24.3146 13.6081 29.3973 17.3935 32.1546C19.8505 33.9466 25.4503 34.8906 26.7355 31.152C27.1729 29.8773 26.4709 28.6186 25.4449 27.8506C24.3595 27.04 22.8799 27.008 21.8269 26.1333C19.9639 24.5866 19.9153 21.9946 20.5471 19.8453C21.2113 17.6 22.9339 15.744 25.0345 14.704C27.2971 13.5786 30.2456 13.5093 32.6917 14.0053C37.6868 15.0186 41.5154 18.7893 43.0166 23.536C43.3514 24.592 43.5835 25.6746 43.7239 26.768Z" fill="#0167B2"/>
<path d="M7.78075 57.296V59.088C7.78075 59.2907 7.73755 59.4667 7.65115 59.616C7.56475 59.7653 7.44055 59.8773 7.27315 59.9573C7.11115 60.0373 6.91675 60.0747 6.68995 60.0747C6.34975 60.0747 6.08515 59.9893 5.89075 59.8133C5.69635 59.6373 5.59915 59.4027 5.59375 59.104V57.3013H6.26335V59.12C6.26875 59.4187 6.41455 59.568 6.68455 59.568C6.82495 59.568 6.92755 59.5307 6.99775 59.456C7.06795 59.3813 7.10575 59.2587 7.10575 59.088V57.3013H7.78075V57.296Z" fill="#0167B2"/>
<path d="M9.62827 59.3067C9.62827 59.2107 9.59587 59.136 9.52567 59.0827C9.45547 59.0293 9.33667 58.9707 9.16387 58.9173C8.99107 58.8587 8.85067 58.8053 8.73727 58.752C8.37547 58.576 8.19727 58.336 8.19727 58.032C8.19727 57.8827 8.24047 57.744 8.33227 57.632C8.42407 57.5147 8.54827 57.424 8.71027 57.36C8.87227 57.296 9.05587 57.264 9.26107 57.264C9.46087 57.264 9.63907 57.3013 9.79567 57.3707C9.95227 57.44 10.0765 57.5413 10.1629 57.6693C10.2493 57.7973 10.2925 57.9467 10.2925 58.112H9.62827C9.62827 58 9.59587 57.9147 9.52567 57.8507C9.45547 57.7867 9.36367 57.76 9.24487 57.76C9.12607 57.76 9.02887 57.7867 8.96407 57.84C8.89927 57.8933 8.86147 57.9573 8.86147 58.0373C8.86147 58.1067 8.89927 58.1707 8.97487 58.2293C9.05047 58.288 9.18547 58.3467 9.37447 58.4053C9.56347 58.464 9.72547 58.5333 9.84427 58.6027C10.1413 58.7733 10.2925 59.008 10.2925 59.3067C10.2925 59.5467 10.2007 59.7333 10.0171 59.872C9.83347 60.0107 9.58507 60.0747 9.26647 60.0747C9.03967 60.0747 8.83987 60.0373 8.65627 59.9573C8.47267 59.8773 8.33767 59.7707 8.24587 59.632C8.15407 59.4933 8.10547 59.3333 8.10547 59.152H8.77507C8.77507 59.3013 8.81287 59.408 8.88847 59.4773C8.96407 59.5467 9.08827 59.584 9.26107 59.584C9.36907 59.584 9.46087 59.5627 9.52027 59.5147C9.59587 59.4613 9.62827 59.392 9.62827 59.3067Z" fill="#0167B2"/>
<path d="M12.0697 59.3067C12.0697 59.2107 12.0373 59.136 11.9671 59.0827C11.8969 59.0293 11.7781 58.9707 11.6053 58.9173C11.4325 58.8587 11.2921 58.8053 11.1787 58.752C10.8169 58.576 10.6387 58.336 10.6387 58.032C10.6387 57.8827 10.6819 57.744 10.7737 57.632C10.8655 57.5147 10.9897 57.424 11.1517 57.36C11.3137 57.296 11.4973 57.264 11.7025 57.264C11.9023 57.264 12.0805 57.3013 12.2371 57.3707C12.3937 57.44 12.5179 57.5413 12.6043 57.6693C12.6907 57.7973 12.7339 57.9467 12.7339 58.112H12.0697C12.0697 58 12.0373 57.9147 11.9671 57.8507C11.8969 57.7867 11.8051 57.76 11.6863 57.76C11.5675 57.76 11.4703 57.7867 11.4055 57.84C11.3407 57.8933 11.3029 57.9573 11.3029 58.0373C11.3029 58.1067 11.3407 58.1707 11.4163 58.2293C11.4919 58.288 11.6269 58.3467 11.8159 58.4053C12.0049 58.464 12.1669 58.5333 12.2857 58.6027C12.5827 58.7733 12.7339 59.008 12.7339 59.3067C12.7339 59.5467 12.6421 59.7333 12.4585 59.872C12.2749 60.0107 12.0265 60.0747 11.7079 60.0747C11.4811 60.0747 11.2813 60.0373 11.0977 59.9573C10.9141 59.8773 10.7791 59.7707 10.6873 59.632C10.5955 59.4933 10.5469 59.3333 10.5469 59.152H11.2165C11.2165 59.3013 11.2543 59.408 11.3299 59.4773C11.4055 59.5467 11.5297 59.584 11.7025 59.584C11.8105 59.584 11.9023 59.5627 11.9617 59.5147C12.0373 59.4613 12.0697 59.392 12.0697 59.3067Z" fill="#0167B2"/>
<path d="M15.3947 60.0373H14.7305V58.896H13.7477V60.0373H13.0781V57.3013H13.7477V58.3893H14.7305V57.3013H15.3947V60.0373Z" fill="#0167B2"/>
<path d="M17.7341 59.0187L17.4587 59.3173V60.0373H16.7891V57.3013H17.4587V58.5067L17.6909 58.16L18.2903 57.3013H19.1165L18.1823 58.512L19.1165 60.0373H18.3227L17.7341 59.0187Z" fill="#0167B2"/>
<path d="M21.573 58.7253C21.573 58.992 21.5244 59.2267 21.4218 59.4347C21.3192 59.6427 21.1788 59.7973 20.9952 59.9093C20.8116 60.0213 20.601 60.0747 20.3634 60.0747C20.1258 60.0747 19.9206 60.0213 19.737 59.9147C19.5534 59.808 19.413 59.6533 19.3104 59.456C19.2078 59.2587 19.1538 59.0293 19.1484 58.768V58.6133C19.1484 58.3467 19.197 58.1067 19.2996 57.904C19.3968 57.7013 19.5426 57.5413 19.7262 57.4293C19.9098 57.3173 20.1258 57.264 20.358 57.264C20.5902 57.264 20.8008 57.3173 20.9844 57.4293C21.168 57.5413 21.3138 57.696 21.411 57.8987C21.5136 58.1013 21.5676 58.336 21.5676 58.5973V58.7253H21.573ZM20.8926 58.608C20.8926 58.336 20.8494 58.128 20.7522 57.9893C20.6604 57.8507 20.5308 57.776 20.358 57.776C20.0232 57.776 19.845 58.0267 19.8288 58.5227V58.7253C19.8288 58.992 19.872 59.2 19.9638 59.344C20.0556 59.488 20.1906 59.5627 20.3634 59.5627C20.5308 59.5627 20.6604 59.4933 20.7522 59.3493C20.844 59.2053 20.8872 59.0027 20.8926 58.736V58.608Z" fill="#0167B2"/>
<path d="M22.9455 59.0667H22.5837V60.0373H21.9141V57.3013H23.0049C23.3343 57.3013 23.5881 57.3707 23.7771 57.5147C23.9607 57.6587 24.0525 57.8613 24.0525 58.1227C24.0525 58.3147 24.0147 58.4693 23.9337 58.5973C23.8581 58.72 23.7339 58.8213 23.5665 58.9013L24.1443 60.0053V60.032H23.4369L22.9455 59.0667ZM22.5837 58.56H23.0049C23.1345 58.56 23.2263 58.528 23.2911 58.4587C23.3559 58.3947 23.3883 58.2987 23.3883 58.1813C23.3883 58.064 23.3559 57.968 23.2911 57.904C23.2263 57.8347 23.1291 57.8027 23.0049 57.8027H22.5837V58.56Z" fill="#0167B2"/>
<path d="M26.1796 58.8747H25.1266V59.5307H26.3686V60.0373H24.457V57.3013H26.3686V57.8133H25.1212V58.3893H26.1742V58.8747H26.1796Z" fill="#0167B2"/>
<path d="M28.2147 59.5253H27.2967L27.1347 60.0373H26.4219L27.4371 57.3013H28.0635L29.0895 60.0373H28.3713L28.2147 59.5253ZM27.4587 59.0133H28.0527L27.7557 58.064L27.4587 59.0133Z" fill="#0167B2"/>
<path d="M31.6096 60.0373H30.9454L29.9626 58.336V60.0373H29.293V57.3013H29.9626L30.9454 59.0027V57.3013H31.6096V60.0373Z" fill="#0167B2"/>
<path d="M34.4291 59.3067C34.4291 59.2107 34.3967 59.136 34.3265 59.0827C34.2563 59.0293 34.1375 58.9707 33.9647 58.9173C33.7919 58.8587 33.6515 58.8053 33.5381 58.752C33.1763 58.576 32.9981 58.336 32.9981 58.032C32.9981 57.8827 33.0413 57.744 33.1331 57.632C33.2249 57.5147 33.3491 57.424 33.5111 57.36C33.6731 57.296 33.8567 57.264 34.0619 57.264C34.2617 57.264 34.4399 57.3013 34.5965 57.3707C34.7531 57.44 34.8773 57.5413 34.9637 57.6693C35.0501 57.7973 35.0932 57.9467 35.0932 58.112H34.4291C34.4291 58 34.3967 57.9147 34.3265 57.8507C34.2563 57.7867 34.1645 57.76 34.0457 57.76C33.9269 57.76 33.8297 57.7867 33.7649 57.84C33.7001 57.8933 33.6623 57.9573 33.6623 58.0373C33.6623 58.1067 33.7001 58.1707 33.7757 58.2293C33.8513 58.288 33.9863 58.3467 34.1753 58.4053C34.3643 58.464 34.5263 58.5333 34.6451 58.6027C34.9421 58.7733 35.0932 59.008 35.0932 59.3067C35.0932 59.5467 35.0015 59.7333 34.8179 59.872C34.6343 60.0107 34.3859 60.0747 34.0673 60.0747C33.8405 60.0747 33.6407 60.0373 33.4571 59.9573C33.2735 59.8773 33.1385 59.7707 33.0467 59.632C32.9549 59.4933 32.9062 59.3333 32.9062 59.152H33.5759C33.5759 59.3013 33.6137 59.408 33.6893 59.4773C33.7649 59.5467 33.8891 59.584 34.0619 59.584C34.1699 59.584 34.2617 59.5627 34.3211 59.5147C34.4021 59.4613 34.4291 59.392 34.4291 59.3067Z" fill="#0167B2"/>
<path d="M37.6213 57.808H36.7897V60.0373H36.1201V57.808H35.3047V57.296H37.6213V57.808Z" fill="#0167B2"/>
<path d="M40.0737 57.296V59.088C40.0737 59.2907 40.0305 59.4667 39.9441 59.616C39.8577 59.7653 39.7335 59.8773 39.5661 59.9573C39.4041 60.0373 39.2097 60.0747 38.9829 60.0747C38.6427 60.0747 38.3781 59.9893 38.1837 59.8133C37.9893 59.6373 37.8921 59.4027 37.8867 59.104V57.3013H38.5563V59.12C38.5617 59.4187 38.7075 59.568 38.9775 59.568C39.1179 59.568 39.2205 59.5307 39.2907 59.456C39.3609 59.3813 39.3987 59.2587 39.3987 59.088V57.3013H40.0737V57.296Z" fill="#0167B2"/>
<path d="M40.4883 60.0373V57.3013H41.3793C41.6223 57.3013 41.8437 57.3547 42.0381 57.4667C42.2325 57.5787 42.3837 57.7333 42.4971 57.9307C42.6051 58.1333 42.6645 58.352 42.6645 58.6027V58.7307C42.6645 58.9813 42.6105 59.2053 42.5025 59.4027C42.3945 59.6 42.2433 59.7547 42.0489 59.8667C41.8545 59.9787 41.6385 60.0373 41.3955 60.0373H40.4883ZM41.1579 57.808V59.5253H41.3901C41.5845 59.5253 41.7303 59.456 41.8329 59.3227C41.9355 59.1893 41.9895 58.9867 41.9895 58.72V58.6027C41.9895 58.336 41.9409 58.1387 41.8329 58.0053C41.7303 57.872 41.5791 57.8027 41.3847 57.8027H41.1579V57.808Z" fill="#0167B2"/>
<path d="M43.7228 60.0373H43.0586V57.3013H43.7228V60.0373Z" fill="#0167B2"/>
<path d="M45.9062 58.8747H44.8532V59.5307H46.0952V60.0373H44.1836V57.3013H46.0952V57.8133H44.8478V58.3893H45.9008V58.8747H45.9062Z" fill="#0167B2"/>
<path d="M47.8001 59.3067C47.8001 59.2107 47.7677 59.136 47.6975 59.0827C47.6273 59.0293 47.5085 58.9707 47.3357 58.9173C47.1629 58.8587 47.0225 58.8053 46.9091 58.752C46.5473 58.576 46.3691 58.336 46.3691 58.032C46.3691 57.8827 46.4123 57.744 46.5041 57.632C46.5959 57.5147 46.7201 57.424 46.8821 57.36C47.0441 57.296 47.2277 57.264 47.4329 57.264C47.6327 57.264 47.8109 57.3013 47.9675 57.3707C48.1241 57.44 48.2483 57.5413 48.3347 57.6693C48.4211 57.7973 48.4643 57.9467 48.4643 58.112H47.8001C47.8001 58 47.7677 57.9147 47.6975 57.8507C47.6273 57.7867 47.5355 57.76 47.4167 57.76C47.2979 57.76 47.2007 57.7867 47.1359 57.84C47.0711 57.8933 47.0333 57.9573 47.0333 58.0373C47.0333 58.1067 47.0711 58.1707 47.1467 58.2293C47.2223 58.288 47.3573 58.3467 47.5463 58.4053C47.7353 58.464 47.8973 58.5333 48.0161 58.6027C48.3131 58.7733 48.4643 59.008 48.4643 59.3067C48.4643 59.5467 48.3725 59.7333 48.1889 59.872C48.0053 60.0107 47.7569 60.0747 47.4383 60.0747C47.2115 60.0747 47.0117 60.0373 46.8281 59.9573C46.6445 59.8773 46.5095 59.7707 46.4177 59.632C46.3259 59.4933 46.2773 59.3333 46.2773 59.152H46.9469C46.9469 59.3013 46.9847 59.408 47.0603 59.4773C47.1359 59.5467 47.2601 59.584 47.4329 59.584C47.5409 59.584 47.6327 59.5627 47.6921 59.5147C47.7677 59.4613 47.8001 59.392 47.8001 59.3067Z" fill="#0167B2"/>
</g>
<defs>
<clipPath id="clip0_216_2896">
<rect width="54" height="64" fill="white"/>
</clipPath>
</defs>
</svg>
