<svg width="15" height="21" viewBox="0 0 15 21" fill="none" xmlns="http://www.w3.org/2000/svg">
<path d="M0.514389 15.6769L0.51397 15.6734C0.505952 15.6063 0.50129 15.5388 0.5 15.4713V15.1324C0.5 14.5297 0.742182 13.9506 1.17522 13.5227C1.60845 13.0945 2.19729 12.8529 2.8125 12.8529H12.1875C12.8027 12.8529 13.3915 13.0945 13.8248 13.5227C14.2578 13.9506 14.5 14.5297 14.5 15.1324V15.4672C14.4975 15.5375 14.4926 15.6078 14.4854 15.6778C14.3915 16.5122 14.0878 17.3106 13.6015 18.0002C12.6886 19.2903 10.902 20.5 7.5 20.5C4.09837 20.5 2.31154 19.2894 1.39842 18.0013C0.911897 17.3111 0.608158 16.512 0.514389 15.6769ZM1.375 15.4498V15.4653L1.37595 15.4807C1.37854 15.5225 1.38224 15.5643 1.38705 15.606L1.38717 15.607C1.46775 16.2925 1.7182 16.9474 2.11583 17.5135L2.11713 17.5154C2.84373 18.5401 4.3389 19.6471 7.5 19.6471C10.6609 19.6471 12.1564 18.5402 12.8819 17.515L12.8827 17.5138C13.2808 16.9478 13.5318 16.293 13.6128 15.6073L13.6137 15.6L13.6143 15.5927L13.6231 15.4939L13.625 15.4719V15.4498V15.1324C13.625 14.7521 13.4721 14.3886 13.2019 14.1216C12.9318 13.8547 12.5669 13.7059 12.1875 13.7059H2.8125C2.43315 13.7059 2.06816 13.8547 1.79813 14.1216C1.52791 14.3886 1.375 14.7521 1.375 15.1324V15.4498ZM4.93884 2.40182C4.25837 3.07428 3.875 3.98759 3.875 4.94118C3.875 5.89476 4.25837 6.80807 4.93884 7.48053C5.6191 8.15279 6.54049 8.52941 7.5 8.52941C8.45951 8.52941 9.3809 8.15279 10.0612 7.48053C10.7416 6.80807 11.125 5.89476 11.125 4.94118C11.125 3.98759 10.7416 3.07428 10.0612 2.40182C9.3809 1.72957 8.45951 1.35294 7.5 1.35294C6.54049 1.35294 5.6191 1.72957 4.93884 2.40182ZM4.31592 1.80288C5.15939 0.969328 6.30463 0.5 7.5 0.5C8.69537 0.5 9.84061 0.969328 10.6841 1.80288C11.5273 2.63623 12 3.76523 12 4.94118C12 6.11713 11.5273 7.24613 10.6841 8.07948C9.84061 8.91302 8.69537 9.38235 7.5 9.38235C6.30463 9.38235 5.15939 8.91302 4.31592 8.07948C3.47265 7.24613 3 6.11713 3 4.94118C3 3.76523 3.47265 2.63623 4.31592 1.80288ZM2.525 17.2262C2.17487 16.7276 1.95461 16.1514 1.88375 15.5486L1.875 15.1324C1.875 14.8866 1.97377 14.651 2.14959 14.4772C2.3254 14.3035 2.56386 14.2059 2.8125 14.2059H12.1875C12.4361 14.2059 12.6746 14.3035 12.8504 14.4772C13.0262 14.651 13.125 14.8866 13.125 15.1324V15.4498L13.1162 15.5486C13.045 16.1515 12.8243 16.7278 12.4738 17.2262C11.8575 18.0971 10.5275 19.1471 7.5 19.1471C4.4725 19.1471 3.1425 18.0971 2.525 17.2262Z" fill="#F45538" stroke="#F45538"/>
</svg>
