<svg width="22" height="22" viewBox="0 0 22 22" fill="none" xmlns="http://www.w3.org/2000/svg">
<path d="M1.80628 9.6716L1.72423 10.2427H2.3012H3.3C3.45913 10.2427 3.61174 10.3059 3.72426 10.4184C3.83679 10.531 3.9 10.6836 3.9 10.8427V16.5C3.9 16.6591 3.83679 16.8117 3.72426 16.9243C3.61174 17.0368 3.45913 17.1 3.3 17.1H2.2C1.22729 17.1 0.5 16.3733 0.5 15.5573V11C0.5 5.21074 5.21074 0.5 11 0.5C16.7893 0.5 21.5 5.21074 21.5 11V15.5573C21.5 16.3733 20.7727 17.1 19.8 17.1H19.3V17.6C19.3 19.7505 17.5505 21.5 15.4 21.5H9.3V19.2H12.7V19.8V20.3H13.2H15.4C16.8894 20.3 18.1 19.0894 18.1 17.6V10.8427C18.1 10.6836 18.1632 10.531 18.2757 10.4184C18.3883 10.3059 18.5409 10.2427 18.7 10.2427H19.6988H20.2758L20.1937 9.6716C19.5474 5.17311 15.6776 1.7 11 1.7C6.32245 1.7 2.45258 5.17311 1.80628 9.6716Z" fill="#F45538" stroke="#F45538"/>
</svg>
