<svg width="22" height="21" viewBox="0 0 22 21" fill="none" xmlns="http://www.w3.org/2000/svg">
<path d="M1.6 6.6V6.1H1.1C0.768628 6.1 0.5 5.83137 0.5 5.5V2C0.5 1.17157 1.17157 0.5 2 0.5H20C20.8284 0.5 21.5 1.17157 21.5 2V5.5C21.5 5.83137 21.2314 6.1 20.9 6.1H20.4V6.6V18.7C20.4 19.1509 20.2209 19.5833 19.9021 19.9021C19.5833 20.2209 19.1509 20.4 18.7 20.4H3.3C2.84913 20.4 2.41673 20.2209 2.09792 19.9021C1.77911 19.5833 1.6 19.1509 1.6 18.7V6.6ZM20 5H20.5V4.5V2.5C20.5 1.94772 20.0523 1.5 19.5 1.5H2.5C1.94772 1.5 1.5 1.94772 1.5 2.5V4.5V5H2H20ZM3 6.1H2.5V6.6V18C2.5 18.8284 3.17157 19.5 4 19.5H18C18.8284 19.5 19.5 18.8284 19.5 18V6.6V6.1H19H3ZM13.7248 9.3C13.644 9.56262 13.4999 9.80422 13.3021 10.0021C12.9833 10.3209 12.5509 10.5 12.1 10.5H9.9C9.44913 10.5 9.01673 10.3209 8.69792 10.0021C8.50006 9.80422 8.35601 9.56262 8.27519 9.3H13.7248Z" fill="#F45538" stroke="#F45538"/>
</svg>
