<svg width="20" height="18" viewBox="0 0 20 18" fill="none" xmlns="http://www.w3.org/2000/svg">
<path d="M8 8.33594C6.9 8.33594 5.95833 7.94427 5.175 7.16094C4.39167 6.3776 4 5.43594 4 4.33594C4 3.23594 4.39167 2.29427 5.175 1.51094C5.95833 0.727604 6.9 0.335938 8 0.335938C9.1 0.335938 10.0417 0.727604 10.825 1.51094C11.6083 2.29427 12 3.23594 12 4.33594C12 5.43594 11.6083 6.3776 10.825 7.16094C10.0417 7.94427 9.1 8.33594 8 8.33594ZM0 16.3359V13.5359C0 12.9859 0.141667 12.4693 0.425 11.9859C0.708333 11.5026 1.1 11.1359 1.6 10.8859C2.45 10.4526 3.40833 10.0859 4.475 9.78594C5.54167 9.48594 6.71667 9.33594 8 9.33594H8.35C8.45 9.33594 8.55 9.3526 8.65 9.38594C8.51667 9.68594 8.404 9.9986 8.312 10.3239C8.22 10.6493 8.14933 10.9866 8.1 11.3359H8C6.81667 11.3359 5.75433 11.4859 4.813 11.7859C3.87167 12.0859 3.10067 12.3859 2.5 12.6859C2.35 12.7693 2.229 12.8859 2.137 13.0359C2.045 13.1859 1.99933 13.3526 2 13.5359V14.3359H8.3C8.4 14.6859 8.53333 15.0319 8.7 15.3739C8.86667 15.7159 9.05 16.0366 9.25 16.3359H0ZM14 17.3359L13.7 15.8359C13.5 15.7526 13.3123 15.6649 13.137 15.5729C12.9617 15.4809 12.7827 15.3686 12.6 15.2359L11.15 15.6859L10.15 13.9859L11.3 12.9859C11.2667 12.7526 11.25 12.5359 11.25 12.3359C11.25 12.1359 11.2667 11.9193 11.3 11.6859L10.15 10.6859L11.15 8.98594L12.6 9.43594C12.7833 9.3026 12.9627 9.19027 13.138 9.09894C13.3133 9.0076 13.5007 8.91994 13.7 8.83594L14 7.33594H16L16.3 8.83594C16.5 8.91927 16.6877 9.01094 16.863 9.11094C17.0383 9.21094 17.2173 9.33594 17.4 9.48594L18.85 8.98594L19.85 10.7359L18.7 11.7359C18.7333 11.9359 18.75 12.1443 18.75 12.3609C18.75 12.5776 18.7333 12.7859 18.7 12.9859L19.85 13.9859L18.85 15.6859L17.4 15.2359C17.2167 15.3693 17.0377 15.4819 16.863 15.5739C16.6883 15.6659 16.5007 15.7533 16.3 15.8359L16 17.3359H14ZM15 14.3359C15.55 14.3359 16.021 14.1399 16.413 13.7479C16.805 13.3559 17.0007 12.8853 17 12.3359C17 11.7859 16.804 11.3149 16.412 10.9229C16.02 10.5309 15.5493 10.3353 15 10.3359C14.45 10.3359 13.979 10.5319 13.587 10.9239C13.195 11.3159 12.9993 11.7866 13 12.3359C13 12.8859 13.196 13.3569 13.588 13.7489C13.98 14.1409 14.4507 14.3366 15 14.3359ZM8 6.33594C8.55 6.33594 9.021 6.13994 9.413 5.74794C9.805 5.35594 10.0007 4.88527 10 4.33594C10 3.78594 9.804 3.31494 9.412 2.92294C9.02 2.53094 8.54933 2.33527 8 2.33594C7.45 2.33594 6.979 2.53194 6.587 2.92394C6.195 3.31594 5.99933 3.7866 6 4.33594C6 4.88594 6.196 5.35694 6.588 5.74894C6.98 6.14094 7.45067 6.3366 8 6.33594Z" fill="#F45538"/>
</svg>
