<svg width="22" height="19" viewBox="0 0 22 19" fill="none" xmlns="http://www.w3.org/2000/svg">
<path d="M5.31056 10.4443H4.81056V10.9443V13.0198L0.814411 9.91168L4.81056 6.80357V8.87908V9.37908H5.31056H14.3696V10.4443H5.31056Z" fill="#F45538" stroke="#F45538"/>
<path d="M11.7987 18.5C9.51519 18.5 7.36341 17.689 5.68002 16.2079L6.20287 15.6969C7.65936 16.987 9.53995 17.8478 11.7987 17.8478C14.1897 17.8478 16.2501 16.8376 17.7529 15.3626C19.2515 13.8916 20.3251 11.8527 20.3251 9.50002C20.3251 7.14735 19.2515 5.1084 17.7529 3.63746C16.2501 2.16242 14.1897 1.15217 11.7987 1.15217C9.53995 1.15217 7.65936 2.01301 6.20287 3.30313L5.6793 2.79142C6.44615 2.11512 7.32576 1.57035 8.28135 1.1817C9.39558 0.728522 10.5907 0.49675 11.7973 0.500042L11.8 0.500034C13.0067 0.49675 14.2018 0.728522 15.316 1.1817C16.4302 1.63487 17.4411 2.3003 18.2905 3.13899L18.2916 3.14016C20.0248 4.84033 20.9773 7.09742 20.9773 9.50002C20.9773 11.9026 20.0248 14.1597 18.2916 15.8599L18.2914 15.8601C16.559 17.5616 14.255 18.5 11.7987 18.5Z" fill="#F45538" stroke="#F45538"/>
</svg>
