<svg width="27" height="21" viewBox="0 0 27 21" fill="none" xmlns="http://www.w3.org/2000/svg">
<path d="M17.1168 5.33464L18.6668 6.88463L9.8835 15.668L8.3335 14.118L17.1168 5.33464ZM3.16683 0.167969H23.8335C25.2672 0.167969 26.4168 1.31755 26.4168 2.7513V7.91797C25.7317 7.91797 25.0746 8.19014 24.5901 8.67461C24.1057 9.15908 23.8335 9.81616 23.8335 10.5013C23.8335 11.1864 24.1057 11.8435 24.5901 12.328C25.0746 12.8125 25.7317 13.0846 26.4168 13.0846V18.2513C26.4168 19.6851 25.2672 20.8346 23.8335 20.8346H3.16683C2.48169 20.8346 1.82461 20.5625 1.34014 20.078C0.855668 19.5935 0.583496 18.9364 0.583496 18.2513V13.0846C2.01725 13.0846 3.16683 11.9351 3.16683 10.5013C3.16683 9.81616 2.89466 9.15908 2.41019 8.67461C1.92572 8.19014 1.26864 7.91797 0.583496 7.91797V2.7513C0.583496 2.06616 0.855668 1.40908 1.34014 0.924609C1.82461 0.44014 2.48169 0.167969 3.16683 0.167969ZM3.16683 2.7513V6.03214C3.95175 6.48473 4.60362 7.13607 5.05687 7.92062C5.51011 8.70516 5.74874 9.59524 5.74874 10.5013C5.74874 11.4074 5.51011 12.2974 5.05687 13.082C4.60362 13.8665 3.95175 14.5179 3.16683 14.9705V18.2513H23.8335V14.9705C23.0486 14.5179 22.3967 13.8665 21.9435 13.082C21.4902 12.2974 21.2516 11.4074 21.2516 10.5013C21.2516 9.59524 21.4902 8.70516 21.9435 7.92062C22.3967 7.13607 23.0486 6.48473 23.8335 6.03214V2.7513H3.16683ZM10.271 5.33464C11.3431 5.33464 12.2085 6.20005 12.2085 7.27214C12.2085 8.34422 11.3431 9.20963 10.271 9.20963C9.19891 9.20963 8.3335 8.34422 8.3335 7.27214C8.3335 6.20005 9.19891 5.33464 10.271 5.33464ZM16.7293 11.793C17.8014 11.793 18.6668 12.6584 18.6668 13.7305C18.6668 14.8026 17.8014 15.668 16.7293 15.668C15.6572 15.668 14.7918 14.8026 14.7918 13.7305C14.7918 12.6584 15.6572 11.793 16.7293 11.793Z" fill="#F45538"/>
</svg>
